/* XPM */
static char *_a1dd9fbb57941709234772978a12219jYiznxyProEPNaFp[] = {
/* columns rows colors chars-per-pixel */
"64 64 233 2 ",
"   c #2A262D",
".  c #2D2A35",
"X  c #37323A",
"o  c #332D34",
"O  c #443B3C",
"+  c #49413C",
"@  c #3B3846",
"#  c #1C367C",
"$  c #2D3B63",
"%  c #423E47",
"&  c #36466C",
"*  c #3B4E74",
"=  c #3E5175",
"-  c #3E4051",
";  c #4A4343",
":  c #45424B",
">  c #4A464D",
",  c #494549",
"<  c #544B49",
"1  c #4C4A53",
"2  c #484957",
"3  c #524E54",
"4  c #534F59",
"5  c #55525B",
"6  c #595458",
"7  c #585053",
"8  c #655A58",
"9  c #6A5A52",
"0  c #75645C",
"q  c #5C5A64",
"w  c #5A5966",
"e  c #435374",
"r  c #495879",
"t  c #4D566F",
"y  c #635D64",
"u  c #5A6379",
"i  c #64626D",
"p  c #6B6569",
"a  c #766B69",
"s  c #636472",
"d  c #6C6A75",
"f  c #686A79",
"g  c #726E75",
"h  c #74727B",
"j  c #7B7477",
"k  c #72717A",
"l  c #837A79",
"z  c #8C7868",
"x  c #928377",
"c  c #A88E73",
"v  c #1D3B84",
"b  c #1D3B84",
"n  c #203E86",
"m  c #1F4089",
"M  c #23448C",
"N  c #2A4A8E",
"B  c #264589",
"V  c #264A92",
"C  c #2A4D94",
"Z  c #2A4F98",
"A  c #244790",
"S  c #2C5096",
"D  c #2D529B",
"F  c #325395",
"G  c #31569C",
"H  c #34589D",
"J  c #3A599A",
"K  c #3056A0",
"L  c #345BA3",
"P  c #395EA4",
"I  c #375EA9",
"U  c #385FA9",
"Y  c #2F55A0",
"T  c #3C61A6",
"R  c #3A63AC",
"E  c #3D67AD",
"W  c #3C67B0",
"Q  c #3E69B2",
"!  c #495C85",
"~  c #465D90",
"^  c #5B6584",
"/  c #57678A",
"(  c #4A639A",
")  c #556B9C",
"_  c #586B96",
"`  c #5C729B",
"'  c #4E6189",
"]  c #636A84",
"[  c #626D8B",
"{  c #676D85",
"}  c #6D738C",
"|  c #687289",
" . c #7B7983",
".. c #767888",
"X. c #6A7593",
"o. c #6C7A9C",
"O. c #677697",
"+. c #737B93",
"@. c #757C95",
"#. c #616F92",
"$. c #4C6BA5",
"%. c #446AAC",
"&. c #4B6CAB",
"*. c #4365A7",
"=. c #546DA3",
"-. c #546FA6",
";. c #4E71AE",
":. c #5B73A3",
">. c #5372AC",
",. c #5A75A9",
"<. c #426DB4",
"1. c #476EB3",
"2. c #4670B5",
"3. c #4B72B4",
"4. c #4B75BB",
"5. c #4A75BC",
"6. c #5375B2",
"7. c #5579B5",
"8. c #5C7BB4",
"9. c #537BBC",
"0. c #5A7EBA",
"q. c #5876B2",
"w. c #637DAB",
"e. c #667BA4",
"r. c #637EB3",
"t. c #647FB6",
"y. c #707FA2",
"u. c #4E7AC1",
"i. c #527DC2",
"p. c #587FC0",
"a. c #817E86",
"s. c #74829C",
"d. c #7C8398",
"f. c #7F828E",
"g. c #5D82BD",
"h. c #5682BF",
"j. c #6C83AC",
"k. c #6681AC",
"l. c #7888A8",
"z. c #7C92AC",
"x. c #6B84B4",
"c. c #6383BB",
"v. c #6C8ABC",
"b. c #6885B7",
"n. c #748BB4",
"m. c #738CBA",
"M. c #768BB5",
"N. c #7C94BB",
"B. c #7A94B8",
"V. c #5581C5",
"C. c #5B84C3",
"Z. c #5987C9",
"A. c #5D8BCB",
"S. c #5A88C6",
"D. c #648AC4",
"F. c #6A8CC2",
"G. c #628CC9",
"H. c #6487C3",
"J. c #728EC2",
"K. c #6C93CB",
"L. c #6A94CA",
"P. c #7494C4",
"I. c #7A95C3",
"U. c #7C99C4",
"Y. c #7396CA",
"T. c #739BCC",
"R. c #7C9BCA",
"E. c #7799C7",
"W. c #6C99D1",
"Q. c #749DD1",
"!. c #79A2CE",
"~. c #74A2D3",
"^. c #7AA2D1",
"/. c #888489",
"(. c #958B85",
"). c #848593",
"_. c #83899D",
"`. c #898A98",
"'. c #94949D",
"]. c #989599",
"[. c #929095",
"{. c #A69788",
"}. c #A79D92",
"|. c #B0A496",
" X c #868DA4",
".X c #8D93A3",
"XX c #8894AB",
"oX c #9395A3",
"OX c #989BA8",
"+X c #8C9BB4",
"@X c #8295BB",
"#X c #849ABC",
"$X c #8B9DBD",
"%X c #8496B4",
"&X c #949DB1",
"*X c #A19FA7",
"=X c #9DA1AA",
"-X c #8BA1BB",
";X c #94A4BC",
":X c #9BA5BA",
">X c #9BA5B7",
",X c #A5A4AA",
"<X c #A6AAB7",
"1X c #ADB0BD",
"2X c #B4B4B8",
"3X c #B6B0AE",
"4X c #C6BCAD",
"5X c #C5AB8A",
"6X c #D2C8B6",
"7X c #E7DABD",
"8X c #839CC4",
"9X c #839ECA",
"0X c #899DC1",
"qX c #919FC0",
"wX c #8CA2C3",
"eX c #8AA4CB",
"rX c #87A5CB",
"tX c #93A5C3",
"yX c #9CABC3",
"uX c #94ACCB",
"iX c #96AAC8",
"pX c #9BB1CC",
"aX c #89AAD4",
"sX c #93AED2",
"dX c #95B3D4",
"fX c #92B6DA",
"gX c #96B8D8",
"hX c #8FB3D9",
"jX c #A3ADC2",
"kX c #A6B3C8",
"lX c #B2BBCA",
"zX c #B8C7D1",
"xX c #E0DAC7",
/* pixels */
"~ ( _ ( ( n F n Y n n D Z C C C Z C C C Z C C C D C C Z Z C C C C C C V C C A C N C n n Z C n F n C n n n n n n n n b b # # # # ",
"~ ' _ _ ) ~ J F J K C Z Z Z C C C Z Z Z D C C C C Z C Z Z Z C C C Z Z Z Z C Z N C N Z F C C N N F n n F N n n n b n b b b # # # ",
"~ ( _ :.:.) ( ( ( J Z Z G Z Z Z G Z Z Z D C D D D Z Z Z Z Z Z Z Z Z Z Z Z Z C C C F C F F F N N F n F N B n A n n b b b b b # # ",
"~ ~ ( :.:.:.=.:.-.*.F D Z Z Z G Z G Z D D D D D D D D D D D D Z Z Z Z Z Z Z Z Z Z F F F F N F N F N F N N N N N n b b b b # # # ",
"~ ( ) :.:.) =.=.$.( G D G Y D Y G Z G G Y Y Y D Y Y Y Y Y D Y Z Z Y Z Y Z Z G Z Z G F F F F F C F N F n C n N n A b b n n n n # ",
") ) ) :.:.=.$.-.=.$.P G G G G G K K K Y Y Y Y Y G K Y Y Y G Y Y G Y G G Y Z G K Y Z J F F F F F F F Z N C C C n M M n M n # n # ",
"_ ) :.) =.=.$.=.=.$.*.G K K K K K K K K H H L L K K K K K Y K Y Y Y K K G G G J Y J G J F F C F N F Z N C n Z N M A M n B n b b ",
") =.=.:.=.=.$.-.$.*.*.P P L L L L L L L L L L L L L P L L L L L L K K K K L K K K H H D ~ ~ J F F F Z C C C C C A A A M B n b n ",
"$.) =.:.-.$.$.,.-.*.%.T T P P P U L L L U U U L I I I I I Y I Y L K L L L Y L K K L H J ( J G J F G S S C S S V V V A A m m m m ",
") ) $.-.,.>.$.,.>.&.-.$.&.U U I U U U U U U U U I I I I I I I I I L L I I L I L I K K P J J H J H D D S S S S S C V A A A m M m ",
"$.$.-.-.,.-.&.&.>.&.>.>.q.%.U T *.U R U U T U R I I I I I I I I I I I I I I I I L L L P J J H L H H G G S S S S C C C A A A A M ",
"T $.&.-.$.%.;.&.q.q.t.M.t.t.%.%.Q R R W R R R R I I W I I I W I I U I I I I I I I I I P P P P K L G H H G G D D Z Z V V A A A M ",
"T *.*.&.%.%.&.;.6.q.x.N.@Xt.&.1.<.Q W W W W W W W W W I W W W I R U I I W I I I U U U U U U L L K L H G G G D D Z Z Z Z V V A A ",
"T *.*.*.*.%.&.;.6.q.M.0X0XM.q.6.<.Q W W W Q W Q W W W W W W W W W W W W W W W W R R R I U U I I L L L L K G K D D Z Z Z Z V V A ",
"T %.E E E E %.%.q.7.0.m.J.J.t.0.Q Q Q Q W Q Q Q Q Q W W Q Q Q Q W W W W W W W W R W W I R U U U I L L I L L K K Y D D Z D V V V ",
"-.>.*.E R E E 1.1.3.6.t.b.t.0.t.u.Q u.Q Q Q Q Q 5.Q Q Q Q Q Q Q W Q Q Q W W W W W W W R W R W U T T I I I L I L K K D D D Z D V ",
"8.n.8.E E E <.<.<.<.7.b.v.0.0.c.4.2.2.Q 2.Q u.Q 5.Q Q Q 5.Q Q Q Q 1.1.1.4.4.4.1.Q Q Q Q 1.q.q.-.E %.E E *.*.T U T H Y Y D Z Z C ",
"&.k.b.;.<.E %.2.3.3.4.c.c.0.0.0.9.3.2.2.2.2.u.Q Q Q 5.Q 5.Q 5.Q 5.4.t.t.J.t.t.u.1.Q 1.1.q.t.t.t.k.%.&.%.&.&.*.T *.T P K Y D Z Z ",
"%.;.7.;.3.<.3.3.3.4.9.0.9.0.9.0.9.5.5.5.2.Q 2.u.5.5.5.Q 5.5.5.Q u.t.J.9X@X9X9XJ.t.p.t.8X8XqXqX8Xx.6.&.;.-.q.q.w.q.,.$.P L G K Z ",
"2.<.1.2.<.7.h.h.9.4.9.0.9.4.4.0.9.5.5.3.u.u.u.2.u.5.5.5.5.Q 5.5.p.J.I.@X9XI.9X9XJ.t.t.t.@X8XM.@Xm.8.>.q.q.r.r.w.y.t.-.T L K G K ",
"n.7.2.2.3.7.v.m.c.0.C.0.p.0.p.p.9.5.4.5.u.2.u.u.5.5.5.5.u.u.u.u.u.t.t.Y.aX9Xp.t.p.p.t.t.t.M.M.@XM.x.t.t.t.r.r.r.t.r.>.*.T L G G ",
"B.%Xg.7.7.h.D.v.I.F.v.H.H.H.I.t.c.9.i.i.u.u.5.u.u.u.u.5.u.u.u.u.4.u.p.p.p.p.p.p.p.t.Y.t.J.t.J.@X8XN.v.t.t.r.6.q.w.q.>.T T L K G ",
"k.b.v.g.c.v.P.I.I.P.Y.J.J.p.8X8XM.0.0.p.u.u.u.u.u.u.u.u.u.u.i.i.u.u.p.p.p.p.p.i.p.t.Y.Y.J.t.J.I.@XI.t.t.q.q.6.6.q.>.%.*.U P L K ",
"7.9.h.g.F.wXwXU.I.Y.J.J.H.p.J.I.n.H.C.i.u.u.u.u.u.u.u.u.u.u.i.i.u.i.i.i.i.p.p.p.9Xp.9Xt.F.t.t.t.t.t.t.t.8.6.6.6.q.>.%.%.T P L L ",
"7.3.9.h.g.!.B.U.E.E.I.L.p.p.F.t.w.H.F.p.i.i.i.i.i.i.i.i.i.i.i.i.i.i.i.i.i.i.p.p.H.F.t.t.K.t.t.p.t.c.t.0.7.7.6.q.q.q.-.&.%.U I L ",
"9.h.9.9.g.C.v.F.I.E.L.P.J.K.G.M.l.<XjXjX8X9Xp.i.i.i.i.i.i.i.i.i.p.p.i.i.i.i.p.W.Y.Y.9X9X9XJ.F.t.H.v.F.t.7.6.7.t.x.t.t.q.-.%.*.*.",
"g.v.g.h.m.D.F.D.P.P.F.D.9X9X8XXX X*X2X<XqXqXp.i.A.i.i.A.i.i.A.p.p.p.i.p.i.i.p.Q.J.R.8X9XJ.J.p.p.c.c.t.p.0.0.b.x.M.M.x.w.,.>.%.&.",
"B.$X-XC.F.F.P.I.I.L.P.U.:XjXjX,X X.XoXoX0X9XW.i.A.i.W.i.i.W.i.p.p.p.p.p.p.p.W.p.Y.Y.I.Y.F.p.H.p.0.i.4.9.t.m.M.n.x.n.x.r.8.6.%.*.",
"%XB.B.h.!.B.J.wXP.A.$X:X$X<X<X,X,X.Xa.a.8X9XsX9XA.A.W.p.p.p.i.p.i.i.p.p.W.W.p.W.G.H.H.H.H.p.p.p.p.c.H.m.N.v.x.x.k.g.8.3.1.%.E E ",
"v.b.g.S.!.;XwXU.D.P.;X>X&XOX*XoX.Xa.X.X.y.9X9XaXQ.W.p.p.p.W.i.W.p.aXp.p.Q.p.p.aX9XJ.F.G.G.D.D.H.H.H.H.c.c.k.b.c.8.8.7.2.&.1.%.E ",
"C.C.S.v.#X>X<X-XtXyX-X>XOX'.oX Xa.} X.@.M.9X9X9XW.p.Q.W.W.p.W.i.W.W.Y.Y.Y.Y.aXsX8X9XY.R.R.9X8XI.J.H.0.i.g.g.c.b.g.7.7.3.2.;.2.%.",
"C.C.C.L.#XB.%X$X<X:X:XOXoXa.a.a.@.X.} y.8XjXiX9XW.W.W.p.p.W.i.W.i.aXY.9X9X9XsXsX9XI.I.9X9XI.8X9X0XI.F.c.g.c.c.c.g.0.7.3.3.2.1.%.",
"S.S.G.L.wXN.M.XXOX3X<X Xa.{ { { a.t.a.a.*X1X1XeX9XY.W.Q.Q.A.A.W.Q.W.9XjXkX1XjXqX0X9X9X0X9X9XI.Y.I.F.H.C.g.g.g.g.g.h.h.>.3.3.3.%.",
"G.G.G.D.Y.N.B.%XOX*XOXy.@.{ f ] #.a.a.qX*X*X<X1XsXeXQ.Y.Q.W.W.W.p.aXkX1XjXjXqX9XtXpXiX9XI.P.F.J.P.F.H.H.D.g.S.g.g.g.h.3.3.3.2.%.",
"L.L.E.!.R.E.wX#XM.l.a.o.O.X.] ] #.a.a.a.a.*X<X1X1X1XiXQ.W.9X9X9XfXjXqXqXa.@X@XqX<X:X$XE.K.F.J.I.m.I.P.F.v.S.g.g.h.h.3.h.h.;.;.E ",
"L.L.E.;X;XwX>X-X@Xx.t.e.y.X.] ] ^ _ :.a.a.a.a.OX,X,XkXlXkXlXlXlXsX@Xa.t.I.@XlXa.XXz.N.L.K.Y.Y.I.I.Y.P.F.L.D.g.h.h.7.4.4.E $.$.;.",
"v.T.T.B.+X>X+XE.@XM.x.x.l.+.] ^ ^ ^ _ { #.a.a.a.a.a.jXlX<X,X<X<XqX@XM.J.I.J.@X@Xs.j.B.I.L.L.E.E.9XU.P.v.c.C.h.h.h.5.3.%.) $.h.E ",
"!.U.T.!.U.XX X#X@X%XN.U.l.X.] ^ ^ ^ #._ _ ] #.#.y.a.a.OXoX`. X.Xa.jXa.qX@Xa.J.a.j.k.m.b.v.L.v.b.m.P.b.k.g.g.h.h.h.;.k.k.) ;.$.h.",
"!.-X!.L.T.#Xz.#XwX#X$X8Xz.o.} { ^ ^ #._ _ ^ ^ ] X.a.a.a.d.@.d.d.a.qXa.@XM.a.M.t.s.k.b.k.v.L.k.h.v.x.x.k.k.C.C.h.h.k./ ) ( k.;.$.",
";X!.uX;XuX<X&X>XtX!.wXrX8X Xy.#.#.#.:.a.y.X._ _ #.o.y.t.#.| +.+.t.a.a.t.t.q.t.a.k.k.k.g.v.v.k.k.k.j.j.j.x.v.v.k.k.' $.k.' ( $.' ",
"<X>X1X3X2X3X=X=X;XuXtXuXeX@Xn.e.a.:.t.a.J.r.:.o.O.O.o.#.O.X.X.X.o.a.t.t.e.` :.w.e.:.:.x.v.h.k.k.j.n.B.B.E.B.k.k.' k.k.~ r ( r = ",
"=X'.=XoX.X.X.XoX>XyXtXiXiX$X%Xl.@XM.@XqX9X9Xy.o.,.O.o.O.o.o.` o.M.M.@Xt.w.:.w.w.:.` w.F.W.v.v.v.n.z.rX-X!.L.v.k._ h.k.( r = e = ",
"d.d.z.z.z.n.l.z.oX<X:XuX<X:X&X&XqXqXqXqXjXyX8Xt.l.o.j.l.j.j.k.m.9XqXI.J.m.x.F.r.,.k.x.L.W.W.W.L.W.!.!.U.B.v.v.b.k.k.' r e = * & ",
"s.s.XX;X>X>X-XXXXX.X+XuXtXOXoXoXa.sXjXqXqXqXqXqX#XN.U.U.I.B.I.rXaX9XeX9X8Xx.Y.F.v.L.T.W.~.~.W.W.W.L.L.L.T.T.k.s.s.u ' r r = & $ ",
"z.-X.XoX'.=X>X>X&XXX+X<X<XoX`..XoX&XqXeXaXaXeXeXrXwXeXeXaXrXaX^.aXaXaXaX8XJ.Q.Q.T.~.~.~.~.~.W.W.T.W.T.T.E.z.k.u [ / ' ! r & & $ ",
"z.U.XX.X=X=X,X>X+X$XrXtXoXa.a.a.oXoX:XsXsXsXsXsXhXuXpXpXpXdXaXhXaXaXaX9X9X9X9XR.~.~.~.~.~.~.~.T.T.W.T.L.n.k.k.t r u r e * & $ $ ",
"rX!.uX+Xz..X'.=X>XiXsXyX&X@.} { ..a.oX*X,X<XpXsXfXhXiX;X;XiXpXdXkXpXpXyXaX0Xa.8XB.v.!.~.~.~.~.~.E.!.-XB.k.k._ r r r * * * & $ $ ",
">X>X-X&X.Xd.`.'.OX:XiXtX$X Xy.X.X.[ @.a. X:XpXdXdXfXdXaXrXuXiXpXjXjXjXjXpXXXa.J.b.k.v.~.~.~.~.~.!.!.!.v.b.k.k._ ! e * * * & & $ ",
"f.f.[.[.z.x 3X=Xf.].<X<XyX>X>X-XB.l.s.} f. X:XyXpXpX:XkXgXgXdXdX$X&XoXoX.Xs.s.s.O.k.b.T.!.~.!.!.E.!.B.k.k.k.k.k.r r = e = & & = ",
"f.f.s.k ..f.3X].k  .f.].=X>X-XgXwX-Xz.X.+.s.&X;X:XkXiXiXpXpX1X:X>X X X_._._.l.z.s.s.k.n.B.!.~.~.j.k.k.s.#.` u / ' r r r = = = = ",
".Xz.z.s.f.|.6X6X=Xs.f.f.z.-XgXgXfXfXuXeXwXaXaXdXdXdXpXyX>X;XXXz. X_.d.d._._._.d.^ / [ / #.z.B.E.k./ u r r r = r r r r t t t e = ",
"U.-X-Xz.-X4XxXxXxX4X>X!.-XgXgXgXfXfXfXfXhXfXdXdXfXgXuXpX;XpX-Xz.z.d.d._._.).s.| [ [ [ / [ s.s.s.s.s./ u u r r r r r = t u u u t ",
"=X=X'.=X=X4X7X7X6X7X6XdXgXgXgXgXfXfXfXgXgXpXtX&X>XgXfXfXfXfXhXuX+Xl._._.d.d.f.s.s.| s.| | | ^ f d | s.u u u u u f u s u f k s.] ",
"x 4X=X}.|.|.4X7X6X6X6X4X4XzXzXkXzXzXgXkXiX<X<XXX.X<X1XgXgXgXpX=XOX XoX_.`.`.s.z.z.s.s.| | [ #.| k l ....s.s.f s k j l j d s f | ",
"i d i x c c }.}.x {.c |.|.4X|.|.3X4X,X].'.).).a._..XoX>XdXgX;X&X.X;X'..X'.d.z.z.s.z.z.s.s.s.l.z.s.k | k d | i q y y p p y 5 1 u ",
"i p p l x (./.l a j j p /.3Xx f. .a. .h  .h  . ./.).`..X.XXX;X+X'.&X'.].f.k [ f.f f.z.s.z.z.z.z.d.x x k g j p 6 3 < 1 , , @ - 2 ",
"q d p j x l a p p 0 q q j |.x  .k d d f f f  .[.].f./.`.).d..X.X[.'.].|.'.f u u s { ..d.+.+.s.d.f.{.}.(.j a i 7 , % - @ @ @ - @ ",
"1 1 5 q p p q 3 3 , 1 5 q k s f s s y i s g  . .[././././.k h f.f.f.[.[.h f u i w s h  .k f s d i g j /.(.k a j 5 - - 2 2 2 - X ",
", , , 3 3 6 6 1 1 , , 5 5 w q q q q q i s g g ..j f.(./.f.s i k k j ). .s s s i w s d h h f i i w w p g j d s a q 2 t t 2 2 - X ",
", - , 1 3 3 1 1 , 6 2 1 1 1 1 5 q 5 q q q i w y p p k a.j s w w i j j ..f w w q a g y p j q w 2 5 1 6 5 6 w 4 4 1 2 2 2 - - : . ",
", 1 , 1 5 5 3 3 1 , , : : : 1 2 3 5 6 6 8 a 8 7 5 w s k x h w 2 5 p g d k i w 5 y 8 6 8 y 5 y w : % % : 1 1 : 1 - @ @ : : @ % X ",
"+ : , , , : , , , , : - : : , 1 7 7 7 8 0 0 a 9 p c |.{.x {.d y 5 p i q q q 5 5 q q 5 1 > > 2 1 @ @ o o X X @ , : @ @ X , < , X ",
"+ + , + : : , , + , @ + , , 6 7 9 0 7 7 9 0 z c x c 5Xc l a q 6 i p 8 3 3 4 5 4 4 4 3 : % @ % % % @ .     o X X X . o . o + + o ",
"+ + < + + + + , + + + @ + + < 9 9 9 9 < 9 9 c c z z x j p p q 5 8 8 6 , 1 , : : % > % @ @ @ @ > 3 > % X       o . .       o o   "
};
