/* XPM */
static char *_5aca401fcd74b29e7d7a798f40414d3PbGZTlUJEGwRqZWP[] = {
/* columns rows colors chars-per-pixel */
"64 64 185 2 ",
"   c #5D5B5F",
".  c #605C5E",
"X  c #5E5C61",
"o  c #615F61",
"O  c #656365",
"+  c #696567",
"@  c #676568",
"#  c #696669",
"$  c #6D6A6C",
"%  c #716E6E",
"&  c #74706F",
"*  c #6F6C70",
"=  c #726E71",
"-  c #737071",
";  c #727072",
":  c #737072",
">  c #737172",
",  c #727073",
"<  c #737073",
"1  c #737173",
"2  c #747071",
"3  c #757071",
"4  c #747171",
"5  c #757171",
"6  c #767071",
"7  c #767171",
"8  c #747072",
"9  c #747172",
"0  c #757172",
"q  c #747073",
"w  c #757073",
"e  c #747173",
"r  c #757173",
"t  c #767172",
"y  c #767173",
"u  c #757272",
"i  c #747273",
"p  c #757273",
"a  c #767272",
"s  c #767273",
"d  c #777273",
"f  c #777373",
"g  c #737074",
"h  c #737174",
"j  c #747074",
"k  c #747174",
"l  c #757174",
"z  c #747175",
"x  c #767174",
"c  c #747274",
"v  c #757274",
"b  c #747275",
"n  c #757275",
"m  c #757375",
"M  c #767274",
"N  c #777274",
"B  c #767374",
"V  c #777374",
"C  c #767275",
"Z  c #777275",
"A  c #767375",
"S  c #777375",
"D  c #757276",
"F  c #757377",
"G  c #767276",
"H  c #767376",
"J  c #777376",
"K  c #767474",
"L  c #777474",
"P  c #777475",
"I  c #767476",
"U  c #777476",
"Y  c #777576",
"T  c #767477",
"R  c #777477",
"E  c #777577",
"W  c #757273",
"Q  c #797373",
"!  c #787374",
"~  c #797374",
"^  c #787375",
"/  c #787474",
"(  c #787475",
")  c #797475",
"_  c #787575",
"`  c #7A7475",
"'  c #7A7575",
"]  c #787476",
"[  c #797476",
"{  c #787576",
"}  c #797576",
"|  c #787477",
" . c #797477",
".. c #787577",
"X. c #797577",
"o. c #7A7476",
"O. c #7A7576",
"+. c #7A7577",
"@. c #797677",
"#. c #7A7676",
"$. c #7A7677",
"%. c #7B7677",
"&. c #7B7777",
"*. c #7C7777",
"=. c #797576",
"-. c #7C7877",
";. c #787578",
":. c #797578",
">. c #797579",
",. c #7A7578",
"<. c #787678",
"1. c #797678",
"2. c #797679",
"3. c #797779",
"4. c #7A7678",
"5. c #7B7678",
"6. c #7A7778",
"7. c #7B7778",
"8. c #7A7679",
"9. c #7B7679",
"0. c #7A7779",
"q. c #7B7779",
"w. c #7A777A",
"e. c #7B777A",
"r. c #7C7778",
"t. c #7C7679",
"y. c #7C7779",
"u. c #7C777A",
"i. c #7B7778",
"p. c #7B7879",
"a. c #7B787A",
"s. c #7B797A",
"d. c #7B787B",
"f. c #7B797B",
"g. c #7C7878",
"h. c #7C7879",
"j. c #7D7879",
"k. c #7C7979",
"l. c #7D7979",
"z. c #7C787A",
"x. c #7D787A",
"c. c #7C797A",
"v. c #7D797A",
"b. c #7C787B",
"n. c #7D787B",
"m. c #7C797B",
"M. c #7D797B",
"N. c #7E797A",
"B. c #7F797A",
"V. c #7E787B",
"C. c #7E797B",
"Z. c #7D7A7B",
"A. c #7E7A7A",
"S. c #7E7A7B",
"D. c #7F7A7B",
"F. c #7E7B7B",
"G. c #7F7B7B",
"H. c #7C797C",
"J. c #7D797C",
"K. c #7E797C",
"L. c #7E797D",
"P. c #7C7A7C",
"I. c #7D7A7C",
"U. c #7E7A7C",
"Y. c #7F7A7C",
"T. c #7E7B7C",
"R. c #7F7B7C",
"E. c #7E7A7D",
"W. c #7F7A7D",
"Q. c #7E7B7D",
"!. c #7F7B7D",
"~. c #7F7C7D",
"^. c #7D797A",
"/. c #807B7B",
"(. c #807B7C",
"). c #807B7D",
"_. c #807B7E",
"`. c #807C7C",
"'. c #807C7D",
"]. c #817D7D",
"[. c #807C7E",
"{. c #817C7E",
"}. c #817D7F",
"|. c #807C7D",
" X c #827F80",
/* pixels */
"= < < g g T T T j j = ' j ' :.d.u.T.V.u.:.u.:.T.V.V.T.e.:.T.:.:.:.= :.j j ' j T :.j j < = $ j j Y j = = * = g * = * * * * * * # ",
"g j < < 2 T T j g g = 2 :.' :.u.T.T.T.:.T.u.T.T.:.:.V.V.:.:.:.' j = ' 2 ' j j :.j ~ Y j j 2 j j g = * = = * = = * * = * * * # @ ",
"j = = < j 2 ' Y j j < < ' d.j /.u.v.' :.u.v.v.T.V.:.T.V.T.d.:.:.:.' j j ' j g j ~ 2 j < ' Y = j = = g = * g g * $ * * * * * * @ ",
"= = = 2 T = Y j ' Y f 2 Y ' d.v.T.T.).v.u.v.v.:. XT.V.T :.v.:.' :.j j = j ' ' j 2 j ' Y ' Y $ j = * g = $ < g * * * * j * g * # ",
"= = 2 2 j j Y ' j Y Y Y 2 :.' :.u.v.v.:.{.v.v.v.V.e.u.:.v.' :.d.-.d.:.2 f j ' :.:.' ~ Y 2 2 j T T T g = = = = = $ = g = g * * * ",
"= = 2 % ' ' 2 % 2 ' j 2 ' ' j ).v.v.v.d.v.d.:.{.).:.u./.v.v.u.).Q v.2 = ' :.Y ' v.j j j Y j Y ' :.j 2 = $ g T j $ $ * g * * # * ",
"= = Q ~ ' j 2 ' v.' ' :.:.:.-.*.d.T.v.v.d.' v.v.v.u.u.{.T.T.:.j % ' d.$ :.' :.' :.Y Y ' ' j j ' :.' = < = = = $ $ g $ = = = * * ",
"= 6 = = 2 Y Y Y *.j j ' 2 ' -.v.2 ' T.~.:.' v.v.u.u.v.v.T.T.,.~ ~ :.' ' j ' j Y j Y j j j ' Y ' j j = * = g g g # * = = * * * * ",
"& < < < < 2 :.' ' ' Y f 2 ' ' d.v.{.v.v.T.:.T.v.u.T.u.T.{.T.:.:.' d.2 % ~ :.j j ' Y 2 ' Y j ' j j = = = = = = = * * * = * = * * ",
"< < & < < ' j Y d.d.Y 2 2 2 *.d.:.d.v.:.u.v.:.v.T.u.u.).T.{.:.~ ' T ~ ' Y ' :.Y j :.T ' T j ' g j * = = = = = T g = * g * * # # ",
"& 2 2 f % 2 2 Y ' :.Y < ' = /.v.v.:.v.v.d.v.d.F.).u.T.).T.v.:.~ j ' :.:.v.T.v.Y Y :.:.' j ' % Q :.Y z j = g = = = * # = = * # * ",
"% < < 2 Y 2 2 2 :.d.d.' 2 Y ' -.v.~.T.v.v.v.v.v.).v.).T.:.T.u./.u.' T.v.Y ' d.Y :.T g ' ' j % j j j = = z T T = g * = * = = * * ",
"= 2 2 2 & f f Y Y ' d.' j :.Y v.' T.T.v.v.v.:.).T.v.T.v.v.T.u.:.' v.u.:.v.:.d.j Y ' Y j 2 Y Y Y Y j 2 < = = T = * * * * = * $ # ",
"= 2 2 = f < Y -.' d.:.:.Y :.' :.v.v.:.:.:.T.' v.V.u.T.v.v.{.v.v.:.:.:.' d.' v.T Y j j Y ~ Y ' j 2 ' < = $ T = * = = # = g * * * ",
"= 2 ' ' < Y d.d.Y d.v.' -.:.' d.' v.v.v.~.v.v.v.v.u.~ :.T.T.v.T.' :.v.u.j ' ' :.j ' :.d.j Y < < j 2 j < = = $ * = = = = * * * # ",
"% 2 Y ~ < j Y ' ' -.' ' Y Y v.d.v.v.*.:.' ).).u.T.u.~ T.v.T.{.' u.' ' :.d.' Y T < j Y ' Y j f Y j % < < T z = * * = * = * * * * ",
"= ~ 2 j Y Y :.Y v.v.:.' ' Y d.v.F.v.:.v.T./.T.v.u.).v.u.v.v.v.% ' :.Q v.d.:.Y ' j < j Y ' j Y :.Y 2 % < Y = * $ < = * $ * $ $ # ",
"= 2 Y ' 2 ' ' :.:.' v.d.2 = ' d.v.v.v.v.{.v.).' {.T.T./.v.:.:.% ' v.' :.T.:.Y :.-.Y Y Y ' Y :.j j Y % % 2 < g = = * g = * * * $ ",
"= 2 *.' 2 Y :.' -.2 ' Y ' Y Y d.d.F.' v.u.T.T.:.:.T.T.T.v.v.T.j ' v.Y u.:.d.:.d.d.Y ' j j < Y ' Y Y < < = Y < * $ < * * $ # # @ ",
"2 2 2 j d.j ' Y Y d.' f ' Y ' d.~.d.v.v.v.v.T.T.{.:.T.{.T.v.T.' ' T.' ' v.d.@ @ j ' d.:.-.Y :.Y j Y 2 2 < & < < * = < $ * * * # ",
"% % & f Y ' d.' ' Y -.-.-.Y v.d./.v.v.:.u.u.' :.{.~.d.{.)./.{.*.' v.T.u.~.2 X X $ Y Y d.d.v.' :.' j 2 < = g < $ = = = g = * # # ",
"2 & 2 f 2 ' -.d.d.' ' d.v.2 -.' v.v.d.-.' v.' v.:.~. Xv.T.).T./ Y :.:.:.d.d.O X $ -.2 ' 2 Y ' Y Y 2 j j < < = < = # $ * = $ = * ",
"2 Y < f ' ' -.d.d.' v.-.v.' f Y  XF.v.F.Y v.u.T.v.T.v.v.*.T.u.% ).).v.v.:.d.d.$ 2 Y Y ' Y :.d.' 2 Y Y :.= = j = g # * * * # * # ",
"& < f < Y ' d.v.Y ' -.v.v.-.' ' F.v.2 u.' d.v.v.v.d.{.F.v.{.v.$ v.u.T.v.' :.:.v.' d.:.' Y ' d.:.' T j = $ < < $ g # * * @ # * # ",
"2 2 ' 2 2 ' F.v.d.Y ' d.v.' ' v.v.{.Y ' ' *.u.v./.' {.v.{.T.v.' ).d.v.' ' -.v.d.d.Y Y Y Y :.v.-.,.~ = = = = = % * # $ = * * $ # ",
"2 2 f j Y Y :.-.' ' ' Y ' ' :.d.v.' -.' v.v.d.' :.d.v.{.:.~.v.-.v.v.v.v.d.d.Y -.:.v.v.' ' 2 2 Y j Z = ~ o.= = * = * $ $ $ # # * ",
"2 Y 2 Y f -.Y -.-.' ' -./ 2 *.v.:.' v.-.:.v.u.*.v.T.{.F.v.~.v.' T. Xd.F.~.v.' d.' :.d.d.:.2 2 j ~ = = = Z = * % = = * = * * # # ",
"& f 2 < Y ' Y -.-.d.' Y ' 2 u.T.d.-.v.v.' v.' *.u.v.).v.d.~.F.{.{.{.' {. Xv.' d.Y ' -.' d.Y ' ' :.j = = = = * * = * * = * # * # ",
"2 ' ' & < Y j d.Y Y 2 ' ' 2 *.*.F.v.v.{.-.-.*.u.:.d.F.v.F.{.v.v.v.' -.{.{.v.d.-.:.Y 2 d.-.j j Y j Y < < = * * * = * = * * * # # ",
"% Q 2 2 f ' ' ' u.' 2 Y ' ' v.-.F.v.-.' *.*.v.*.' d.v.d.v.v./.v.v.v.:.-.~.d.v.Y :.' ' :.-.Y ' ' ' j 2 = = = % % = = * * * # * # ",
"2 ' 2 2 < f ' -.' ' ' ' -.v.v.v.v.:.' -.-.2 /.v.v.' ~.v.v.{.-.v.v.v.' d.d.d.d.Y Y ' Y d.d.' Y ' Y j 2 = = * * * $ * * $ # * # # ",
"Q j f 2 f -.Y -.d./ v.-.Y j ' v.' d.d.' ' *.Q u.d.v.d.-.< v.F.v.F.v.-.v.F.d.:.-.Y ' 2 ' v.:.' 2 f 2 2 % = = = * = * * * * * # # ",
"/ / 2 Y Y f f ' *.j ' % -.Q d.v.j v.' *.' v.-.:.-.-.' v.F.v.F.v.v.' + ' v.' ' T.Y Y < d.' Y :.j ' Y < 2 < $ $ = $ $ * $ $ $ # @ ",
"/ 2 Y Y 2 Y Y ' ' ' ' % ' ' v.v.v.' v.v.' -.v.' ' d.v.:.' F.F.d.v.2 $ Y v.v.v.u.v.d.' ' ' :.' 2 j 2 2 j i $ $ $ # $ * = * $ $ @ ",
"Q 2 2 ' 2 ' f ' Y ' Y 2 :.-.v.v.d./ :.v.u./.v.' ' :.' d.d.v.v.v.-.*.2 ' F.' d.v.d.' Y ' Y Y ' Y f < 2 2 < = & $ $ $ $ $ * * @ @ ",
"2 2 Y f 2 2 / /.' ' ' 2 Y ' ' v.' Q ' v.' ' /.' ' v.v.v.v.v.v.-.v.' *.F.v.d.v.v.Y ' ' f ' d.Y Y Y < < = < $ = & $ $ $ * # # * @ ",
"2 & ' 2 < f Y / ' d.2 f < 2 ' d.:.T ' ' v.' v.d.d.d.d.' ' v.d.v.v.-.2 -.-.d.' -.' ~.' Y d.' Y d.< % < $ & $ < < * @ $ * @ * # @ ",
"2 Q ' f f 2 / / Y ' ' ' Y j -.v.v.' Y d.' Y ' v.' v.' Y ' v.' v.F.d.' d.2 d.' d.' Y ' < Y ' f ' 2 < < % < < < < $ @ $ $ * @ @ $ ",
"f & f f -.Y ' ' ' Y ' v.2 ' -.F.:.' ' Y -.' ' Y ' v.d.Y ' d.-.v.F.' ' -.$ ' -.-.d.% Y Y ' Y ' 2 2 < < < < < & $ $ * * # * @ @ $ ",
"f < & < Y < 2 Y ' ' ' ' / d.Y d.:.' Y ' :.v.v.' ' ' ' Y ' v.' d.' / ' :.& Y d.' ' ' ' ' ' Y Y Y Y < & % $ & < $ $ $ * @ $ @ $ # ",
"2 & f 2 f f f Y ' Y Y 2 ' ' d.' v.d.T ' :.:.d.' ' Y :.' F.v.' -.-.' ' Y % ' ~ j ' 2 2 ' -.Y < f j = = = % = = = = * $ $ $ * @ @ ",
"/ / & f < Y f f ' Y 2 ' Y Y ' ' v.' Y ' d.-.v.' ' -.v.' F.v.Y 2 ' -.2 / = -./ ' Y 2 2 ' f < & 2 = = $ = = = = $ = $ * # $ $ # @ ",
"/ & / & < & f Y ' ' Y Y 2 ' j :.:.' v.' ~ Y ' v.' ' < ' v.:.' v.-.2 ' -.' % & Y 2 2 Y < ' & < < % 2 % = $ $ % $ $ % # $ $ $ $ # ",
"Q % 2 f f & < f f f Y ' j ' f v.' ' ' ' :.' 2 ' ' ' f :.-.-.2 2 v.d.f ' Y % % f ' & f 2 f ' & % = 2 % = % = = $ $ $ # $ @ # @ @ ",
"& f i & f & & < f < f f Y j ' ' ' Y 2 ' j ' ' j Y ' ' ' d.-.f f f -.f ' d.2 2 / ' g Y 2 f 2 2 2 = # = = = = $ = # * * $ @ @ @ @ ",
"% $ & i < i i < f 2 f f % Y ' Y Y ' ' Y ' ' ' Y 2 ' 2 Y -.Y -.Y f f f / 2 f Y 2 Y = ' % & 2 & & % % = = % * $ $ # # $ # $ # O O ",
"% $ $ & f < & f / 2 2 % 2 ' j -.Y ' -.Y ' f Y j ' v.Y f ' Y f -.-.& % f & ' f j j $ f f < & i < % % $ % $ $ $ $ # # $ # @ * O @ ",
"& & & = f & & i < f 2 Y 2 f Y ' j Y Y f d.d.' / ' 2 Y f ' Y < f Y 2 2 2 / ' f Y % 2 & 2 f < 2 Y % = % % % $ # $ # # * @ # # o O ",
"2 % % % < < & f < f f & < i f < / 2 & 2 ' Y ' f Y f 2 / -.' < & Y < ' ' ~ -./ 2 % < % Y 2 & & & % % % % $ # + # $ # $ $ # O O o ",
"% % % Q & f & & i & i & i i & f / f % 2 Y 2 2 d.< 2 2 2 -./ $ & f & ' 2 ' 2 2 2 % % % 2 & & & & % % * % % # $ $ $ + # $ # + O o ",
"% % % % % f & & & < ' < & f Y f / f Y 2 2 2 f ' ' ' 2 -.Y Y & & 2 f Y ' 2 2 & = & & < & & < % $ $ $ $ % $ $ $ $ + # + # @ @ + O ",
"% % % % & & 2 / i & & $ < Y -.< f 2 2 f 2 ' 2 ' ' 2 & f f f f < -.Y d.' 2 ' 2 2 2 2 & & % % & % % % # % $ $ $ # O + + # @ O O @ ",
"% % & & & & & & & < & $ < & f f & f f f i K > > Y 2 2 & & < 2 f 2 f Y f 2 2 2 & 2 & 2 $ & % & % $ # + % % $ $ # + O # $ O O o @ ",
"$ % & % & Q & & $ & & % = = & i Y Y f f & K Y > f < Y & & 2 < 2 < & % & / 2 / & 2 2 < & & % % & $ % % % $ + # # @ # # # O O O o ",
"% $ % % & & & 7 & % & & & i = & f f & f f f K & 2 2 f & 2 & & ' < f & $ & & % % % < & % $ $ & $ $ $ + $ + + + # # + # # + O o O ",
"$ + % % % % & Q & % $ $ < i & i f i & & i i % > < & f f 2 < % 2 i Y & & 7 & # % $ % & % % $ & $ # $ $ + # $ # + O + # # O @ o o ",
"& & & & & % % & % & % % % $ & Q & > > K % ; $ & i & % % & & % % & & < & f $ & & & $ % & $ $ + & # + # $ + $ $ O @ # O @ O O o o ",
"+ + $ $ % & % & $ % & % & $ & & > & & > % $ $ ; & & & & & & $ & & f & & $ $ $ $ $ $ % & % $ + $ $ $ # # $ + + @ + O + O O O   o ",
"& & $ & & & & % % % & % % = f i * & * > > * & & $ $ % & % % $ & & $ & f + $ $ $ $ % & & % % + & + # $ $ + + + @ O O O # O o     ",
"& + $ $ $ & & & % % & $ = & i & & 4 > & K & & % & + + $ % % % $ & < & $ $ $ $ + % + + & $ % % + + + # # O $ + $ O o + O O O o   ",
"+ & & $ + & & + & % $ $ $ & $ & $ * & $ & & & % # + + $ & $ $ $ % $ & % & $ $ $ $ $ % & $ % $ + + # # # @ @ O + O O O O . o     ",
"+ + & $ % % & & + & $ % $ & % & & & % % % $ & # % $ $ + + & $ & & % $ & $ $ & $ + $ + $ + $ + # + @ o $ O O + O @ O O O O O O   ",
"$ + + + $ $ $ $ $ & $ + $ * * & & $ $ % $ $ = # % % + $ $ & & $ & $ & $ # $ # $ O + $ # + $ # $ # O + O @ O O O O O O O O O     ",
"+ & $ $ + $ % & $ & * & $ & * $ & $ $ = % $ # $ % & + & % % $ & % # + $ $ + + O . $ & $ $ $ # # # # O O @ O O @ o . O @   O X   "
};
