/* XPM */
static char *_3061_e9f833ecbe385df45797cbb9ad3de675abd91f651854a0cad11fd0b739b549d3_2[] = {
/* columns rows colors chars-per-pixel */
"64 78 231 2 ",
"   c #000000",
".  c #0C0C0C",
"X  c #060709",
"o  c #130D0C",
"O  c #13110E",
"+  c #1B130F",
"@  c #0C0E11",
"#  c #080B14",
"$  c #0E1113",
"%  c #0E131A",
"&  c #131414",
"*  c #12161B",
"=  c #161B1D",
"-  c #191B1A",
";  c #1A1512",
":  c #0F100F",
">  c #251814",
",  c #3C1C19",
"<  c #1D211E",
"1  c #21221E",
"2  c #0D1323",
"3  c #1A1D23",
"4  c #151B26",
"5  c #1D2223",
"6  c #1D242A",
"7  c #1D2632",
"8  c #212424",
"9  c #242A2B",
"0  c #282928",
"q  c #252C33",
"w  c #2B3334",
"e  c #2B3439",
"r  c #333A3B",
"t  c #393A37",
"y  c #352F2C",
"u  c #5C150B",
"i  c #55180F",
"p  c #4A1A17",
"a  c #581813",
"s  c #65140A",
"d  c #6B150B",
"f  c #69180B",
"g  c #73160A",
"h  c #791609",
"j  c #7C190B",
"k  c #761708",
"l  c #661A14",
"z  c #771B14",
"x  c #57231B",
"c  c #69251C",
"v  c #7E2617",
"b  c #4B2B2B",
"n  c #53292A",
"m  c #532E33",
"M  c #47383D",
"N  c #56393A",
"B  c #5C352E",
"V  c #652D28",
"C  c #7B3429",
"Z  c #673B38",
"A  c #723B34",
"S  c #773834",
"D  c #762F25",
"F  c #3B423C",
"G  c #52453A",
"H  c #674138",
"J  c #7A463A",
"K  c #2D3A45",
"L  c #343D42",
"P  c #333E48",
"I  c #2A3448",
"U  c #4C3740",
"Y  c #39444C",
"T  c #3A4448",
"R  c #394655",
"E  c #3F525E",
"W  c #384A64",
"Q  c #464B48",
"!  c #4A514C",
"~  c #4C5346",
"^  c #454E54",
"/  c #4B5353",
"(  c #4A5658",
")  c #535A54",
"_  c #535C5C",
"`  c #545B58",
"'  c #594D46",
"]  c #6C4B49",
"[  c #794D44",
"{  c #6A544E",
"}  c #79584C",
"|  c #7B5955",
" . c #6C5351",
".. c #5B6357",
"X. c #69675F",
"o. c #7E675B",
"O. c #4C5B64",
"+. c #4A5866",
"@. c #535D61",
"#. c #4B5F7C",
"$. c #566365",
"%. c #5C6A6B",
"&. c #596667",
"*. c #596B73",
"=. c #5A717C",
"-. c #4F6167",
";. c #636E6C",
":. c #656863",
">. c #776964",
",. c #67716C",
"<. c #76736B",
"1. c #616E75",
"2. c #637274",
"3. c #63757B",
"4. c #6B7B7B",
"5. c #697777",
"6. c #787977",
"7. c #8C1E06",
"8. c #831C0A",
"9. c #851B08",
"0. c #931F05",
"q. c #931E08",
"w. c #841C10",
"e. c #8A2209",
"r. c #952205",
"t. c #9B2503",
"y. c #9E2904",
"u. c #97260B",
"i. c #8A2416",
"p. c #862719",
"a. c #902E18",
"s. c #A12602",
"d. c #A42C03",
"f. c #AB2D02",
"g. c #A52C09",
"h. c #AB3002",
"j. c #AD3008",
"k. c #AA3512",
"l. c #872D21",
"z. c #873326",
"x. c #903B2B",
"c. c #A13822",
"v. c #C03505",
"b. c #88483C",
"n. c #964937",
"m. c #9C5238",
"M. c #9C412D",
"N. c #A4462D",
"B. c #A34932",
"V. c #A95439",
"C. c #86554A",
"Z. c #9D5C4D",
"A. c #955648",
"S. c #965B53",
"D. c #8A534A",
"F. c #A45C46",
"G. c #94645B",
"H. c #916455",
"J. c #A3614D",
"K. c #A66047",
"L. c #946A64",
"P. c #967A77",
"I. c #8D736E",
"U. c #A6756D",
"Y. c #865E62",
"T. c #75817D",
"R. c #83857E",
"E. c #9C847D",
"W. c #A1887D",
"Q. c #5B7481",
"!. c #6B7D81",
"~. c #647781",
"^. c #717781",
"/. c #6E8184",
"(. c #6E8689",
"). c #738484",
"_. c #7A8682",
"`. c #758A8B",
"'. c #7C8E8C",
"]. c #778888",
"[. c #7D908D",
"{. c #7B8E92",
"}. c #778C96",
"|. c #7D9293",
" X c #7D939A",
".X c #808D8B",
"XX c #888985",
"oX c #968C88",
"OX c #82928D",
"+X c #8B958A",
"@X c #839694",
"#X c #8B9B95",
"$X c #849A9B",
"%X c #8B9C9B",
"&X c #869797",
"*X c #979A98",
"=X c #95938D",
"-X c #A7978E",
";X c #8CA19E",
":X c #93A39C",
">X c #A5A39D",
",X c #899EA2",
"<X c #8CA2A2",
"1X c #8EA5A9",
"2X c #92A6A3",
"3X c #96A9A5",
"4X c #9AABA5",
"5X c #95ACAC",
"6X c #9BAEAA",
"7X c #95A7A7",
"8X c #9CB1AD",
"9X c #96B0AF",
"0X c #94AEB0",
"qX c #9CAFB0",
"wX c #9CB2B2",
"eX c #97B1B3",
"rX c #A1ADAA",
"tX c #A3ABA5",
"yX c #A3B3AC",
"uX c #A7B3A9",
"iX c #A2B6B3",
"pX c #A5B9B4",
"aX c #AABCB4",
"sX c #A6BCBC",
"dX c #AABEBC",
"fX c #A6B7B4",
"gX c #AAC1BF",
"hX c #A9BFC0",
"jX c #ACC3C1",
"kX c #B7C4C0",
"lX c None",
/* pixels */
"                                                                                                                                ",
"                                                                                                                                ",
"                                                                                                                                ",
"                                                                                                                                ",
"                                                                                                                                ",
"                                        # e _ $.%.1.3.5.).4.2.3.*.;.;.&.L $ X                                                   ",
"                                      . !.qXsXhXsXgXhXjXsXeXeXeX8X8X6X7X3.Q.*.#                                                 ",
"                                      $ &XiXsXhXsXsXsXsXsX5XeXwX9X9X4X5X!.=.=.*                                                 ",
"                                      . 4.4.%.`.;X5X9X9X9X;X X;X$X X[./.T T R #                                                 ",
"                                      X 1.$X1XjXjXgXgXgXgXeXeX0XeX5X5X5X=.E W #                                                 ",
"                                        @XhXhXjXjXjXgXgXgX9X0X9X0X9X5X5X!.#.Q.*                                                 ",
"                                        &XdXhXjXjXgXgXgXgX9X9X9X9X9X5X9X~.=.Q.*                                                 ",
"                                        $XhXkXkXjXjXgXgX3X9X1X5X5X0X5X0X/.Q.Q.%                                                 ",
"                                        %XjXjXgXgXgXgX:X[.$X9X8XwXeXwXwX<X`.~.*                                                 ",
"                                5 +.3.wXsXdXgXgXgXpX;X;X[.[.@XiXpXwXwXiXwXfXfX2._ @.O.+.e . .                                   ",
"                      w Q ,._..X).6.5.4.6.^.T._.OX+X+X;X).X.:.` ;.,.;.) _ _ _ _ %.,.2.5.$.4.&.I                                 ",
"                * M Q }.'.:.{ { { ] ] [ [ [ A A V l V fX.X>.i i a x B Z Z B Z Z Z Z ' N _.4X_ 3 7 2 * % 4                       ",
"          X 0 t M L M ^.wXC.f j 8.j g j j j g g h h z hX&X<.u d s s s s u s s s s d s a .X4XQ M M y y 0 3 %                     ",
"          X - > b ]  .I.wXI.u s g j d g g h h 9.9.9.z rX&XR.a d d d d d s s s s s s u a *X2XM U U U U U y 9 .                   ",
"            . y D.S.S.Y.wX=Xc u g k h h k g g 9.9.9.w.*X%XXXa d g d g f f f s s s s s a %X#Xy N U Z S Z ] L @                   ",
"              0 b.J.Z.S.:X8XJ u j 7.0.0.0.0.0.0.0.q.w.oX:XXXc k g g h 9.7.7.9.7.w.q.r.l.:X=Xb U ] S S S ' #.                    ",
"              0 J Z.Z.S.*XpXH.u j r.t.t.0.s.f.s.s.t.u.oX4XR.D k k 7.0.0.0.0.t.0.q.q.t.z.*XXXb N Z S S S >.L                     ",
"              - H A.Z.Z.P.yX=Xu d t.s.y.s.s.s.s.y.y.d.P.6X_.J k g 0.r.r.t.t.r.r.t.u.t.x.4X6.b m S S S S 6.L                     ",
"                b A.Z.Z.L.pX>Xx s t.s.s.s.s.s.f.d.y.y.G.uX[.[ k k 0.r.y.y.t.t.y.t.t.t.x.4X<.m m S z.z.S .XK                     ",
"                > D.Z.Z.S.qXiXH s r.d.d.y.d.d.y.d.y.y.H.yX[.} k g 0.t.t.r.r.0.t.y.t.t.b.4XX.b m S C z.Z @X$                     ",
"                . J Z.F.S.=XwXY.s e.d.d.h.d.y.h.d.y.d.A.aXOXo.f g 0.t.t.0.0.r.t.s.y.s.S.6X{ b n z.l.l.| ].                      ",
"                X B A.J.J.P.wXE.f e.y.d.d.d.d.d.h.d.d.m.uXOX<.f g 0.t.t.0.0.r.y.s.s.d.G.8X' n c p.l.z.>.`.                      ",
"                  , D.J.J.L.yXtXc v d.d.d.d.d.d.d.d.d.M.uX+XR.f g 7.s.r.t.y.y.s.d.s.g.I.8XN p l p.l.z.XX~.                      ",
"                  > A J.J.G.*XfXD e.y.d.h.d.d.h.d.h.d.M.>XOXR.l d r.s.0.t.s.f.d.s.d.d.P.wXb p z p.l.D *XL                       ",
"                  O B Z.J.S.XX8XH.j y.h.h.h.d.h.h.h.d.c.>XOXXXc d t.s.s.t.s.f.f.f.d.g.=XyXx a p.i.l.S ,XP                       ",
"                    > A.F.Z.I.wXE.j y.h.h.h.h.h.h.h.h.k.>X:XT.c k r.r.s.s.h.f.f.f.f.g.>XrXp l i.a.l.Z 1XK                       ",
"                    X b.J.J.G.6X=Xv e.d.d.h.d.h.h.h.h.g.-X:X_.D 7.h.v.0.r.h.h.f.d.g.g.rX:Xa l i.p.a.] }.$                       ",
"                      V J.J.Z.:XuXz.r.f.f.f.f.f.f.h.f.g.W.:X'.A 9.0.t.j s.h.h.f.f.f.c.6X=Xi d i.i.v <.+.                        ",
"                      p A.K.Z.=X8XD.w.d.f.f.f.f.f.h.h.j.W.:XOXJ 7.q.7.9.f.f.f.f.f.d.N.6XP.i d i.i.z.^.^                         ",
"                      o b.F.F.I.8XI.w.t.d.f.f.f.f.f.f.j.U.>X.XJ j g h d.f.f.f.f.f.f.A.4X5.a g i.i.S XXL                         ",
"                      o C F.K.G.yX-XD r.f.g.d.f.j.f.j.g.J.:XOX} j d d y.f.f.f.f.d.f.F.3X>.s z w.p.] ,Xq                         ",
"                        p n.F.A.4XuXJ M.N.N.B.V.V.F.K.J.E.6X#XR.Y.Y.} C.A.m.B.m.B.B.L.3X .l z w.z :..X                          ",
"                        > D.W.XX#X+X'.T.<.,.;.:.:.) ! T t w < < 0 w r T Q ! ! ! ` ..;.5.!.:.X.| Z 6.@X                          ",
"                    X Q t ! t ^ T.,.F - O O ; O O O + o & {.pXF . . . : O : ; O & $ 3 ( 1.8 - - q Y +.K                         ",
"                    & ;.~ - 3 %X:X..~ 1 5 8 O ; + + + + & ..%.0 . . O + ; + ; & & & ;.{.6.0 @ @ . # 2 X                         ",
"                    F @XOX! X w F T t $ 5 %.) y - . : O & w ! 9 . . . O O O & 7 < . T 5.9 4 4                                   ",
"                      9 4.Y 9       X - % Y &.:...T 8 & 6 5 ) t . : . : = w r w $ % 4 e X . 2 X                                 ",
"                                      $ & $ = F ~ ....~ G ..0 < $ $ $ 5 F - * * 4 2 4 .   X                                     ",
"                                          X $ = T ) ~ ,.OX) ..[.~ = 6 5 w q 4 %                                                 ",
"                                                : 6 3 %.~ E '.T.w q 6 6 * 6 #                                                   ",
"                                                    . 3.6X3X9X2X|.*.-.I                                                         ",
"                                                      &.;X[. X'.(.*.#.                                                          ",
"                                                      w $X X<X|.T.+.#.X                                                         ",
"                                                  O.*.0XsXsXwXeXwX1X$.6 *                                                       ",
"                                          . L / ` 1X0X6X9X6X3X5X<X1X7X<X,X3.T X                                                 ",
"                                    . w ` _ &.&.%.4.^.!.`././.4.3.;.&.O.^ T T Y Y K 2 %                                         ",
"                                    * & 3.%X5X2X@X,XdXjXwX;XT.%./.<X`.`.`.(.$.R R P 4 %                                         ",
"                                      8 @.T P ( ).{.OXOX4.Q 6 5.( / 6 w = e 5 5 R |.$                                           ",
"                                      ` / ~.%.$XOX$.4.e q K -./ =.3X<XT.7 ( r . 5 5 .                                           ",
"                                          O e ].[.%X$X%X|.@X4.%.;X;X`.T ( &.I #                                                 ",
"                                            8 !.wX8XOX$X<X<X[.(.;X1X X`.$.O.W $                                                 ",
"                                          Q / $XwX4X5.3.3X;X3XeX5X].&.(.*.;X}.=                                                 ",
"                                          %.&.&.T./ 9 /.3X:X5...E e Y '.! -.~.( Q                                               ",
"                                          w r }.2X).$X3X8X3X@X|.T.(. X[.=.( +.                                                  ",
"                                            @ $X8X2X5X8X8X2X:X9X;X;X;X[.2.E W                                                   ",
"                                              1XfX6XwXiX8X4X6X3X;X$X$X$X@X`.=.                                                  ",
"                                              9 ].#X@X%X@XT.].OX4.].3.4.Y Y q X                                                 ",
"                                              5 6X6X3X6X;X;X8X[.%X).2.@X_ R X                                                   ",
"                                              8 sXsXyX4X;X3X6X;X#X[.$X&X1.W                                                     ",
"                                              8 wXiX4X4X@X<XpX9X1X2.|.@X2.R                                                     ",
"                                              6 pXfX5XyX7XsXwX5X9X/. X&X!.P                                                     ",
"                                              8 aXpX:X8X:XgXpX$X<X4.,X%X(.P                                                     ",
"                                              8 6XyX2XsX4XgXpX5X8X/.$X%X~.R                                                     ",
"                                              8 pXyX:X8X8XaXyX;XqX].}.#X4.Y                                                     ",
"                                              - aX8XgXgX4XgX8X;X<X].{.@X~.R                                                     ",
"                                              - tX8XgXsX7XpX8X;XpX'.,X%X/.R                                                     ",
"                                              1 uX8XwXwX<XwX8X|.iX].%X%X!.^                                                     ",
"                                              1 8X4X5X4X1XgX4X#XpX5.|.;X4.(                                                     ",
"                                              8 8X8X8XpX3X8X3X|.pX].|.$X(.@.                                                    ",
"                                              8 pX4X4X4X9XyX4X@X8X|.$X2X!.@.                                                    ",
"                                              8 pX4X8XpX6X6X4X;XiX{.`.:X3.$.                                                    ",
"                                              8 pX8XpXaX8XpX4X;XpX|.].%X(.(                                                     ",
"lXlXlXlXlXlXlXlXlXlXlXlXlXlXlXlXlXlXlXlXlXlXlXlXlXlXlXlXlXlXlXlXlXlXlXlXlXlXlXlXlXlXlXlXlXlXlXlXlXlXlXlXlXlXlXlXlXlXlXlXlXlXlXlX"
};
