/* XPM */
static char *_d506960155448e5adac561d65e1e33aifizW7kEm2fBYZO1[] = {
/* columns rows colors chars-per-pixel */
"64 64 219 2 ",
"   c #1D222B",
".  c #272729",
"X  c #2E3237",
"o  c #363739",
"O  c #2C2D2F",
"+  c #141315",
"@  c #4B3A25",
"#  c #4A4338",
"$  c #574834",
"%  c #68553D",
"&  c #775D3B",
"*  c #654B2D",
"=  c #7D623F",
"-  c #3B3E43",
";  c #333B45",
":  c #3C424A",
">  c #3F4243",
",  c #3E4856",
"<  c #4B4D4D",
"1  c #474747",
"2  c #544E45",
"3  c #58544C",
"4  c #434B54",
"5  c #4B4E53",
"6  c #444E5A",
"7  c #4C5155",
"8  c #4C525B",
"9  c #45505D",
"0  c #51555C",
"q  c #54595E",
"w  c #5B5D5B",
"e  c #575754",
"r  c #685B48",
"t  c #725E45",
"y  c #655E53",
"u  c #5F605E",
"i  c #7A6344",
"p  c #74634C",
"a  c #7A664C",
"s  c #7E694C",
"d  c #766247",
"f  c #64635E",
"g  c #696457",
"h  c #736654",
"j  c #7C6C54",
"k  c #74695B",
"l  c #7E725C",
"z  c #4A5563",
"x  c #4D5A6C",
"c  c #4D5866",
"v  c #545A62",
"b  c #5A5E64",
"n  c #525D6C",
"m  c #595F68",
"M  c #4E5D71",
"N  c #525F71",
"B  c #5C626B",
"V  c #5C6468",
"C  c #556274",
"Z  c #596575",
"A  c #556579",
"S  c #596779",
"D  c #5C697B",
"F  c #5E6974",
"G  c #636463",
"H  c #6B6A65",
"J  c #63656C",
"K  c #646A6C",
"L  c #6B6C6D",
"P  c #626A66",
"I  c #756E64",
"U  c #7C7263",
"Y  c #74726C",
"T  c #7A756A",
"R  c #7B7769",
"E  c #646A73",
"W  c #696B71",
"Q  c #636E7D",
"!  c #646771",
"~  c #6D7274",
"^  c #66707E",
"/  c #6B737B",
"(  c #737573",
")  c #74797C",
"_  c #7A7C7C",
"`  c #7B7B75",
"'  c #846C4B",
"]  c #886E4A",
"[  c #866A45",
"{  c #8C724D",
"}  c #92754D",
"|  c #98794D",
" . c #816E53",
".. c #857256",
"X. c #8C7454",
"o. c #84745B",
"O. c #8A765A",
"+. c #8C7A5C",
"@. c #8F7856",
"#. c #927753",
"$. c #947A55",
"%. c #9B7E54",
"&. c #947D5B",
"*. c #997E5A",
"=. c #A07F50",
"-. c #827562",
";. c #867962",
":. c #8C7C62",
">. c #877C6B",
",. c #927E62",
"<. c #837E74",
"1. c #807F7E",
"2. c #7E817F",
"3. c #9E8055",
"4. c #9C825D",
"5. c #95815F",
"6. c #A28355",
"7. c #A2865C",
"8. c #A5895E",
"9. c #AA8B5E",
"0. c #8E816B",
"q. c #8F8061",
"w. c #958264",
"e. c #9C8563",
"r. c #9E8965",
"t. c #94856B",
"y. c #99866A",
"u. c #9C8A6C",
"i. c #96896D",
"p. c #8A8577",
"a. c #9B8D73",
"s. c #958A75",
"d. c #9C927A",
"f. c #9C9179",
"g. c #A18661",
"h. c #A48A64",
"j. c #AB8D64",
"k. c #A38D6B",
"l. c #A98F69",
"z. c #AE9166",
"x. c #A4916E",
"c. c #AD936B",
"v. c #B19266",
"b. c #B2966B",
"n. c #B5996E",
"m. c #BA9B6E",
"M. c #A18F70",
"N. c #A39373",
"B. c #AB9572",
"V. c #AD9976",
"C. c #A2967B",
"Z. c #AB9B7B",
"A. c #A69979",
"S. c #B59A71",
"D. c #BA9E72",
"F. c #B29973",
"G. c #BEA175",
"H. c #BEA379",
"J. c #B3A17D",
"K. c #C1A376",
"L. c #C3A679",
"P. c #C6A97B",
"I. c #C9AB7C",
"U. c #5E6D80",
"Y. c #616F81",
"T. c #647384",
"R. c #6A7583",
"E. c #6E7A86",
"W. c #667689",
"Q. c #687789",
"!. c #6B7B8C",
"~. c #737C85",
"^. c #7A7F81",
"/. c #727D8A",
"(. c #6F7E91",
"). c #707F92",
"_. c #7C8284",
"`. c #76818D",
"'. c #7B848C",
"]. c #79858B",
"[. c #748294",
"{. c #7A8691",
"}. c #7D8A93",
"|. c #768699",
" X c #7B8A9B",
".X c #78879A",
"XX c #838585",
"oX c #848B8C",
"OX c #8A8D8C",
"+X c #868988",
"@X c #9C9582",
"#X c #9A9788",
"$X c #848D93",
"%X c #868F97",
"&X c #8D9293",
"*X c #84939B",
"=X c #88939A",
"-X c #959A96",
";X c #8C9089",
":X c #A39B83",
">X c #AB9E81",
",X c #A09C8B",
"<X c #9CA29A",
"1X c #ABA389",
"2X c #B3A88A",
"3X c #A7A796",
"4X c #B0AD96",
"5X c #B5B49C",
"6X c #8796A1",
"7X c #929DA2",
"8X c #99A5A7",
"9X c #9DABB3",
"0X c #A1AEB6",
"qX c #A5B2BA",
"wX c #ADB8BE",
"eX c #ABB7BD",
"rX c #AAAFA8",
"tX c #ADBAC1",
"yX c #B1BCC3",
/* pixels */
"{.*X6X*X7 # w 2 w - V V V V V ~ ~.XX$X%X7X=XOX%X$XXX$X&X&XOXOX+XXXXX1.1.+X1.W 1._.oXoXoX_.^.XX) ) ^._.'.~ O o f g e < 7 > o > > ",
"y h k f o w ~ w < 7 F 2./ ) ) ].=X7X7X0XqX0X0X0X0X0X0XtXtXyXtXyXyXyXtXtXtXyXyXyXtXeXtXeXqXeXeX0X0X0X9X9X*XV f ` L 2 q V q q c q ",
"..o.:.` O $ 3 ( > # w q f f H H G f f G ( Y H H L W ( ( ~ R.^.^.1.'.oX$X%X=X=X6X*X*X$X*X}.}.*X*X*X$X$X{.].P u +X2.e # $ # # # 2 ",
":.a.s.0.$ $ t 2 e f Y 2.2._.].].^.'.OX$X=X$X_.XX1.1.^.) ) ^.1.1.1.1.1.1.1.( ( W L L L L K P P G G w f P f w ( g 3 $ & l 2.2.Y 2.",
"r.M.C.s.y r ;.p @ * * * * % j h y I I >.>.1.<._ <.1.@X+XOXOXOX&X&X&X&X&XOX&XOXOX+XOX+XoXXXXX^.( I Y ( 2.` Y r s & * l d.q.0.2.l ",
"x.c.f.d.h p 0.o.* & s 3.4.a.A.A.i.k.*.j.g.g.g.g.g.*.*.*.*.#.X.X.,.,. .,.,.,.O.X.X...p ' s j O.O.O.X.s & [ & & 5.= = ] u.q.i.0.0.",
"c.B.x.a.l a t.0.% s @.4.A.Z.V.V.N.Z.n.S.S.S.D.D.H.b.G.>XD.D.D.>XD.S.*.L.D.G.S.S.S.S.,.c.l.l.l.l.N.x.u.{ | [ ] 5.3.s q.r.N.N.i.i.",
"c.V.B.A.;.a e.0.& { 3.x.A.Z.c.b.h.n.D.D.G.D.K.D.H.D.L.L.H.H.H.H.L.L.F.L.L.K.L.G.H.D.g.S.S.S.n.B.J.k.V.q.3.] } u.q.3.5.A.N.A.A.u.",
"c.B.Z.A.q.s u.i.p ..w.A.Z.V.c.n.j.S.D.G.G.L.L.L.L.D.L.L.L.L.L.L.L.I.D.L.P.P.L.L.L.H.l.D.D.D.S.F.2Xb.V.| =.[ | x.5.[ i.A.1Xx.f.d.",
"c.n.2XZ.i.l x.u.& q.A.Z.1Xc.b.m.l.D.G.D.K.L.L.P.L.S.I.I.I.I.L.I.L.L.G.L.I.P.L.L.L.L.b.D.D.D.D.F.2XJ.V.2.6.| 2.x.3.} A.A.<Xf.,X<X",
"n.b.2XJ.i.3.N.u.s 5.A.Z.N.z.n.D.v.D.K.G.K.L.K.L.P.>XI.I.I.I.L.I.L.I.D.L.L.I.L.P.L.L.S.G.G.D.D.n.n.J.V.3.6.=.| x.i.3.i.d.A.p.d.<X",
"B.b.V.2Xi.q.A.N.' 5.i.l a.z.n.D.v.G.K.G.K.L.L.L.L.K.I.I.I.I.L.I.L.I.G.L.P.P.L.I.P.L.S.G.D.D.m.S.v.n.z.3.9.| 2.f.i.3.d.;X2.d.#X<X",
"s ] q.q.p.q.A.f.s 5.e.p.N.z.n.D.z.G.L.K.K.L.L.L.L.G.I.I.P.P.L.I.I.I.G.I.I.L.I.L.P.L.b.D.D.D.n.n.n.n.9.i.c.| | f.2.| A.}.-X].}.4X",
"3.5.3.2.y % g q. .3.i.].N.b.D.m.b.D.G.K.K.L.L.L.L.G.L.I.I.I.I.L.P.I.H.I.I.I.L.I.P.I.m.K.D.D.D.n.v.z.9.x.A.| | i.i.{ 2.2.2.w 2.2.",
"z.n.z.S.a.i.0.r % o.l l q.5.8.h.*.z.v.b.m.m.D.D.D.D.L.K.K.K.K.L.L.H.D.L.L.H.H.I.H.H.z.H.D.G.D.b.z.9.z.2.f.2.[ r r % q.<X8Xd.2.C.",
"c.z.f.V.N.4.j.e.& q.0.q.{ 4.8.8.l.v.b.v.b.b.b.n.v.v.v.m.m.b.m.v.c.c.B.b.l.b.*.z.z.j.h.*.*.*.,.*.q.| | | ' & ' A.N.3.N.<X8X<X<X<X",
"b.c.f.V.x.6.9.8.' u.d.k.4.n.m.m.m.K.K.K.K.m.K.I.L.L.I.I.I.K.I.I.H.I.P.H.P.L.b.H.P.H.H.S.S.S.c.c.z.z.V.9.6.| 3.A.6.6.x.8X8X8X2.A.",
"c.c.b.V.x.9.z.9.] k.Z.x.8.m.m.D.m.K.K.K.K.K.I.I.I.I.I.I.I.m.L.I.I.I.I.P.P.H.b.P.P.H.H.S.S.V.j.c.z.z.c.9.x.3.3.8.9.8.A.8X8X<Xx.2.",
"c.b.n.c.8.9.z.9.] u.Z.k.8.m.m.D.K.K.K.I.K.m.I.I.I.I.I.I.I.m.I.I.I.I.I.I.I.H.z.P.H.P.G.G.S.S.j.c.n.z.z.z.8.3.3.9.8.6.A.8X8X<XA.A.",
"c.c.n.x.8.6.9.9.{ a.B.g.8.m.m.m.K.K.K.K.K.m.I.I.I.I.I.I.I.K.I.I.I.I.I.I.I.H.z.P.P.H.H.G.D.S.j.j.z.n.z.z.9.=.3.9.8.6.N.4XrX<X1X2.",
"c.b.b.c.r.6.9.9.} M.V.h.8.m.m.m.K.K.K.K.I.m.I.I.I.I.L.I.I.m.P.I.2XI.I.I.I.H.b.H.P.P.H.G.S.S.h.j.b.z.z.z.9.=.=.9.x.r.d.3XrX<X<X8X",
"c.c.V.V.r.6.9.9.{ k.>Xg.8.n.m.S.K.K.K.I.K.K.K.I.I.I.I.L.L.m.L.P.I.I.P.P.I.H.b.P.P.H.H.G.S.S.h.9.n.z.v.z.9.=.=.9.x.f.A.rX5X<X<X<X",
"A.A.A.V.q.3.9.r.{ u.>Xh.8.v.m.m.K.K.K.K.K.m.I.I.L.I.I.L.L.m.L.P.P.P.P.P.P.H.S.P.P.H.H.D.S.S.h.j.n.z.z.z.9.=.=.9.A.A.A.3X5X4X1X<X",
"A.Z.c.c.5.3.8.7.] r.1XB.9.v.m.m.m.K.I.K.m.m.I.I.I.L.I.I.I.m.L.L.L.P.I.H.H.G.b.H.P.H.H.G.S.F.j.j.n.z.z.z.9.=.6.9.V.A.#X5X5X4X3X<X",
"2.q.3.2.s s q.4.s 5.Z.k.g.n.m.m.m.K.K.K.K.m.K.I.I.L.P.L.L.D.L.L.L.L.L.L.H.G.z.H.H.H.H.D.V.S.7.r.n.c.z.9.8.=.3.8.8.A.x.A.1XA.:X#X",
"5.r.3.{ p % & % % p l s { #.%.7.6.9.v.9.9.9.j.j.j.j.v.v.j.h.j.l.v.b.b.c.c.z.r.z.b.z.z.j.h.8.3.q.5.3.3.q.| [ [ { s [ = 2.2.{ 2.2.",
"A.Z.J.r.X.@.3.3.[ $.r.8.j.j.j.v.v.m.m.m.m.m.m.m.m.*.b.b.b.n.m.b.m.G.b.b.b.l.z.h.j.h.r.8.8.8.h.7.3.q.3.{ } { | 5.| 3.3.V.J.A.9.N.",
"x.x.1Xx.X.@.4.#.] 3.x.z.v.v.n.n.v.m.K.K.K.K.K.K.P.v.K.K.L.K.G.G.H.H.m.G.K.G.K.K.H.G.b.m.V.S.D.S.c.9.z.q.6.=.3.9.8.3.r.1XA.1XA.2.",
"x.x.4Xx.q.3.5.q.[ 3.9.z.v.v.n.m.v.m.m.K.K.K.K.K.L.b.K.K.K.K.K.K.D.K.m.G.K.K.K.H.H.H.b.D.S.S.n.b.c.z.c.3.r.=.3.9.8.6.6.1X#X<Xd.d.",
"r.x.J.x.] { 3.3.] 3.9.j.v.v.v.n.v.m.K.K.K.K.K.K.L.v.K.G.K.L.K.L.K.K.b.G.H.H.H.K.H.S.b.D.D.D.S.n.c.c.x.3.3.=.3.9.8.6.8.J.3XA.1X2.",
"x.z.2Xx.q.{ 5.5.' 6.9.j.9.v.m.n.v.m.K.K.K.K.K.K.K.v.K.K.K.L.K.K.L.D.S.L.H.L.D.L.G.G.c.D.S.S.n.n.c.z.c.3.r.=.3.9.8.6.r.1XA.A.A.f.",
"k.x.J.k.j 3.8.5.[ 7.9.9.v.v.n.m.v.m.m.K.K.K.K.K.K.v.K.K.G.K.L.L.K.L.S.K.D.D.H.D.G.D.l.S.S.D.n.n.c.c.x.3.3.=.3.8.8.6.5.A.A.4X1Xi.",
",.k.>X,...#.*.*.] *.=.v.v.b.m.b.=.m.D.K.L.K.K.G.D.v.G.K.K.L.H.L.L.D.m.G.D.D.D.K.D.D.B.D.S.S.n.c.c.l.z.#.*.=.%.8.8.6.g.x.A.3XA.N.",
"l.l.b.,. .*.*.*.#.*.v.v.=.v.v.b.v.m.m.K.G.D.K.G.D.z.G.G.G.G.S.D.L.D.m.G.G.G.D.D.D.D.l.S.S.S.n.c.c.l.l.#.*.%.%.h.8.6.g.B.N.1X1Xk.",
"k.*.c.>...X.*.*.{ ,.v.*.v.b.b.v.*.K.D.D.G.D.D.K.G.z.D.D.G.S.G.H.D.D.n.D.G.D.D.D.D.S.h.S.S.n.c.c.z.h.h.$.*.| =.g.8.6.e.1X1X4X1Xk.",
"*.l.*.H  .#.*.X.' d.*.*.v.*.n.*.*.m.n.n.m.n.D.K.D.v.D.D.D.S.S.D.S.S.c.S.S.m.B.B.b.b.g.b.n.c.l.l.g.h.h.$.*.} %.7.7.%.4.Z.2X1X1XN.",
"..'  .5 2 r t t $ r ' ' { X.X.O.*.*.*.*.*.*.*.*.*.*.*.h.*.,.*.*.e.g.g.g.*.&.O.,.*.&.*.e.,.&.&.#.X.X. .' [ t [ { #.{ ' j l o.l s ",
"l.l.,.p...>.,.O.t O.#.X.*.v.v.v.m.v.v.m.b.l.D.n.S.S.S.S.D.j.G.S.D.n.n.B.S.n.*.b.n.l.l.b.l.l.*.8.g.g.j.7.=.| | *.4.3.$.w.y.u.k.k.",
"*.M.k.<. .1.<.O.t ,.*.*.*.*.l.b.v.v.*.K.b.h.b.S.S.b.n.b.F.*.n.F.S.S.b.n.S.S.g.b.b.l.l.l.j.g.*.,.h.g.h.7.%.| } *.4.3.3.x.k.k.x.k.",
"h.M.@X:. .,.*.-.' *.*.#.,.k.v.b.v.v.v.D.b.h.n.n.n.n.S.n.n.*.n.S.S.S.S.n.b.S.*.b.b.b.l.h.h.h.,.*.g.h.g.h.%.} } *.5.3.3.h.k.k.h.r.",
"*.M.M.U h ] $.:.t *.#.*.*.F.n.v.*.b.v.l.F.l.D.S.n.n.n.n.F.*.n.n.S.B.n.B.b.B.4.z.c.l.c.k.g.h.&.,.h.h.e.7.#.} #.&.$.3.5.h.r.h.h.e.",
"*.k.h.U  .{ $.:.[ X.*.*.*.>X*.z.b.v.v.F.B.*.b.b.V.n.l.c.n.h.n.B.b.b.b.n.F.V.*.b.l.c.B.k.k.g.&.+.t.g.e.4.%.} } *.w.} $.y.r.r.r.e.",
",.*.j.I a X.#.O.d :.*.*.,.l.*.z.v.l.v.F.>X*.b.b.b.S.c.B.B.h.V.c.F.c.F.b.B.b.*.l.B.>XB.N.Z.k.&.,.t.t.i.y.%.{ X.w.y.5.$.r.h.r.r.e.",
",.*.k.-.a ] X.O.p -.,.,.*.*.v.v.v.l.l.F.S.*.S.b.b.S.c.n.b.*.c.n.b.b.B.b.B.B.*.l.V.>XB.B.x.k.&.&.y.0.<.,.$.' ..w.+.5.5.w.e.y.e.w.",
"7.g.g.,.h ' #.-.y -.#.>.*.*.*.D.*.b.*.>XB.*.G.F.c.c.b.c.B.e.l.B.k.F.B.c.c.c.*.B.k.N.k.k.g.h.:.+.t.p.0.0.-.' ;.t.;.:.,.,.w.w.u.e.",
"e.g.g.+.h  .#.o.y Y >.,.,.,.F.*.D.D.*.b.*.l.b.b.B.b.B.l.S.g.B.l.u.c.c.B.B.k.&.c.k.M.k.k.g.h.:.,.y.t.y.p.;.' o.>.+.;.+.e.w.w.y.e.",
",.,.,.O.g  .O. .3 -.<.,.*.c.,.*.B.*.,.B.B.,.l.>XB.B.B.c.F.k.l.c.k.l.l.N.k.k.$.l.g.g.y.k.,.,.&.X.@.O...R h d h 0.l -.O.e.e.w.e.e.",
";.>.1.-.r y  .2 # r y u f  .k k -.>.-.-.-.-.I -.-.U ;.>.T T Y L ! L I Y L W ~ ! Y T I B ! B ! J Z m P I k e 2 y e 3 h :.,.,.t.;.",
"3 y g e # < w < 1 g H B F E D D Z Q Q R.E.~.~.~.^.( +X+X^./.XX/./.~.W E.^./././.1.1.<.R.Y.Y.U.U.Q Q ! L ( E 8 8 L e < 7 < e e 7 ",
"J P / G e V L 7 < e K F E ^ ) R.Z Q R.R.~._.~./././ /._._.'.'.+X;X_.^ /._./.~.!.$XR.Z Q.Y.R.Q.R.Y.D S Z ^ x e / / u n A C M x z ",
"P V / q < u F q , V V F / ^ _ ~.Y.^ !./././.).).).).).{.).{.{.).$X/.T.Q.!.Q.W.W.W.W.!.Q.Y.Q.W.T.Y.U.S A A z 0 L / u n D D A A A ",
"`.V `.V 7 u u 0 9 C S D D T.T.!.Q.Q.(.).).).).|.|.).)..X).).|.|. X X).Q.Q.(.(.(.Q.Q.Q.W.W.!.).Q.W.U.D A A x V L V u z S A A A A ",
"`.F E.V 7 e V 7 8 N A D Y.Y.Y.T.!.!.(.).|.).). X.X.X X%X|.).[.[.).).).W.W.Q.(.Q.Q.Q.!.Q.Q.Q.!.Q.W.U.D U.D n 8 W q 7 9 U.U.A A A ",
"F w / V < 7 f 4 z C C A T.Y.D T.Q.!.!.!.).)..X X.X|.).).(.(.(.(./.).W.Y.Y.Y.W.T.Y.Y.Y.Q.Q.R.! B E Z Q Z n z 0 P 7 : z A A A A A ",
"/ ].|.`., 9 w 5 9 n m z n W.E.T.Y.R./.).|.|.).).).)..X).).|.%X}./././.R./.$X%X{.{.~.).$X{._./.^.]./ Q ^ Q C z b > o x A M U.M M ",
"/ [. X[.7 7 F < 4 c z b F /./.R.R./././.{.%X%X%X=X=X7X=X%X%X/.$X'.'.'.'./.{.$XoX{.{.{.).{./.Q.Q./.Q Q Q Q m v q 1 o 9 A A M M M ",
"W ).%XR.0 8 b < ^ Z D E T.R.^ T.T./ Y.T.R.Q T.Y.Q ^ Q Q T.T.Y.Q Y.D D Q D D D D U.N U.U.Z U.N U.U.S n N A c x v , o 9 A A M C M ",
"/ Q 6XT.v 8 - - (.S S A D A N Z S S Z S D D S ! D D D S Y.D S D D Y.D D Z A D Z U.Z Z N Z N U.Z S S N N N N z z , X , A x M M M ",
"~.~ ).! 8 8 - - [.D D D A S S D S S S S S S N Z Z C S S D Q Z N D D D D Z C S S N N Z N Z U.U.U.n N N N N c z z , ; , D M A C M ",
"R.~ m 0 4   . O |.U.A A S Z D S Z n S S S Q N Z n C Z S D D D Z D S S Z E C C C U.Z n N N N N Z n N n x c x z ; o ; 9 A A M z x ",
"W B n z 4 + + O !.Y.N Q Z Z Z N N N n N C Z N n n B Z S D D Z Z D Z Z Z S C C m N Z N n N N N N n n z 6 : 9 ; X   O , A M x 9 9 ",
"J n n 0 -   + O m Y.N N N Z Z A ! N N ! Z Z m m B Z m B B B m m J m B J B m m n m b b b b v b v z 0 8 5 8 1   X : > > M M x 7 , ",
"5 8 8 4 o O X X : 5 8 0 0 v v q v q v v b b b u b G J J J J J J J J J J J J J B b J J m J m m m b b b v q q 4 4 7 4 : 9 9 , , : ",
"5 < < - O o 1 1 < 5 5 e q w b b b b G G J J J J ! ! J L W ! W W W W L ! ! ! J J ! ! ! ! ! ! J ! B m m m b v v q V q 7 8 8 8 8 7 "
};
