/* XPM */
static char *c6d4cae4fa8b4506cc939a0811bfaab0qeqGzyk6bxojtGOG[] = {
/* columns rows colors chars-per-pixel */
"64 64 207 2 ",
"   c #2A1B16",
".  c #2E210C",
"X  c #36250D",
"o  c #3C2B0E",
"O  c #3B270D",
"+  c #3F310D",
"@  c #392710",
"#  c #3D2A12",
"$  c #3D271D",
"%  c #3F2C1C",
"&  c #372610",
"*  c #3D2C25",
"=  c #412C0F",
"-  c #42320C",
";  c #422D13",
":  c #492D13",
">  c #432C1E",
",  c #4A2B1E",
"<  c #47261C",
"1  c #522B1D",
"2  c #453113",
"3  c #4B3314",
"4  c #4E3815",
"5  c #46321A",
"6  c #4B341C",
"7  c #4E381F",
"8  c #523616",
"9  c #543A14",
"0  c #52351A",
"q  c #553A1C",
"w  c #5B3D1D",
"e  c #583D17",
"r  c #613F1E",
"t  c #442D22",
"y  c #4B2D22",
"u  c #512D22",
"i  c #5B2F24",
"p  c #473124",
"a  c #4C3324",
"s  c #443229",
"d  c #4C362A",
"f  c #4E392C",
"g  c #4E3920",
"h  c #523424",
"j  c #5B3323",
"k  c #533B24",
"l  c #5B3D23",
"z  c #523629",
"x  c #543B2C",
"c  c #5A3D2C",
"v  c #59352C",
"b  c #4D3A30",
"n  c #533D32",
"m  c #593E31",
"M  c #623A23",
"N  c #653E2B",
"B  c #703C2E",
"V  c #663F30",
"C  c #5C411D",
"Z  c #5F4117",
"A  c #63431D",
"S  c #69491E",
"D  c #704C1F",
"F  c #77571E",
"G  c #5C4124",
"H  c #5D422B",
"J  c #5D4333",
"K  c #634324",
"L  c #6A4623",
"P  c #6C4A24",
"I  c #64452B",
"U  c #6A462C",
"Y  c #65492B",
"T  c #6C4A2C",
"R  c #724D25",
"E  c #724D2B",
"W  c #784F2B",
"Q  c #755225",
"!  c #795326",
"~  c #73522C",
"^  c #7C552D",
"/  c #7E592E",
"(  c #7E5B27",
")  c #624534",
"_  c #6B4432",
"`  c #664A33",
"'  c #6B4C33",
"]  c #654B39",
"[  c #6A4C3B",
"{  c #724E33",
"}  c #6E5034",
"|  c #6E523A",
" . c #745234",
".. c #7A5533",
"X. c #765935",
"o. c #7D5A34",
"O. c #73543A",
"+. c #7A563A",
"@. c #76583C",
"#. c #7C5A3D",
"$. c #7F603F",
"%. c #6F5341",
"&. c #745642",
"*. c #755941",
"=. c #7C5D42",
"-. c #765D4B",
";. c #7E6043",
":. c #7E624C",
">. c #7B6050",
",. c #80572F",
"<. c #835A2D",
"1. c #895F2F",
"2. c #805733",
"3. c #835C34",
"4. c #885F34",
"5. c #825D3B",
"6. c #8D612E",
"7. c #866136",
"8. c #8D6335",
"9. c #85613D",
"0. c #8B643C",
"q. c #8E683D",
"w. c #916634",
"e. c #956A35",
"r. c #9A6D35",
"t. c #91673A",
"y. c #936A3C",
"u. c #996E3B",
"i. c #9D723D",
"p. c #9D7037",
"a. c #A37536",
"s. c #A3753C",
"d. c #A6793D",
"f. c #AA7B3D",
"g. c #B17F3F",
"h. c #815E41",
"j. c #846244",
"k. c #8A6543",
"l. c #8D6944",
"z. c #856549",
"x. c #896649",
"c. c #87684A",
"v. c #8C6A4C",
"b. c #956E45",
"n. c #936C44",
"m. c #996F43",
"M. c #926D4B",
"N. c #986F48",
"B. c #9C7244",
"V. c #96724D",
"C. c #96714C",
"Z. c #9C744B",
"A. c #977046",
"S. c #8D6D51",
"D. c #856950",
"F. c #916F51",
"G. c #8F7055",
"H. c #937153",
"J. c #9B7553",
"K. c #9E7955",
"L. c #957459",
"P. c #9A7759",
"I. c #9D7A5A",
"U. c #A27644",
"Y. c #A57944",
"T. c #AB7D43",
"R. c #A1774A",
"E. c #A47A4C",
"W. c #AA7E4B",
"Q. c #B17F41",
"!. c #A37B54",
"~. c #AA7F53",
"^. c #A37D5B",
"/. c #A97E59",
"(. c #A07755",
"). c #9B7C62",
"_. c #A47F61",
"`. c #AF803F",
"'. c #AE8047",
"]. c #AD814B",
"[. c #B28244",
"{. c #B3844B",
"}. c #BA864A",
"|. c #B9894D",
" X c #AC8154",
".X c #A7815C",
"XX c #AC825B",
"oX c #B28552",
"OX c #B68956",
"+X c #BB8C53",
"@X c #B1855A",
"#X c #B5895C",
"$X c #BA8C5B",
"%X c #BF9058",
"&X c #A58161",
"*X c #AB8463",
"=X c #AC8868",
"-X c #B48B64",
";X c #BA8E63",
":X c #B38D6B",
">X c #BD9266",
",X c #B9926E",
"<X c #B6906E",
"1X c #B69170",
"2X c #C19053",
"3X c #C39358",
"4X c #C29563",
/* pixels */
"P L E ,.4.1.,.,.<.<.E q : : : : : ; ; @ @ P B S 1.3.<.w.,.r = r ,.E +.5.k.n.5.U ^ 9.t.0.7.9.0.l.9.5.5.+.l.q.l.i.8.t.e.w.7.o.~ / ",
"2.4.1.2.2.4.4.<.2.<.W M 8 8 : q w ; # : 2 L D ! w.3.8.r.3.P : R 4.2.4.k.M.x.k.h.7.t.m.q.5.l.h.k.n.k.5.5.l.V.Z.B.y.B.A.A.q.7.3.7.",
"<.3.4.w.w.w.4.4.6.4.4.L w w w N I ; @ ; 8 A <.<.3.8.w.y.0.R 3 E l.l.y.M.5.+.x.Z.y.t.n.4.5.5.l.y.y.0.0.5.b.l.J.K.y.b.V..XV.0.0.8.",
"p.t.w.w.6.w.w.w.w.w.w.2.w r T P K : & ; 3 w <.1.w.e.y.n.4.E 8 P 4.k.l.n.h.+.Z./.n.q.q.5.5.q.q.5.9.N.5.5.A.M.*X.Xb.M.F.V.V.0.u.u.",
"w.u.r.w.6.6.r.p.e.w.8.5.M G E M M 8 . X ; r 4.3.2.<.0.n.4.E r E k.y.m.(.M.v.M.(.U.Z.y.n.n.i.W.Y.W.W.B.n.Y.!.^.K.l.b.A.j.C.q.A.K.",
"}.T.f.r.r.r.6.w.w.1.1.2.E L U w l 0 O 2 = Q 0.5.W 2.t.y.y.E K 2.U.U.m.!.h.^./.Z.!.R.Z.R.B.E.W.R.Z.n.Z.Z.E.V.M.v.l.i.A. X.XV.Z.Z.",
"2XQ.Q.s.r.r.e.r.w.6.1.^ W U P I l 0 - 3 : R 7.7.^ 3.4.u.y.<.P <.i.i.i.U.h.M.R.J.K.B.B.B.B.B.i.A.B.U.!.E.l.K.V.x.0.y.Z. X XB.B.K.",
"T.T.U.a.r.r.r.y./ w.4...U I I U K K 4 3 8 R 5. .4.u.u.y.u.8.E 1.Y.R.m.h...5.h.h.h.j.j.l.M.l.5.l.l.N.n.n.@.#.z.H.9.b.K.K.K.B.B.n.",
"N.m.t.0.8.w.t.2.l ......P I I I U q # ; 3 E E l 5.q.y.t.m.l.{ 4.u.U.n.5.h.{ B u [ =.h.x.h.h.5.5.4.5...+.) O.=.z.#.9.v.v.n.B.A.n.",
"5.4.0.8.4.t.y.m.y.t.8.o.{ T l M U w X = ; o.n.o.t.t.w.8.t.2.P 2.y.n.h.+.+.h.h.+.h.5.5.+.5.3.m.n.N.k.h.h.=.=.S.M.9.l.k.j.M.U.n.B.",
"l.5.9.t.m.m.y.N.N.t.3.E { ..U U  .w X X O ( y.8.w.t.t.0.t.3.E 3.N.k...{ +.h.x.v.!.k.k.x.M.n.N.U.M.5.+.O.h.h.S.M.k.q.;.@.o.M.l.M.",
"M.2.5.4.l.U.y.Z.Z.y.4.2.5.7.5.2.3.r O X O ~ k.7.8.t.w.q.y.7.E 5.N.n.h.h.h.h.h.F./.R.n.n.J.C.N.(.h...O.=.S.S.v.M.c.l.M.k.v.N.j.n.",
"N.w.t.4.4.N.n.!.E.u.t.q.q.t.t... .w O X ; P +.5.8.q.8.8.q.3.E 3.M.M.h.x.x.h.+.&.v.F.5.k.M.N.M.x.h.=.h.h.M.v.v.x.n.k.k.l.C.K.n.N.",
"t.y.w.4.8.E.R.(.Z.t.t.l.8.8.w.3.^ M O X ; ~ o.2.7.q.3.3.y.3.L o.M.F.M.h.h.h.h.2.z.M.k.k.j.k.M.M.x.h.h.x.H.J.F.j.h.4.t.y.M.v.J.F.",
"T.E.U.u.m.W.R.B.B.y.8.y.7.w.t.7.o.K = ; ; T 5.2.4.y.2.o.q.! I 5.M.x.v.S.v.h.h.x.h.x.k.h.j.0.0.B.t.h.h.h.A.!.M.k.h.5.y.m.k.v.M.k.",
"T.Y.u.t.u.m.m.m.U.t.8.q.4.8.q.8.3.R : 3 3  .l.4.0.0.7.5.8...E o.n.S.F.x.h.2.h.&.z.^.J.M.l.0.y.u.n.h.h.x.N.R.Z.(.k.4.y.0.0.F.J.z.",
"W.W.~.W.W.R./././.U.U.m.m.m.k.0.2.B 3 ; 2 ~ j.7.0.4.h.o.2...E +.F.F.F.x.=...+.O.h.!.oX!.M.q.0.q.2.{ { h.j.l.k.M.n.4.n.Z.M.v.F.v.",
"2X~./.#X$X4X4X/._./.Y.W.R.m.2.h.h.E l 4 ; P j.+.+.+...{ 2.N.N.M.H.I.h.x.F.v.h.#.H.@XoX~.(.M.n.n.5._ _ U _ 5.O.{ =.+.h.F.F.H.H.H.",
"/././.~.;X4X1X(._.(.(.(./.}.k.h.2.E w 5 # L  .T U U ..M.!.XXk.h.x.H.F.P.=XI.H.h._.1X#XOXoXXX~.!.!.(.M.x.#.l.k.@.h.h.M.v.S.x.h.z.",
"#X/./././._.1X(.(.(.Z.~.OX~.N.k...U w : # q  . .T { h.K.v.V.z.#.x.H.P.k.F.J.M.j.).I.-X4X;X:X:X.XXX~.!.F.K. X!.G.F.I.C.H.x.h.&.h.",
"/./././._._._._.P.x.k./.(.k.k.h.2.T T ; # q .. .0.n.M.^.l.F.O.O.v.P.^.H.&XXX X.X=X*XXX;X:X,X:XoXoXY.E.J.-XOXoX X(.J.J.(.H.h.h.F.",
"$X$X~./.(./._._.(.(.v.x.k.M.N.M.M.' K 3 q @.5.k.$X-X_.:X/.XX5.I.4X4X4X$XXX$XOX@XXX#XOX$X$X+X%X+X}.{.{.].{.}.{.oX~./.~.~.H.h.k.x.",
"/./././._._._._._._.(.(.(.N.N.M.H.k. .q w o.F.(.$XoX&X1X:X-XJ./.;X3X2X2X+X+X+XoX{.{.{.+X+X}.+X+X}.{.|.|.|.}.}.{./.2XW.~.Z.k.h.h.",
"/.@X/././._._.4X<X/././.F.v.h.m.Z.Z.~ 6 : l 3.W.3X~.!.^.!.(.n.!.$X2X|.2X+X+X+X|.{.}.{.|.OX}.OX+X|.{.[.[.[.[.'.T.W./.T.W.R.N.N.h.",
";X}.oX~././.4X4X4X/././.J.x.h.R.E.l...q + P y. X X^.K.V.(.(.E.!.~.|.~.W.}.}.{.Y.s.Y.B.U.E.U.E.@X#XW.g.f.s.U.d.U.T.T.U.Y.R.N.N.k.",
"/.W.}.~.W.~.2X3X/./.(./.R.k.k.N.U.4.E q 2 Q y. X XK.K.!.(.C.n.Z.~.~.E.W.E.W.d.d.i.s.B.U.B.m.B.R.E.(.i.i.m.Y.s.d.U.U.f.W.m.k.h.h.",
"~.}.W.W.W.W.#X2X2X~.~./.(.F.F.R.R.W q q Z Q t.K.~.J.H.J.!.!.y.n.U.E.E.Y.Y.Y.Y.T.f.a.a.s.u.u.B.U.R.J.m.r.s.Y.s.U.U.m.s.Y.B.R.M.h.",
"}.W.W.}.}./.}.}.}.2XW.W.Y.E.E.W.W.w.L r Z w.B. X~.!.!.P./.E.y.n.U.W.W.W.Y.Y.{.OX}.f.g.T.s.r.Y.B.W.W.T.d.f.d.Y.s.a.t.m.i.m.N.C.h.",
"}.g.Q.Q.Q.W.~.}.~.~.Z.Z.(.Q.Q.W.T.T.( 9 S r.'.'.W.W.!.K. XE.n.n.U.].W.].{.W.W.].[.[.[.T.E.Y.].Y.T.[.T.T.d.T.d.Y.s.p.r.r.r.w.k.0.",
"g.g.Q.Q.f.Q.Q.T.E././.R.R.E.W.T.T.Y.q.A F e.d.`.f.f.].W.!.K.N.N.Z.OXoX].W.Y.u.B.U.s.a.s.B.Y.'.].W.{.'.f.U.T.f.T.T.a.a.p.e.6.2.2.",
"g.f.Q.Q.s.f.Q.Y.W.W.U.i.w.i.U.Y.Y.u.n.w A 7.d.'.s.i.E. XXXN.Z.E.~.#X#X~.l.t.n.B.u.r.r.n.n.B.K.W. X{.[.'.U.U.Q.T.f.f.a.a.w.8.2.2.",
"Q.U.T.U.s.s.s.u.Y.W.Y.i.m.U.W.R.U.m.j.w C $.Z.B.B.q.M.!.XX@XE.E. X@X@X*XN.k.2.y.y.t.n.k.q.v.J..X X].].'.Y.~.Y.w.w.a.s.T.Y.m.5.2.",
"Y.U.U.E.m.r.y.t.u.B.n.n.n.B.Z.K.K.M.X.C C q.B.i.B.n.c.K..X@XR.R..XXX~./.Z.N.9.l.n.B.n.n.k.k.H.^. X].!.Z.Z.k.k.v.N.U.n.E.Z.y.7...",
"E.N.U.m.l.m.y.5.n.n.v.M.c.V.J.H.G.S.$.C C o.M.x.v.j.j.L.I.I.Z.A.K.K.I.^.Z.n.h.5.+.A.M.N.y.M.P.J.Z.Z.Z.V.k.+.n.n.n.Z.B.N.k.k.q.2.",
"U.m.m.m.t.l.l.5.l.M.x.h.k.c.v.v.F.G.$.P C } X.;.j.j.#.z.J.L.v.x.G.H.L.v.v.k.k.+.+.+.$.9.k.v.H.S.H.v.x.9.#.+.0.k.n.9.N.l.+.o.5.{ ",
"!.B.M.n.k.h.h.k.Z.H.v.o.k.v.v.H.H.l.~ C 4 Y #.c.x.z.z.c.v.v.c.j.j.c.c.v.S.k.h.+. . .j.c.j.l.v.H.j.=.#.#.h.h.0.h.9.5.k.3.,.,.k.{ ",
"/.v.v.N.9.x.h.x.S.F.v.F.x.v.x.z.;.X.C + 5 Y ~ X.j.j.j.;.j.c.j. .@.z.z.S.v.z.j.h.$.$.;.c.v.k.k.;.@.' _ {  . .....5.2.,.R R W W U ",
"k.v.h.h.h.h.h.h.x.x.x.x.;.$.~ ' ~ G 5 # # a Y X.j.;.j.j.j.x.k.;.c.v.v.x.x.v.x.z.M.G.v.q.9.9.l.9.q.#.z.j.S.#.{ ' { W W U U U U O.",
"Z.M.h.h.=.=.#.#.j.c.x.+.} X.O.X. .l 5 + 5 6 I  .z.c.v.z.M.A.A.c.v.H.v.z.z.x.x.j.c.v.c.$.Y Y q.Z.B.B.K.F.S.+.=.=.M M M M j j j _ ",
"W.B.N.h.5.@.=.j.j.c.9. .} X.X.#.} k g g l h H ' =.c.c.z.v.V.V.G.v.S.S.H.S.v.v.x.S.A.G.$.} C 7.V.!.!.M.v.h.#.+.h.B V N _ j N U { ",
"Z.M.M.M.k.5.C.F.L.H.C.c.;.;.@.@.Y K 7 G I H ' #.c.v.v.S.H.J.v.c.z.z.x.L.v.v.v.G.G.H.K.l.$.$.y..XI.F.S.h.h.+.5.h.h.@.{ +.=.h.+._ ",
"N.N.v.F.N.h.J.J.v.c.;.O.} Y ` O.~ ..q C K T  . .H.x.v.S.V.M.c.z.z.S.v.I.v.G.L.L.H.V.K.C.q.Z.y.H.S.x.h.h.h.&...x.v.+.5.+.=.z.=.' ",
"J.C.x.F.P.F.h.x.X.| | } } } G ` ~ K G q K P / $.v.k.v.H.S.M.c.v.S.F.S.P.G.G.H.G.M.b.Z.Z.B.Z.M.G.x.S.=.=.{ h...+.=.k.h.{ I =.j.#.",
"h.H.H.J.v.=.{ &.} ;.O.@.X.} G Y } k q G I K ! P #.k.v.G.J.E.n.S.S.L.S.S.G.G.c.j.M.u.Z.B.B.Z.B.M._._.I.*XF.+._ { T R.h.{ ) #.h.#.",
"j.c.H.H.F.x.j.v.;.c.X.} } ` } } X.Y G I X.~ Y I I  .M.H.G.H.G.G.S.F.l.v.S.S.v.G.M.u.i.V.u.i.Z.].@XXX^.!.F.=.{ _ { x.v.U { #.=.@.",
"q.q.j.5.9.N.M.j.l.v.z.c.;.;.S.;.' Y G q P Y Y Y Y G  .v.G.].V.z.S.S.j.v.S.S.C.l.Z.Z.V.S.M.M.K.V./.^.L.v.h.5.h.O.O.+.+.'  .+.O.@.",
"T.T.t.y.J.K.J.Z.Z.K.P.H.c.c.G.c.o.#. .G Y T 7.@.o.1.r.i.Y.`.q.;.S.z.+.3.A.A.v.q.B.Z.M.b.q.$.S.M.K.K.v.z.G.D.=.+.=.h.h.=.#.+.=.z.",
"{.T.d.r.8.u.k.J.V.I.&XG.v.c.c.j.v.@.@.T ~ / t.h.;.0.u.d.f.`.i.7.5.c.B.Y.'.Y.v.M.i.q.l.9.u.k.$.7.l.v.L.v.z.h.D.D.z.S.h.=.z.j.=.-.",
"[.{.[.].W.W.Y.B.V.K..XG.c.:.j.@.} I } $.q.r.q.;.;.l.T.'.].[.'. XZ.K.].Y.Y.Y.B.y.l.k.l.5.9. .#.8.3.9.k.j.*.z.G.c.=.O.O.' @.O.' O.",
"oX+X+X{.{.W.q.K.x.V.H.G.;.;.c.9.3./ 7.w.r.p.C.;.l.T.].'.U.u.0.8.7.7.b.X.o.X.' H H H I ' ` } ;.v.h.+.*.*.@.z.c.-.@.O.O.' _ [ [ z.",
"OX#X Xx.j.@.` ;.S.;.;.| @.;.@.;.j.7.9.c.M.G.).S.V.Z.i.! P D C G G | Y ` G H G k k g g g h 7 7 @.;.#.=.@.@.j.:.@.&.O.| ` ' [ O.O.",
"].].B.#.X.X.;.S.j.;.;.| @.| } ` | @.=.;.D.G.G.9.l.u.<.K K G q G k G I P R P G k k h 6 k k 6 h ~ ~ E ~ Y ~ @.O.*.*.*.&.] ] ` O.[ ",
"X.P ( $.( Y } *.} H G | @.@.} H H Y I H ' #.4.1.p.7.C P K Q Y G _ H R ( s.Y.u.9.R e 5 h 7 7 g C w Z Q <.o.$.G k ` } ` [ ` ` ` k ",
"c.Y G S P ` k k C 5 7 ` j.=.=.z.=.G g G k I w ,.y.i.q./ q.i.B.7.7.7.Q A R P / ! A C + 2 2 5 # 2 9 k e w P k 7 g k h > k d h p ; ",
"7.X.X.S C K q q - 5 5 G } X.' ' o.K Y G Y ~ E 1.y.Z.B.q.q.y.i.i.u.,.S K P P P S P P + + - 4 2 O 2 w 9 4 K G 6 C G q 6 5 0 R ,.R ",
"( S C A 9 C G 4 4 2 + C G K I G / w.o.o.o./ ..^ u.B.Z.B.9.~ ~ P ~ T I I d z N U T K 4 # o # ; 6 5 h u 0 q 2 3 A A C q 8 w ,.3.P ",
"/ o.} A Z G q = + + - 9 P ~ $.6.3.y.n.y.3.5.*. ...n.h.W ) _ | ] x J J J f c N V k j 1 , ; > 5 a p y y y p > > k E W w 8 r Y } I ",
"u.q.#.3.o.^ A w 9 9 Z 7.9.j.q.X.=.B.y.y.l.3.2.,.5.+.[ [ ) ` %.] x x H d x x c c ) z p a H H c x n m m d h < y y x ' I k k c c x ",
"A.A.y.=.=.#.M.m.<.! 8.B.A.V.Z.9.*.B.0.7.n.9.0.t.&.&.[ &._ B [ ) J J J d n v v v v h k x J H f f y h n b a y y t p f ] O.| H T ` ",
"l.B.n.@.| ;.h.y.r.0.q.b.b.A.B.7.2.7.n.P.Z.N.l.=.[ ) m ] m f m c c x u j a p x y , n ] J J f < u i u m m v z z [ [ ) :.%.:.v.@.D.",
"A.V.0.7.7.' @.4.q.n.n.l.l.q.0.l.n.B.n.M.y.k.&.) J x n [ ) x f z d y u y t p d y < d f d f p y y t z * t y < < d f s x | c.#.' :.",
"l.M.9.k.j.{ `  .;.;.;.c.j.z.c.c.j.v.k.k.x.[ J m J c d f J x h d y d x t h x v p s p d p % t , u u u u u i 1 a d s b f | o.} H ] ",
"&.O.*.=.;.@.=.;.@.;.;.;.;.:.c.;.-.j.=.z.&.-.>.] J J m ) J J V m n m x d f x x d p p > > t > $ t y t < < d s t s n f J * d d f d ",
"%.%.=.j.z.=.@.;.@.*.*.| ;.:.*.*.%.] ] ) ) ) ] ] ) ) m ) J ) ] z d a x x c h d s f x t > d s t t y t t $ t d d s b b b * * t *   "
};
