/* XPM */
static char *a25ae53988944457aa67b81fb2b69e38xnT3afxnBXA0oAUm[] = {
/* columns rows colors chars-per-pixel */
"64 64 223 2 ",
"   c #140E0B",
".  c #1C120D",
"X  c #1D1B1C",
"o  c #22130D",
"O  c #271A17",
"+  c #351F19",
"@  c #331E0E",
"#  c #36210F",
"$  c #3C2512",
"%  c #3B2514",
"&  c #1D1D21",
"*  c #1F2025",
"=  c #222126",
"-  c #272428",
";  c #3D2623",
":  c #201F25",
">  c #462C15",
",  c #4C3217",
"<  c #4D3318",
"1  c #5A3D1D",
"2  c #54381A",
"3  c #4C2D24",
"4  c #452C27",
"5  c #4D322C",
"6  c #4A372E",
"7  c #52332C",
"8  c #573928",
"9  c #5C3B35",
"0  c #563A37",
"q  c #4E3432",
"w  c #653F34",
"e  c #613B2E",
"r  c #5D411E",
"t  c #63441E",
"y  c #68491D",
"u  c #5B4225",
"i  c #594739",
"p  c #644621",
"a  c #6B4D26",
"s  c #654C2C",
"d  c #6B4E2A",
"f  c #664823",
"g  c #6D502B",
"h  c #6B502A",
"j  c #73542D",
"k  c #7D5A2E",
"l  c #63433B",
"z  c #6B453B",
"x  c #684735",
"c  c #72483B",
"v  c #695131",
"b  c #695234",
"n  c #755832",
"m  c #7B5B34",
"M  c #7A5D3B",
"N  c #735636",
"B  c #724F25",
"V  c #7F6139",
"C  c #463B46",
"Z  c #4C424B",
"A  c #5B4344",
"S  c #5A4E42",
"D  c #52454D",
"F  c #594848",
"G  c #5D5246",
"H  c #5E554A",
"J  c #4C4653",
"K  c #48495B",
"L  c #544A54",
"P  c #5B4E55",
"I  c #544D5A",
"U  c #544953",
"Y  c #5A515C",
"T  c #5B515B",
"R  c #674A47",
"E  c #744D45",
"W  c #724F49",
"Q  c #615549",
"!  c #645448",
"~  c #75514A",
"^  c #7B554D",
"/  c #795746",
"(  c #624D52",
")  c #64545B",
"_  c #6B5456",
"`  c #775651",
"'  c #7B6246",
"]  c #454C63",
"[  c #474E68",
"{  c #47506C",
"}  c #4B536C",
"|  c #4E5265",
" . c #535263",
".. c #5C5664",
"X. c #52566C",
"o. c #55596E",
"O. c #5B5A6C",
"+. c #5C5867",
"@. c #4D5671",
"#. c #4F5B76",
"$. c #545B74",
"%. c #5B5E73",
"&. c #555E7A",
"*. c #535973",
"=. c #514F62",
"-. c #615D6C",
";. c #685B65",
":. c #625E71",
">. c #5D6175",
",. c #55617D",
"<. c #5A637D",
"1. c #636274",
"2. c #62657A",
"3. c #6C6C7B",
"4. c #676777",
"5. c #72717E",
"6. c #6E6975",
"7. c #815F35",
"8. c #835B2B",
"9. c #806037",
"0. c #82633A",
"q. c #8A673B",
"w. c #94703D",
"e. c #825D4C",
"r. c #8B6C44",
"t. c #856948",
"y. c #8D714D",
"u. c #93744C",
"i. c #9B7B4D",
"p. c #997645",
"a. c #856A53",
"s. c #8D7353",
"d. c #8C735C",
"f. c #8F795C",
"g. c #917552",
"h. c #967B55",
"j. c #9A7C53",
"k. c #957B5A",
"l. c #9A7E59",
"z. c #947657",
"x. c #A17D49",
"c. c #A17F51",
"v. c #947C62",
"b. c #997F60",
"n. c #8B7560",
"m. c #9C815B",
"M. c #A5824A",
"N. c #A9854E",
"B. c #AA8954",
"V. c #A2855D",
"C. c #A6895E",
"Z. c #AD8D5B",
"A. c #A58554",
"S. c #B28E54",
"D. c #B3935C",
"F. c #BB975D",
"G. c #AF905B",
"H. c #9D8464",
"J. c #9C856B",
"K. c #9B8669",
"L. c #9F8A71",
"P. c #A28763",
"I. c #A58B64",
"U. c #AA8D64",
"Y. c #A48B6B",
"T. c #AA8F6A",
"R. c #AD9166",
"E. c #AD926B",
"W. c #B59663",
"Q. c #B99761",
"!. c #B79865",
"~. c #B99A65",
"^. c #B1966B",
"/. c #B5996C",
"(. c #BA9B69",
"). c #A38C72",
"_. c #A88F70",
"`. c #A69174",
"'. c #AD9572",
"]. c #AD9679",
"[. c #AE997C",
"{. c #AB9576",
"}. c #B19772",
"|. c #B39A74",
" X c #B99E74",
".X c #B39B7B",
"XX c #B89F79",
"oX c #BBA175",
"OX c #BBA37C",
"+X c #B6A07E",
"@X c #C1A477",
"#X c #5B6582",
"$X c #5D6985",
"%X c #5A6784",
"&X c #626B85",
"*X c #626D89",
"=X c #636A82",
"-X c #66718D",
";X c #6B748D",
":X c #6A7086",
">X c #747381",
",X c #757B8F",
"<X c #6C7591",
"1X c #737B94",
"2X c #7C8398",
"3X c #81889C",
"4X c #B39E82",
"5X c #AC9980",
"6X c #B7A083",
"7X c #BDA583",
"8X c #BEA98B",
"9X c #BDA787",
"0X c #BDB099",
"qX c #878EA1",
"wX c #C0A783",
"eX c #C1A985",
"rX c #C2AC8D",
"tX c #C7B08E",
"yX c #C8B08F",
"uX c #C3AE91",
"iX c #C6B194",
"pX c #C5B39A",
"aX c #C8B69C",
/* pixels */
"!./.W.W.!.!.!.W.W.(.(.!.W.!.^.W.(.(.!.!.!.!.!.~.!.~.(.(.~.(.(.(.@X(.(.!.(.!.Q.!.!.!.!.!.!.!.!.!.!.!.!.!.W.!.!.W.W.!.!.!.!.!.W.W.",
"!.!.!./.!.!.^.W.~.^.W.(.!.(.(.(.(.!.W.W.!.!.(.~.(.~.(.~.~.@XeX.X4X8X9XoX(.Q.!.!.!.!.!.D.D.!.!.!.!.!.!.!.!.!.W.!.!.W.!.!.!.W.!.W.",
"(.!.!./.!.!.Q.!.W.(.W.W.(.(.(.(.~.(.!.!.!.~.!.(.(.(.(.(. X4X.Xb.f.d.L.L.{.R.!.!.~.!.!.!.~.~.!.(.!.!.!.!.!.!.!.!.!.!.!.!.!.!.!.!.",
"(./.!.~.~.!././.W.(.(.(.(.(.(.(.(.~.~.!.~.!.~.~.~.(.(.(.'.J.7X).s.f.J.d.m.U.W.W.!.!.!.!.!.!.~.!.!.!.!.!.(.!.(.(.!.!.!.!.W.W.!.!.",
"!.!./.!.!.(.!.!.~.~.~.(.(.(.(.(.(.(.!.~.(.!.~.(.(.~.Q.Z.t.y.m.N `.N ' a.b y.Z.W.R.!.!.!.!.!.(.!.!.(.!.(.!.(.!.!.!.!.~.!.W.W.!.!.",
"(.(.(.(.(.!.(.!.(.~.(.~.(.W.(.(.(.(.(.oX/.oX}.{.].oX.XR.r.u.8X).' a.K.' M m.`.K.K.K.`.[.^. X(.(.!.(.!.(.(.!.(.(.(.(.(.!.!.!.!.D.",
"(.(.(.(.(.(.(.(.(.~.(.(.(.(.(.(.oX|.`.K.s.' t.' q.r.g.m.r.t.H.y.V ' ' s v a.' V V V ' V g.L.]. X(.!.!.(.!.(.!.(.(.!.!.~.!.!.!.D.",
"(.(.(.(.(.(.(.(.(.(.~.(.(.oXXX.Xk.y.y.y.t.t.s.d.y.s.k.y.q.q.j.q.N b v 8 b s.g.a.H.' s.y.r.r.r.y.m.Y.^.!.(.!.(.!.!.!.~.~.~.~.~.~.",
"(.(.(.(.(.(.(.(.(.@XOX7X8X5Xb.b._.H.f.L.6X`.L.a.d.a.k.)..X.X{.k.' k.`.).L.v.v.a./ n.L.].v.H.m.H.H.m.Y..X+XoXoX!.~.~.(.(.(.!.(.!.",
"oX(././.oX/././.(.P.b.].`.].5Xv.K.K.K.k.' t.[.8XL.a.v.L.`.H.Y.{.`.{.f.H.J.n.a.f.).`.v.' a.Y.K.L.Y.L.[.4X6X[.K.T.^.!.!.!.!.!.(.(.",
"(.(.G.h._.T._.T.'._.Y.Y.Y.P.a.l.m.m.i.p.i.i.r.0.V `.L.5X).m.Y..XK.L.K.H.J.Y.v.s.V V t.g.V.m.m.m.m.m.h.m.H.Y.K.Y.K.K.K.I.m.m.R.!.",
"(.~.!.D.iXiXpXaXaXaXaXiXuX9X.X7X8X9X7XOXOX.X}.U.V.y.0.V k.4XiXK.N 4X6X).y.0.r.m.E./. X+XOX7X7X7XOXOXoXtX8XiXpXiX0X8X8X8XI.A.!.!.",
"!.^.^.+X0X0XpX0XpX0XaXaXaXpX8X0XaXiXiXiXiX0XiX8X9X6X6X7X|.P.k.v.Y.H.H.].6X9X9XrX8X8XrXiXiXiXaXiX0XrX9XuXtXiXiXiX0X0XiX0X+XR.R.(.",
"u 6 u i i i i i S i G i F R S b Q Q ! ! i S S i i S S S G S G G G G G G H H H H H H H H H H Q Q Q Q Q Q H H H H H b H H H i s i ",
"V V N V m m k j g v n m m n n n n n j r 2 u t r t r u u r t r r 1 1 1 1 1 1 1 1 r 1 1 2 2 u a g j g g g g j h h h f h s f s s f ",
"y.y.y.s.h.h.h.g.g.y.g.h.k.k.z.z.h.s.V V V 0.0.0.0.0.0.0.0.q.0.0.M 0.0.V m 9.9.9.V 0.V V m n 0.g.y.g.g.g.g.g.g.t.r.r.V r.r.V m.V ",
"y y y t y t f p y f t f y f t u r t t a a a a a a a a h h h h a g g h h a a h h a h h h a a y y t t t t t t f y f t t t t t t t ",
"2 r j 8.m m m m n V n n n j h f d g j j j j j g B j j j j j j h j j j n j j j j j j j j j j g a a g m m m n V n V n n k j g 2 > ",
"8.B y k q.r.r.r.q.r.r.q.0.m a j m m m m 0.m V m k m V m 0.V m V 9.0.V V 0.0.V V 0.0.V V 9.0.m m k j j 0.0.0.0.V V 9.0.9.g 1 2 y ",
"w.q.8.w.m.V.V.m.C.V.V.m.m.' r.r.y.u.u.u.u.i.i.j.m.y.M.m.M.m.M.m.j.i.i.g.i.M.p.m.i.M.i.i.i.p.u.u.y.u.r.m.m.m.m.m.m.m.l.l.m 8.8.8.",
"x.x.p.i.R.R.R.R.R.R.R.I.I.y.k.m.V.V.V.P.I.I.C.C.C.m.C.C.C.C.U.m.C.U.U.C.C.C.C.C.m.C.C.C.C.m.C.V.m.A.A.Y.U.R.E.I.T.I.Y.I.r.w.w.p.",
"M.N.M.N././././././.^.E.U.h.I.E.E.^.R.R.R.R.^.^.R.R.E.R.^.R.R.E.R.W.R.E.^.R.^.R.E.R.E.I.R.R.R.I.P.P.P.E.E.E.E.^.E.E.T.T.u.p.p.x.",
"S.N.S.W.|.oXoX+X XoX X X'.H.T.'.'.}.^.'.^.E.^.}.R.E.}.^./.|.E./.}./.^.}.{.^./.{./.}.}.E.E.{.}.E.E.E.U.|.[.|.[.[..X.X}.'.l.M.x.M.",
"S.S./.K.k.h.h.h.m.k.k.m.h.h.k.m.m.k.h.l.l.l.l.j.m.m.m.g.m.m.m.m.h.h.h.h.g.h.m.h.m.h.m.m.m.m.m.m.l.m.k.m.m.m.m.m.m.m.l.l.I.G.x.N.",
"S.S.~.R.m.I.I.I.T.T.R.T.R.R.R.R.R.U.U.U.U.U.U.U.C.R.U.U.I.U.U.I.U.E.E.E.E.E.}.'.^.}.E.}.'.}.].E.E.{.{.E._.E.E.{.E.`.U.Y./.U.p.x.",
"S.S./.E./.OXY.'.'.E.}.}.'.E.E.E.E.R.R.R.T.R.R.T.R.T.T.T.E.E.E.E.E._.E.E.`.E.|.].]..X.X|.+X[.|.[.].|.}.{.|.|.].[.'.E.+XOXoXR.w.M.",
"F.S.(.'.}.6X+XE.I.U.R.T.E.E.R.W.^.^./.^.}. X X}./.!.^.^.E.^./././.R.^.}./.|./.R.R.R.R.R.R.R.R.R.R.R.R.R.T.T.R.R.E.oXOXOXoXU.w.M.",
"D.D.(.]..X9X6X}. X Xb s s s s h h v b b s v v s s i v v v s v h s b b s v v v v s v v h s s s s s u s u u v  X/. X7XOX9X@XR.p.N.",
"Q.D.|.'.|.7X6X.X XoXu > > > , , , , , , , , < < , , 2 < < < < < < , , 2 < , , < , , 2 , 2 , , 2 < , , , $ b  XoXoX9XOXOXOXR.i.N.",
"W.F. X|.'.8X7X|.XXoX8 @ # # # # % % $ $ $ $ % > $ $ $ % $ $ $ $ $ # % % % % % $ $ # $ $ # # > # # # # # % M /.|.oX8X@X@XwXU.p.N.",
"Q.S.(.]..X8X6X XoXOXi o   . . . . . . o o o . . . . . . . . . . . . . . o . . o o o o o o o o o o o . . % ' /.oXoX9X7XwXwXU.x.N.",
"Q.D.(.[.|.8X.X XXXoXi @ o O                 . . . . . . . . . O % . . . . . . . . o o . . o   . . .   @ > y.oXOXOX7XOXwXwXW.i.S.",
"F.D./.{.}.7X7XOX XoXz + + + : : : : : : : : O : & & X & X & & + ; = : : : * = = = - - - - - - - - - - % 8 k.oXOX6XeX9XwX7XW.i.B.",
"D.D.(.4X6X6X8XOXoX@X! 4 ; 4 } } } { { { { [ C =.} @.{ X.@.X.@.C q C [ { { @.@.@.} =.Z @.X.@.@.X.o.#.=.3 8 l.oXOX7XrXeXtX6XU.x.B.",
"Q.D.i.M `.'.rXOXOXOXW 4 ; 4 =.} } @.{ } { { C X.} @.} @.@.X.@.D 9 J { { @.{ { { }  .J *.o.$.>.>.$.*. .3 s m.oXeXeXeXeXeXM M x.Z.",
"Q.D.D.x..X'.7XOXOXOX~ q q q } } } @.@.@.@.} C | @.} X.*.@.$.&.P R J @.{ @.@.@.@.} o.L $.,.$.$.$.$.o. .8 x U.OXeXeXeXeXeXi.x.B.G.",
"~.~.Q.F.OX'.OXOXOXOX' 0 5 q &.#X#X<.&.&.&.@.U *.$.$.*.$.%.%.&.P R I #X#X%X%X%X$X,.O.+.$X*X*X:X*X=X$. .8 c U.OXeXeXyXeXeXl.B.Z.G.",
"~.~.~.Q.XX'.7XOX+XOXa.9 9 0 &X-X-X-X<X<X-X2.( &X<X<X<X<X<X&X&.( ^ ..*X*X$X-X-X-X<.-.-.;X<X<X<X;X:X$. .e E T.OXOXwXeXwXeXc.B.S.G.",
"~.~.~.F.OX}.7XOXoXOXa.0 q 7 0 C C C C R F C C Y ;.+.-.-.-...) C E D  .......+.+.Y P P ......+.+...U Z e / T.6XeXwXeXeXeXl.B.S.G.",
"~.~.~.~.6X}.7X6XOXOXa.9 q e C :.6.%.:.:.:.( E &X*X;X;X;X<X=X&.) E O.%X&X*X*X*X*X<.:.1.*X-X-X*X-X$X} I l / E.OXOXwXeXeXyXV.B.Z.W.",
"F.~.F.~.wX}.wXXXXXXXa.w 0 w C $X2.=X$X=X=X) _ :.$X=X&X=X*X#X&.) E +.$X#X%X#X#X#X#X:.:.#X#X=X#X=X&.*.Y w e.'.7XwXeXrXeXrXP.B.G.D.",
"Q.~.~.~.7X}.wXwXwXXXd.w 0 0 C #X&.#X#X%X#X( _ &X*X*X*X-X-X$X@.;.E  .#X#X#X#X%X#X#.:.:.#X#X#X$X#X#X[ =.w e.'.8XwXeXuXyXuXU.B.G.D.",
"Q.F.~.F.4X.XrX4X7X6Xd.w 9 9 C @.{ { { { @.) R %.#X#X#X$X#X#.} ) ~  .#.#X#X&.#X#X#.:.%.<.#X#X#X#X&.[ =.w e._.7XwXeXrXrXuXT.B.G.D.",
"~.Q.~.~.wX.XrXeX9X7Xd.l 9 9 Y $X&X%X&X*X&.( R =X&X*X*X*X*X#X} _ E o.%X%X%X%X%X%X&.1.1.&X$X*X%X&X#X[ J E e.'.wXwXeXuXrXuXT.B.D.D.",
"(.F.~.(.wX.XwX4X9X6Xz.l w 9 C ;.-.;...-...R R =X&X$X&X$X&X#X@._ ^ +.&X%X%X*X&X%X&.-.2.*X&X*X*X$X#X] L w e..XrXrX8XrXyXiXE.B.Z.D.",
"(.~.~.~.wX4XrXwX8X8Xn.z C l A C C ( U ( ( ( R ..-.:.:.:.:.-. ._ ^ ) -.-.:.:.:.:.;.) ;.-.-.O.-.-.-.J F E e..XrXrXrXuXiXiXE.Z.G.Q.",
"F.F.~.F.wX4XrX7X9X4Xv.l z R %.#X:X&X-X:X2.=X_ =X*X*X*X*X*X#X%._ E :.*X*X&X*X-X*X<.6.4.*X*X*X*X&X=X}  .E e.4X8XrXrXuXiXiX_.Z.D.W.",
"F.(.~.~.4X[.9XwX9X9Xv.l l A #X&X&X=X%X&X} @.) #X=X=X*X:X&X#X&._ E :.&X%X&X%X&X&X&.1.:.&X$X&X$X$X&.} -.c e.].8XuXrXrXiXiXE.A.G.Q.",
"~.~.~.F.9X.XwXwX9X4Xv.w l R { { { { { ] { { _ #X$X$X$X#X$X&.&._ E :.%X%X#X#X#X#X$.6.>.#X#X%X#X$X&.} Y E e..XrXuXrXuXiXiX}.B.D.Q.",
"~.(.~.~.wX.X9X4X7XwXv.R A ( #X#X%X%X#X#X#X@.) #X&X$X=X$X$X&.$._ E %.&X$X$X$X&X$X,.1.>.%X%X$X$X$X#X} Y c e..XuXuXuXuXiXaXE.Z.D.Q.",
"(.(.~.F.rX4XwXwX7XOXv.w R _ #X#X%X%X%X%X%X@.Y $X*X*X&X$X*X#X$.` ^ :.$X%X%X$X&X$X,.-.>.%X%X$X$X$X#X} Y w e.].uXrXuXuXuXiX_.B.W.W.",
"F.(.F.F.wX4X7X4X7XwXv.w w C #X#X%X%X%X%X#X{ ;.#X%X%X$X$X$X&.#.( e.=X1X1X1X1X<X-X&.-.,.%X$X$X$X$X#X} Y w / .X8XuXuXuXiXiXE.B.D.W.",
"(.(.~.~.yX@XwX7XwXwXb.z 4 4 C C Z D D L I L F T  .Y Y Y  .P L R R ) ;.;.;.;.;.;.P P P T ) T T T U C 0 9 c ].rXiXiXuXiXiXE.B.Q.W.",
"(.~.F.~.eX@XwXwXwXrXb.C 0 l R R ( W ~ ` ^ W ~ ~ W E ~ ~ ~ ~ ^ ` ^ ^ ^ ^ E E ^ ` ^ E z x z z z z c c c w c .XrXiXyXiXiXiXT.B.D.Q.",
"~.~.~.F.eX4XeX4XeXeXJ.w 4 4 4 4 ; 4 4 4 5 6 5 5 q q 5 5 3 3 4 3 w 7 7 0 7 q 7 7 7 7 7 7 8 5 5 3 3 3 3 3 / .X8XuXiXuXiXyXT.B.D.W.",
"F.~.F.~.eXXXwXwX9XwXJ.w 0 C C C J K J J J J G J J L J J J J J R ^ C I I I I U U U F P U L P L J D D C c e.4XrXrXuXuXyXyXT.N.G.W.",
"Q.~.~.F.eX4X7X7X4XwXJ.l w R K ] ] [ [ ] ] ] ( K ] ] ] ] ] [ | ` e.I [ { } } } @.$.;.+.>.} X.} | } @.Y c e.4XuXrXuXuXyXiXT.B.D.Q.",
"~.~.F.F.wXXX4X7X7XwXJ.l 9 C ] ] ] K [ ] ] ] ( | } | | | X.| @._ E +.#X:.:.=X=X=X<.;.4.<.>.X.X.} } [ P w e.4XrXeXrXuXyXuX^.B.D.D.",
"Q.D.Q.F.wXXXXXwXwXwXJ.w e R #.&.,.,.,.,.,.>._ <.<.<.2.*X=X=X<._ E >X3X2X3XqXqX3X:X;.>X2X2X;X<.<.@.] I c e.4XrXrXyXuXyXyXE.B.D.W.",
"Q.~.F.F.wX4XOXwX7XwXJ.R w C *.&.,.<.2.:X2.<._ :X*X&X;X,X;X:X2._ E >X2X2X2X3X2X1X:X;.5.2X1X<X$X<.#.] P c e.4XrXrXrXrXrXyX^.N.D.D.",
"!.~.Q.Q.wX.XOXwX7X7XY.l w A  .X.X.+.o.o.O.O._ o.O.>.>.>.>.O.O.W E +.>.>.4.2.4.2.>.;.-.>.>.>.>.>.%.o.) c e.4XrXyXrXiXtXyX^.B.G.W.",
"~.~.~.F.wXXX4XwXwX7XJ.l 0 C =. .| | | | |  .( +.o.O.o.+.o.| X.! ~ Y X.X.o.o.%.%.O.) +.O.%.O.$.o.o.o.) w t.6XuXrXrXrXtXtX^.N.G.W.",
"(.(.~.~.wX4XXX7X7XOXY.l w C C J J L L J L L R I I L P P L U D R E U U U L L T P ) R U D U U U D D D A c e.6XrXtXrXtXtXtXR.B.G.D.",
"(.~.~.F.wX7XXX7XwXwX).l 9 R 4.:X5.3.5.5.3.3._ 3.3.>X5.5.>X5.4.~ E 6.3.5.>X>X>X>X5.;.6.3.3.3.3.4.4.:._ c e.+XrXeXtXrXyXyXR.N.G.W."
};
