/* XPM */
static char *f2259742e4d1480cd16259e8b85b938fCsQKEKIG9cQRcT45[] = {
/* columns rows colors chars-per-pixel */
"64 64 244 2 ",
"   c #1C1714",
".  c #13110F",
"X  c #231B16",
"o  c #231D1A",
"O  c #291D17",
"+  c #2C231D",
"@  c #29201B",
"#  c #33251C",
"$  c #3B261C",
"%  c #36291E",
"&  c #3B2A1D",
"*  c #332217",
"=  c #2D2521",
"-  c #2E2824",
";  c #312721",
":  c #342A24",
">  c #3C2C22",
",  c #352D29",
"<  c #392E29",
"1  c #3E3125",
"2  c #3D322A",
"3  c #3F3433",
"4  c #432C1D",
"5  c #482B1D",
"6  c #4A331D",
"7  c #45321D",
"8  c #53371F",
"9  c #422D22",
"0  c #492E22",
"q  c #443224",
"w  c #4B3224",
"e  c #43342A",
"r  c #4B352A",
"t  c #4B3A2C",
"y  c #47382B",
"u  c #523424",
"i  c #5C3B25",
"p  c #533B2C",
"a  c #583826",
"s  c #463D35",
"d  c #4B3C32",
"f  c #463938",
"g  c #533D32",
"h  c #673D27",
"j  c #4B4239",
"k  c #5C4435",
"l  c #5C4539",
"z  c #5C493C",
"x  c #564538",
"c  c #594129",
"v  c #644324",
"b  c #6A4C2D",
"n  c #75552E",
"m  c #664B37",
"M  c #6C533B",
"N  c #6A5237",
"B  c #72563C",
"V  c #75593E",
"C  c #795A37",
"Z  c #704F30",
"A  c #7F623C",
"S  c #5D4C43",
"D  c #4A4744",
"F  c #634E43",
"G  c #655145",
"H  c #6B5443",
"J  c #64544A",
"K  c #6C5A4D",
"L  c #6C5748",
"P  c #745B43",
"I  c #7A5E44",
"U  c #735D4A",
"Y  c #745945",
"T  c #6C5C52",
"R  c #675751",
"E  c #725D53",
"W  c #785F5B",
"Q  c #7C634C",
"!  c #7A6148",
"~  c #746254",
"^  c #7C6553",
"/  c #73655B",
"(  c #7B685A",
")  c #6E6256",
"_  c #796B61",
"`  c #7D746B",
"'  c #86653B",
"]  c #916F3C",
"[  c #8D4039",
"{  c #836543",
"}  c #8A6B45",
"|  c #866A4D",
" . c #8B6D4C",
".. c #846748",
"X. c #8E714B",
"o. c #927344",
"O. c #93744C",
"+. c #9B7A4C",
"@. c #98784A",
"#. c #846C54",
"$. c #8A6E52",
"%. c #836D5A",
"&. c #856A57",
"*. c #8C7154",
"=. c #85715D",
"-. c #8C735C",
";. c #877055",
":. c #927453",
">. c #967955",
",. c #9A7C55",
"<. c #92765A",
"1. c #957A5C",
"2. c #9A7C5C",
"3. c #987758",
"4. c #906D4A",
"5. c #846E64",
"6. c #847263",
"7. c #8C7563",
"8. c #8D7965",
"9. c #89786B",
"0. c #947B64",
"q. c #9A7E62",
"w. c #947D6A",
"e. c #947968",
"r. c #897A73",
"t. c #957F76",
"y. c #A07A6C",
"u. c #9D815C",
"i. c #9E8057",
"p. c #A3845B",
"a. c #A78758",
"s. c #B1905E",
"d. c #9D8264",
"f. c #96816D",
"g. c #9C836B",
"h. c #9F8969",
"j. c #948273",
"k. c #9C8573",
"l. c #9D8B7C",
"z. c #988779",
"x. c #8F8275",
"c. c #A18565",
"v. c #A58865",
"b. c #AB8C64",
"n. c #A2866A",
"m. c #A58A6C",
"M. c #AA8D6C",
"N. c #AE916D",
"B. c #AE9165",
"V. c #B3936D",
"C. c #B69669",
"Z. c #A48B74",
"A. c #AA8E72",
"S. c #A48D7B",
"D. c #A48A75",
"F. c #AD9274",
"G. c #A5917C",
"H. c #AC937C",
"J. c #B19574",
"K. c #B59976",
"L. c #BC9B74",
"P. c #B29679",
"I. c #B59A7C",
"U. c #BA9D7C",
"Y. c #BA9771",
"T. c #B18F64",
"R. c #BEA17B",
"E. c #C3A47C",
"W. c #C7A77B",
"Q. c #C09F74",
"!. c #9D9388",
"~. c #9E8C80",
"^. c #A59283",
"/. c #AB9483",
"(. c #A2968B",
"). c #AE9989",
"_. c #AA988A",
"`. c #B49B85",
"'. c #B39B8C",
"]. c #B89C85",
"[. c #AB9994",
"{. c #B49E92",
"}. c #A58E81",
"|. c #BCA28D",
" X c #B9A187",
".X c #B5A293",
"XX c #BBA493",
"oX c #BCA896",
"OX c #BCA799",
"+X c #BBAA9B",
"@X c #B6A799",
"#X c #AEA899",
"$X c #BEACA3",
"%X c #BFAEAA",
"&X c #C4A681",
"*X c #C6A882",
"=X c #CAAB84",
"-X c #CBAE8B",
";X c #C6A987",
":X c #CEB18A",
">X c #CEB086",
",X c #D2B48C",
"<X c #D5B78D",
"1X c #C2A995",
"2X c #C2AC9C",
"3X c #C5AA95",
"4X c #C8B39C",
"5X c #D2B693",
"6X c #D7BA92",
"7X c #D9BC93",
"8X c #DABE9C",
"9X c #D7BA99",
"0X c #C2AFA5",
"qX c #C4B2A5",
"wX c #CAB4A3",
"eX c #C4B3AB",
"rX c #CAB6AA",
"tX c #CCB9AD",
"yX c #CAB9A6",
"uX c #D2BCAC",
"iX c #D2BBA6",
"pX c #CDBCB1",
"aX c #C6B9B1",
"sX c #D3BEB3",
"dX c #D2BFBA",
"fX c #AEC5BE",
"gX c #DDC09B",
"hX c #E0C49F",
"jX c #DDC4A4",
"kX c #D5C1B6",
"lX c #DAC6BB",
"zX c #DBC7BA",
"xX c #CFC6B9",
"cX c #E2C6A2",
"vX c #E5C9A5",
"bX c #E0CBB9",
"nX c #B5CEC6",
"mX c #DBCAC1",
"MX c #C7D7C9",
"NX c #E1CDC3",
"BX c #E7D4CA",
"VX c #EBDBD4",
"CX c #F1DFD7",
"ZX c #EFE3E1",
/* pixels */
"z.s S.pXqX!.!.!.!.!.r.w.~..XG.).{.(.5.^ E S S R J R K T K F F F F S J F J J J R R E E ~ E ~.~.(.G.).oX'.G.z.x.x.l.z.9.x._.x 7.|.",
"K z / ) F z S F z z l l J / / / / _ / _ _ _ r._ _ / / / / R R J J R F F R J R R T ~ T T T T K R K T ) J z G K U ) ) L L ( K _ z.",
"5.e.t.t.w.D.S./././.H.&.D..X.X^.}.k.k.7.5.5.7.9.8.5.7.5.W &.&.9.t.D.S.}.}.H././.'.'.'.'.).'.S./.)._.G.-.0.'..XoX@XoX@Xz.$X@X(.j.",
"S./.'.`.D.).G.).'.'.'.-.w./.'./.`.).'.).).'.).{.{.{.{.).).).).'.{.'.{.{.{.{.{.{.{.{..X{.'.'.'.'.'. X`.G.g.l./.^./._.S.f.^.'.'./.",
"{.XXwX2X|.dXlXmXNXlXkXw./.2XwXrXrXrXrXrXtXuXtXuXuXsXsXsXsXsXsXsXsXsXdXsXsXsXdXdXdXsXsXkXkXkXsXkXsXpXtX2X`.0XeXtXeXqX@X^.$XtXtX.X",
"$X0XrX2X].&.w.w.w.w.$.w./.+XrXrXyXrXtXrXqXrXtXqXqXrXtX0X0XrXsXqXqXwX0X2X1XwXOX{.@XeX+XXX@X$X@X.X+X+X_.G.<.w.S.G.G.^.%.w.!.^.^..X",
"m U }.Y B &.^.G.S.S.&.Z B I /.| B B /.P B Q '.Y m F `.M B e.{.B B D.k.B B '...m U 1X#.P | .XB V k..XC C N 8.=.8.8.9.M N 8.~ z ( ",
"%...k.N C ..k Y H m Y C { I z.U  .| k.! | ..9.k.sX{.e.{ } 7.t.' } 7.&.} } w.[.ZX$Xz.| X.#.w.} O.8.=.}  .' Z.-.f.8.S.Z N &.-.x f.",
"w.;.`.n ' c.w.g.k.D.;.C ' } oX>.@.o.XX:.@.3.|..XVXmX.Xo.+.F..X] @.;XG.@.@.|..XxX+X.X,.+.u.oXo.+.I.`.] ] ] |.G..X.X2XC C Z.G.R / ",
"l.Z.w.C ] V.l.'.)./.*.] ] ] 0.:.s.s.f.,.b.s.w.*.m.>.0.a.C.b.g.a.T.P.v.T.T.g.A o.} f.i.C.v.g.B.C.g.>.a.s.a.G.U l.=.0.' A ( G.j f.",
"g S.f.' a.,.p U U k | +.a.a.-.c.W.E.q.v.E.W.0.>.p.o.&.L.W.I.k.E.W.M.q.W.W.d.' a.@.^ C.W.R.d.W.W.A.0.C.W.C.#.c U k ! +.X.;.` q ( ",
"x F ].,.T.T.k M Y p =.a.b.B./.U.>X=X|.U.>X,X1XV.B.i.`.W.,X5X|.=X<X3X].>X,X1Xi.T.N..X*X<X5X4X>X<X4X XE.W.E.0.Y P L Q i.u./.K z d.",
"U &.2X/. XI.f.! Q U =.A.I.|.0X4XiX4XuXwXiXwXtX2X1X`.+X2XqXwXrXrXiXtXeXqXwXrX+XXX+XqXqXtXuXsXtXtXtXyXqX+XXXk.Q =.L j._.@X+X~.( .X",
"6.9.{.1X2X.X^ #.^ U w.)..X0XeXwXrXrXrXrXrXtXtXyX2X+X$X0XeXeXaXaXaXaXaXrXeXeXqX+X$XeXeXtXeXpXeXqX$X+X@X.X).k.;.&.&.w.S.^._.( 9.'.",
"w.G /.'.`.H.D.=.#.-.0.k.Z.S.D.l.S.l.l.z.t.z.k.k.f.f.f.j.j.w.9.z.t.9.6.6.6.6.=.=.( ( _ ` _ ( ( ~ ~ -.d.d.d.Z.f.^ w.*.<.u.q.e 9..X",
"L $ | 2.,.,.Z.0.#.g.-.>.,.d.v 4 6 5 5 7./.z.6 4 8 8 8 u 8 w b .X.XM u i i i i c a v  X+Xw.i c i i 1.F.N.M.A.n.=.g.*.u.g.q.p t m ",
"! 9 A.A.A.c.d.D.0.S.X.u.d.n.<.C ' C ..d.D.g.}  .' } { ' ' >.p.g.k.X.1.} O.X.O.{ 1.@.h.g.u.O...o.' M.M.F.J.v.G.k.d.1.d.h.n.m ! u.",
"#.q A.M.M.q.v.m.l.<.u.n.m.N.2.+.,.v.v.F.z.n.b.M.v.B.M.p.F.P.L.G.Z.p.K.N.a.N.u.N.N.N.H.k.d.F.M.u.p.F.A.M.n.B.1.G.,.v.n.h.d.M P u.",
"| 0 D.A.F.m.M.2.Z.>.c.n.N.F.n.O.N.J.F.K.D.n.N.P.N.N.N.F.L.P.R. Xk.N.I.V.F.B.F.R.P.K. XG.m.P.J.M.i.A.M.m.h.m.v.h.d.v.h.M.g.m P u.",
"| q A.n.m.M.m.u.1.,.c.n.F.F.v.>.J.L.J.U.G.A.K.P.J.I.b.I.U.U.L.H.g.V.I.J.R.F.P.R.I.K.F.f.m.F.B.J.v.F.J.J.R.R.N.u.N.K.K.R.F.m ! d.",
"*.q c.v.M.V.M.b.,.a.v.B.N.N.*.d.J.K.,.v v v X.N.R.I.I.I.I.b.b v v n p.K.R. XI.`.B.Z v v v i.J.J.u.*.u.p.p.p.u.u.u.p.u.d.d.t ..d.",
"| q <.A.M.J.J.J.N.N.N.N.N.M.| v.J.N.n b u v ' 3.P.I.I.I.J.' n 6 7 C ' I.P.I.R.I.{ n 7 7 n ' R.A.d.F.F.I.P. XI.R.P.P.J.A.F.m P n.",
"P q F.H.F.H.c.m.F.F.M.M.F.F.d.>.K.} N X X   c @.R.F.p.K.v.C X X X @ @.V.N.v.C.a.C @ X X X ] B.N.,.P.I.F.m.J.A.h.d.h.P.m.F.G m @.",
"^ q F.N.n.m.Q | ^ #.g.J.J.H.h.n.i.] 4 * * # * { b.A.I.N.@.c + + * + M a.m. XR.i.c * + & @ m a.b.F.J.P.F.F.-.8.f.k.k.A.N.Z.m ! g.",
"Q > J.F.d.#.8.j.D.w.0.J.U.F.n.A.u.o.+ % > 4 * M V.J.].J.+.& & 1 1 * p C.U.I.I.p.9 7 % & % w C.K.F.F.P.P.g.k.XXwXqX.XG.P.M.m ! h.",
"! 9 n.d.&./.XX_.).).XXk.F.F.u.N.a.! 2 1 : < $ 9 W.U.U.V.O.$ q e 1 1 * Y.R.U. X2.4 6 1 q 4 * Y.R.N.J.K.k.G.qXr.j.x.kXyXZ.d.t ! n.",
"! 9 $.<.D.2XU ^ ^ %.D.+XF.u.| i.p.m j ; < ; : 9 L.B.N.b. .4 ; < 1 < % B.V.p.b.O.0 $ < < & & T.C.p.c.F._.rXL =.G.L ! kX.Xn.x ! v.",
"I 4 &.S.wX^ U k.).f.! 2XyX Xh.<.c.t j 1 : : e r N.g.n.d.#.e $ e 2 2 e c.H.G.G.*.9 # < < 1 $ b.n.f.P.S.pXj.7.S.).f.^ h.lX'.M k ! ",
"m > &.2X{.&.^./.S.k.&.D.sXS.<.( =.t s p y < e 0 H ~ ^ U l q 9 e e d t m ~ ~ Q G 0 p f e w & P ~ ! -.k..XU 6.8.w.%.( ;.rX^.l m K ",
"U 9 Y 0Xt.~ 5.w.f.K ( %.S.^ >.f.&.$ a p p p a a e.]..X|.U p 0 r d u p *.|.1X1X%.u 5 r r t i B |. X*.#.8.7.8.7.0.8.8.-.k.%.l 7.@X",
"w.9 *.)./././.}.}.S.G.G./.B q.+XH.6 v a p u h h A.wXwX2X..h h a a h h <..X+X+X;.a h u u i h  ./.I.:.$.^./.^.S.S.l.k.^.j...g 6.@X",
"^ 9 $.I %.=...^ ^ Q ^ 7.Y Z ..>...5 a h a h a h 4.m.m.X.N h h h h a h } ,.M.N.Z 5 u u u u u ,.i.v.{ Z M #.V P I ! V Q u m 9 k Q ",
"H y ^ A ..&.q.g.n.f.q.w.M V } J.2.0 * 4 9 $ # $ b.3X3XY.V $ 4 0 $ $ $ 2.&X3X;X| $ * O : * O c.L.U.y.3.q.k.|.|.oX|.].8.{ u.l M d.",
"I E uXg.:.t.wXeX4X4X1Xw.:.2.q.F.T.0 $ 4 0 > f f V.-X-XU...9 > w 9 e > q.&X5X5X$.$ O $ 9 # # T.*X&Xm.m.Z.9.r.r.r.9.9.Z.:.h.l V d.",
"I p [..XD.9.D D D f j oXn.n.M.E.Y.u : 9 0 9 , e L.cXvX*X4.> > u 9 e # b.6XvXcX3.* O 9 > O * V.<X,Xm.J.I.r.. . . . , l.v.J.l V d.",
"I d <.#.Z./ o   o o , /.Z.M.m.*XQ.i 9 r u > e q Q.cXvX>X$.0 2 0 9 9 e T.7XvXcX3.$ > 4 & : # V.<X:Xg.F.].t.@ @ - = 3 .Xn.F.l B d.",
"&.9 &.Y D.9.o @ -   3 mX XN.c.*XQ.a u u r 9 < r E.vXvX>X:.u u a 0 q w T.7XvXvX,.u w 5 0 9 9 C.6X=X3.2.4X$X= o = = s NX*.:.r B 1.",
"..r ..' H.!.= = = , 3 VXZ. . .*XE.u r 9 u r e 0 W.vXvX-X:.9 5 u 9 0 0 V.7XvXvX2.> ; 4 9 # * C.7X:Xu.v.4XeX= = - - j NXm.P.p m  .",
"Y r <.2.{.(.= - = - 3 ZXXXM.c.=XE.u y > 0 x _ E &XvXvX,X:.r > 0 w w p Y.7XvXcX2.y O 4 q # # V.7X5Xg.A.kXeX- = - : j BXA. Xz M d.",
"U 9 M.m.1X(.= , : 3 f CX1Xm.m.-XE.u : > r e f w E.vXvX:X:.q < r q r 5 Q.7XvXvX,.> + 9 9 # * V.7X:XF.m.uX%X- - , : j NXA.R.z M u.",
"U 9 A.M.3X[.= = , = f VXXXA.n.-XE.u * % 4 > j 8 W.cXvX:X$.9 # 0 > 4 4 Y.gXvXcX2.q + 5 9 & $ V.6X:Xn.n.uX%X= = , = j BXF.`.l M 1.",
"U $ M.M.3X(.= = - = f VX|.D.c.=XW.u > % 4 % > 7 *XvXvX:X*.$ O 9 $ & 0 Q.7XvXcX2.q ; $ > : 4 V.7X,XF.M.iXeX: , , 2 j NXM.M.g B m.",
"-.* } 2.{.(.- ; ; < d VXP.2.:.*XW.a : : e # % % *XvXvX:X3.$ $ 0 7 q 4 L.gXvXvX3.> % $ $ O # V.7X:X .*.4X%X= : : - s mX .*.> m A ",
"k.$ -.n.3X(.= = - ; e VX'.c.2.-X&Xu q > 1 > < > W.cXvX:X*.> # 9 & 4 4 L.gXvXvX3.q 2 $ q > % N.7X:XF.g.uX%X, < , 2 j mXZ.J.l M 0.",
"Y 9 n.q.{.[.= ; , < f VX`.d.d.:XE.a 1 4 6 4 > r *XvXvX,X*.2 ; 5 9 9 0 Q.8XvXvX2.q & 4 5 1 1 V.7X5Xm.M.uX%X= : 2 ; s NXn.M.l N <.",
"I 4 n.q.XX_.o ; , # 3 VX`.m.n.>XE.u 7 7 6 5 1 r *XcXvX>X*.e 1 p y e 9 Q.gXvXcX2.1 & 4 7 $ > V.7X:Xm.M.uX%X+ - 2 : d mXn.F.l N q.",
"Y > J.2.{.[.= = , : s BX`.d.g.=XR.w & 1 q q & q *XgXcX:X$.$ e q > t q Y.7XvXcX3.& > & $ % 4 V.<X:Xd.A.iX%X= ; < ; x lXc.M.x m -.",
"Y 9 q.q.{.(.= = , = f BXH.1.i.*XW.w 1 # & $ % 5 *XjXjX-X*.> > 4 $ > q L.7XvXcX3.+ & $ # % & N.6X=X3.3.4X%X: ; - , s lX| $.q M :.",
"B 9 Y 3.XX[.; = ; : g VXG.2.:.*XE.4 * % 5 % + $ &XMXMX%X$.& & 7 9 4 4 L.7XcXcX3.* $ $ # * % T.6X,Xn.g.iXeX: ; < : x NXn.P.S F <.",
"&.9 A.P.wX_.o ; 2 ; f BX'.n.n.>XE.5 * & 5 & * $ &XnXnXyX$.7 4 q q 6 9 L.7XcXhX3.9 > e > % $ V.6X,Xm.g.wX%X+ : , : s bXf.P.Y Y <.",
"^ 9 A.m.2X(.o = = ; f BXH.q.q.=XE.q # & 7 & > > R.fX#X X$.q q e w q 9 V.6XcXcX<.: > > > # & N.6X:Xn.d.iX%X: , : : j lXd.P.F Y <.",
"U 9 A.A.wX[.; : ; < s BXH.q.2.=XE.q # $ 5 & # > R.qXgXU.L > c 4 9 y > Y.<XvXcX<.= > > > + % b.<X:Xn.d.4X$Xe e t d x sXn.I.J ^ <.",
"&.$ M.y.1X.XE ^ E ^ 9.lX`.q.q.*XR.5 % % q 9 $ & R.jXcXoX~ & 1 5 5 w & L.6XjXjX>.> 9 $ $ % & B.<X,X3.p.iXBXkXkXzXzXzXzX2.<.z P  .",
"W * { $.`.kXzXzXlXmXNXNXF.} 4.&XL.9 9 u u u w q R.jXjX X~ y t w w p p K.:XVXmX<.0 w u u p u m.-X:Xu.u.1XkXkXlXkXkXlXlXm.M.H ..$.",
"I & n.n.7.9.9.r.z.~.~.t.w.m.c.*Xg.G H K ^ E ~ ~ h.gXgXf.~ K ~ ! ~ ~ ~ =.I.ZXsX=.%.=.6.6.=._ _ m.:XF.-.` 6.6.` ` 5._ ( / -.R Y <.",
"P $ m.E E ~ W ~ E T U K J Q c.*X#.P U P U Y Y P ! gXjXh.! | ;.;.#.$.-.$.J.VXuX-.-.0.q.g.h.Z.A.R.:XZ. .;.<.0.0.d.f.g.w.;.I z m <.",
"F > q.B Y U Q Q ^ ^ ^ ! P B d.&XF.A.H./.H.H.n.g.n.8XjXU.f.D.G.G.G.S.D.g.].bXcX0.<.w.w.w.w.e.1.I.>Xm.X.L Q ^ ^ ^ Q Q L N ! L ! 1.",
"7.R q.U ^ %.%.#.%.^ ^ U M V 3.E...t d r w r t x $.8X8XM.N t t t t t t { E.iX8XI j j j y 2 e ;.R.-X1.>.*.G.Z.D.G.D.l.k.' | ( r.<.",
"-.W :.C ..-.e.w.e.w.0.q.B { *.&Xp.@   o = @   o b.8X8XL.M     @   X o >.:XcXgX..  @   @ @ @ -.>X>X:.:.d.z.| ;.;.#.;.8.| $./ r...",
"e.[ I | 2.7.| $. . . .w.*.>.3.E.V.@ + # @ + ; + Y.8XgXE.U + + + ; + + c.,XjXgX;.+ + + + + ; h.>X:Xg.g.g.1.u.d.u.<.d.d.1.q.t.[.7.",
"[.W n.y.q.2.d.d.c.q.c.q.n.q.c.&XK.= + o : + < + K.8X8X&X^ + @ : + : = M.6XjX9X*.+ @ : : ; + h.,X-Xn.c.d.2.c.n.d.c.c.d.g.n.w.t.<.",
"0XW A.1.0.q.q.q.q.<.q.q.d.0.2.U.L.: @ : e > X : Q.5X9X&X;.+ ; e > + , N.6X8X5X<.; + 2 2 > , h.:X=Xn.d.n.d.n.n.n.m.M.n.q.n._ #.0.",
"{.5.q.q.q.q.q.c.q.q.q.q.c.e.>.P.J.e y x x S l x `.-X4X].7.z z K K J K H.|.|.XXl.~ ^ ^ ~ ( %./.|.].c.d.m.n.c.d.d.n.2.1.:.*.E U $.",
"S.&.q.1.<.3.2.q.c.q.n.c.q.c.q./.XX'.XX+XOX+X2X0X4XwX2X2XoX2XqXqXiXkXrXiX2X+XwX4XtXrX+XXX+XoX2XXX'.X. . . .:.:.:.*.*.:.*.$.J W .."
};
