/* XPM */
static char *c370a0d77b0747c7c952642870957ee63k6DFfdZSQyGKwVJ[] = {
/* columns rows colors chars-per-pixel */
"64 64 213 2 ",
"   c black",
".  c #010101",
"X  c #020202",
"o  c gray1",
"O  c #040404",
"+  c #060606",
"@  c #070707",
"#  c gray3",
"$  c #090909",
"%  c gray4",
"&  c #0C0C0C",
"*  c gray5",
"=  c #0E0E0E",
"-  c gray6",
";  c #111111",
":  c gray7",
">  c #131313",
",  c #151515",
"<  c #161616",
"1  c gray9",
"2  c #191919",
"3  c gray10",
"4  c #1B1B1B",
"5  c gray11",
"6  c #1E1E1E",
"7  c gray12",
"8  c #202020",
"9  c #222222",
"0  c gray14",
"q  c gray15",
"w  c #272727",
"e  c #282828",
"r  c gray16",
"t  c #2A2A2A",
"y  c gray17",
"u  c #2C2C2C",
"i  c #2D2D2D",
"p  c gray18",
"a  c #2F2F2F",
"s  c gray19",
"d  c #313131",
"f  c #323232",
"g  c gray20",
"h  c #343434",
"j  c #353535",
"k  c gray21",
"l  c #373737",
"z  c gray22",
"x  c #393939",
"c  c #3A3A3A",
"v  c #3C3C3C",
"b  c gray24",
"n  c gray25",
"m  c #414141",
"M  c gray26",
"N  c #444444",
"B  c gray27",
"V  c gray28",
"C  c #484848",
"Z  c #494949",
"A  c gray29",
"S  c #4B4B4B",
"D  c #4C4C4C",
"F  c gray30",
"G  c #4E4E4E",
"H  c gray31",
"J  c #505050",
"K  c #515151",
"L  c #535353",
"P  c gray33",
"I  c #555555",
"U  c gray34",
"Y  c #585858",
"T  c gray35",
"R  c #5A5A5A",
"E  c #5B5B5B",
"W  c gray36",
"Q  c gray37",
"!  c #5F5F5F",
"~  c #606060",
"^  c #626262",
"/  c #646464",
"(  c #676767",
")  c #686868",
"_  c #696868",
"`  c DimGray",
"'  c #6A6A6A",
"]  c gray42",
"[  c #6C6C6C",
"{  c #717171",
"}  c #727172",
"|  c #727272",
" . c #747474",
".. c gray46",
"X. c #777777",
"o. c gray47",
"O. c #7C7C7C",
"+. c #7E7E7E",
"@. c #808080",
"#. c #818181",
"$. c gray51",
"%. c #838383",
"&. c gray52",
"*. c #868686",
"=. c gray53",
"-. c #888888",
";. c gray54",
":. c #8B8B8B",
">. c gray55",
",. c #8E8E8E",
"<. c #909090",
"1. c gray57",
"2. c #929292",
"3. c #939393",
"4. c gray58",
"5. c #959595",
"6. c gray59",
"7. c #979797",
"8. c #989898",
"9. c gray60",
"0. c #9A9A9A",
"q. c #9B9B9B",
"w. c gray61",
"e. c #9D9D9D",
"r. c gray62",
"t. c #A0A0A0",
"y. c gray63",
"u. c #A2A2A2",
"i. c gray64",
"p. c #A4A4A4",
"a. c #A5A5A5",
"s. c gray65",
"d. c #A7A7A7",
"f. c gray66",
"g. c #AAAAAA",
"h. c gray67",
"j. c #ACACAC",
"k. c #ADACAD",
"l. c #AFAFAF",
"z. c gray69",
"x. c #B2B2B2",
"c. c gray70",
"v. c #B4B4B4",
"b. c gray71",
"n. c #B7B7B7",
"m. c gray72",
"M. c #B9B8B8",
"N. c gray73",
"B. c #BBBBBB",
"V. c gray74",
"C. c gray",
"Z. c gray75",
"A. c #C0C0C0",
"S. c #C1C1C1",
"D. c gray76",
"F. c #C3C3C3",
"G. c gray77",
"H. c #C5C5C5",
"J. c #C6C6C6",
"K. c gray78",
"L. c #CACACA",
"P. c #CCCACB",
"I. c gray80",
"U. c #CDCDCD",
"Y. c #CECECE",
"T. c gray82",
"R. c #D2D2D2",
"E. c LightGray",
"W. c gray83",
"Q. c #D5D5D5",
"!. c gray84",
"~. c #D7D7D7",
"^. c #D8D8D8",
"/. c gray85",
"(. c #DADADA",
"). c gray86",
"_. c #DDDDDD",
"`. c gray87",
"'. c #DFDFDF",
"]. c gray88",
"[. c #E2E1E1",
"{. c #E2E2E2",
"}. c gray89",
"|. c #E4E4E4",
" X c gray90",
".X c #E7E5E6",
"XX c #E6E6E6",
"oX c gray91",
"OX c #E9E9E9",
"+X c #EAEAEA",
"@X c #ECECEC",
"#X c gray93",
"$X c #EEEEEE",
"%X c #EFEFEF",
"&X c gray94",
"*X c #F1F1F1",
"=X c gray95",
"-X c #F3F3F3",
";X c #F4F4F4",
":X c gray96",
">X c #F6F6F6",
",X c gray97",
"<X c #F8F8F8",
"1X c #F9F9F9",
"2X c #FAF9FA",
"3X c gray98",
"4X c #FBFBFB",
"5X c gray99",
"6X c #FDFDFD",
"7X c #FFFDFE",
"8X c #FEFEFE",
"9X c #FFFEFE",
"0X c white",
/* pixels */
"0X0X0X0X0X0X0X0X0X0X0X0X0X0X0X0X0X0X0X0X0X0X0X0X0X0X0X0X0X0X0X0X0X0X0X0X0X0X0X0X0X0X0X0X0X0X0X0X0X0X0X0X0X0X0X0X0X0X0X0X0X0X0X0X",
"0X0X0X0X0X0X0X0X0X0X0X0X0X0X0X0X0X0X0X0X0X0X0X0X0X0X0X0X0X0X0X0X0X0X0X0X0X0X0X0X0X0X0X0X0X0X0X0X0X0X0X0X0X0X0X0X0X0X0X0X0X0X0X0X",
"0X0X0X0X0X0X0X0X0X0X0X0X0X0X0X0X0X0X0X0X0X0X0X0X0X0X0X0X0X0X0X0X0X0X0X0X0X0X0X0X0X0X0X0X0X0X0X0X0X0X0X0X0X0X0X0X0X0X0X0X0X0X0X0X",
"0X0X0X0X0X0X0X0X0X0X0X0X0X0X0X0X0X0X0X0X0X0X0X0X0X0X0X0X0X0X0X0X0X0X0X0X0X0X0X0X0X0X0X0X0X0X0X0X0X0X0X0X0X0X0X0X0X0X0X0X0X0X0X0X",
"0X0X0X0X0X0X0X0X0X0X0X0X0X0X0X0X0X0X0X0X0X0X0X0X0X0X0X0X0X0X0X0X0X0X0X0X0X0X0X0X0X0X0X0X0X0X0X0X0X0X0X0X0X0X0X0X0X0X0X0X0X0X0X0X",
"0X0X0X0X0X0X0X0X0X0X0X0X0X0X0X0X0X0X0X0X0X0X0X0X0X0X0X0X0X0X0X0X0X0X0X0X0X0X0X0X0X0X0X0X0X0X0X0X0X0X0X0X0X0X0X0X0X0X0X0X0X0X0X0X",
"0X0X0X0X0X0X0X0X0X0X0X0X0X0X0X0X0XOXOX@.O.2.OX0X0X0X0X0X0X0X0X0X0X0X0X0X0X0X0X0X0X0X0X0X0X0X0X0X0X0X0X0X0X0X0X0X0X0X0X0X0X0X0X0X",
"0X0X0X0X0X0X0X0X0X0X0X0X0X0X0X0X!.% +     y P ,X0X0X0X0X0X0X0X0X0X0X0X0X0X0X0X0X0X0X0X0X0X0X0X0X0X0X0X0X0X0X0X0X0X0X0X0X0X0X0X0X",
"0X0X0X0X0X0X0X0X0X0X0X0X0X0X0X0X%X{       { 0.Z.0X0X0X0X0X0X0X0X0X0X0X0X0X0X0X0X0X0X0X0X0X0X0X0X0X0X0X0X0X0X0X0X0X0X0X0X0X0X0X0X",
"0X0X0X0X0X0X0X0X0X0X0X0X0X0X0X0X0Xt.y Q ,.%X0Xr.0X0X0X0X0X0X0X0X0X0X0X0X0X0X0X0X0X0X0X0X0X0X0X0X0X0X0X0X0X0X0X0X0X0X0X0X0X0X0X0X",
"0X0X0X0X0X0X0X0X0X0X0X0X0X0X0X0X0XR.G oX0Xs.3Xs.0X0X0X0X0X0X0X0X0X0X0X0X0X0X0X0X0X0X0X0X0X0X0X0X0X0X0X0X0X0X0X0X0X0X0X0X0X0X0X0X",
"0X0X0X0X0X0X0X0X0X0X0X0X0X0X0X0X0X0XI.G.F.0X).L.0X0X0X0X0X0X0X0X0X0X0X0X0X0X0X0X0X0X0X0X0X0X0X0X0X0X0X0X0X0X0X0X0X0X0X0X0X0X0X0X",
"0X0X0X0X0X0X0X0X0X0X0X0X0X0X0X0X0X-XJ.).n.t.t.0X0X0X0X0X0X0X0X0X0X0X0X0X0X0X0X0X0X0X0X0X0X0X0X0X0X0X0X0X0X0X0X0X0X0X0X0X0X0X0X0X",
"0X0X0X0X0X0X0X0X0X0X0X0X0X0X0X0X,X<X%Xt.v.r.OX0X0X0X0X0X0X0X0X0X0X0X0X0X0X0X0X0X0X0X0X0X0X0X0X0X0X0X0X0X0X0X0X0X0X0X0X0X0X0X0X0X",
"0X0X0X0X0X0X0X0X0X0X0X0X0X0X0X0X0X0X0X0X%X0X0X0X0X0X0X0X0X5X).7.T F P O.J.,X0X0X0X0X0X0X0X0X0X0X0X0X0X0X0X0X0X0X0X0X0X0X0X0X0X0X",
"0X0X0X0X0X0X0X0X0X0X0X0X0X0X0X0X0X0X0X0X0X0X0X0X0X0X0X0X).P %             k n.0X0X0X0X0X0X0X0X0X0X0X0X0X0X0X0X0X0X0X0X0X0X0X0X0X",
"0X0X0X0X0X0X0X0X0X0X0X0X0X0X0X0X0X0X0X0X0X0X0X0X0X0X0X>.%                     T %X0X0X0X0X0X0X0X0X0X0X0X0X0X0X0X0X0X0X0X0X0X0X0X",
"0X0X0X0X0X0X0X0X0X0X0X0X0X,X0X0X,X0X0X0X0X0X0X0X0X0X2.                          N 3X0X0X0X0X0X0X0X0X0X0X0X0X0X0X0X0X0X0X0X0X0X0X",
"0X0X0X0X0X0X0X0X0X0X0X0X0X-X0X,XF.0X0X0X0X0X0X0X0Xg.@           > 6 , +           T ,X0X0X0X0X0X0X0X0X0X0X0X0X0X0X0X0X0X0X0X0X0X",
"0X0X0X0X0X0X0X0X0X0X0X0X0X,X0X0XZ.0X0X0X0X0X0X0X{.2         * o.I.OX!.r.s         % 7.0X0X0X0X0X0X0X0X0X0X0X0X0X0X0X0X0X0X0X0X0X",
"0X0X0X0X0X0X0X0X0X0X0X0X0X,X0X0Xl.0X0X0X0X0X0X'.*.G       % N.0X0X0X0X0X Xx         6 ,X0X0X0X0X0X0X0X0X0X0X0X0X0X0X0X0X0X0X0X0X",
"0X0X0X0X0X0X0X0X0X0X0X0X0X-X0X0XZ.F.!.!.!.!.n.J.).3.*.  * z.0X0X0X0X0X0X0X'.y         o.0X0X0X0X0X0X0X0X0X0X0X0X0X0X0X0X0X0X0X0X",
"0X0X0X0X0X0X0X0X0X0X0X0X0X0X0X0X3X).R.R.R.R.z.0X-Xf._ } P.0X0X0X0X0X0X0X0X0Xg.        0  X0X0X0X0X0X0X0X0X0X0X0X0X0X0X0X0X0X0X0X",
"0X0X0X0X0X0X0X0X0X0X0X0X0X0X0X0X0X0X0X0X0X{.r.F.7.M..X5X0X0X0X0X0X0X0X0X0X0X0Xk         7.0X0X0X0X0X0X0X0X0X0X0X0X0X0X0X0X0X0X0X",
"0X0X0X0X0X0X0X0X0X0X0X0X0X0X0XI.g.z.l.t.t.o.!.{.j.0X2X[.0X0X0X0X0X0X0X0X0X0X0Xt.        P 0X0X0X0X0X0X0X0X0X0X0X0X0X0X0X0X0X0X0X",
"0X0X0X0X0X0X0X0X0X0X0X0X0X0X0X3X0X0X0X0X0X*.'.!.{ F 2 z.0X0X0X0X0X0X0X0X0X0X0XOX,       2 {.0X0X0X0X0X0X0X0X0X0X0X0X0X0X0X0X0X0X",
"0X0X0X0X0X0X0X0X0X0X0X0X0X0X0X3X0X0X0X0X0XZ.C >     & 2X0X0X0X0X0X0X0X0X0X0X0X0XM         F.0X0X0X0X0X0X0X0X0X0X0X0X0X0X0X0X0X0X",
"0X0X0X0X0X0X0X0X0X0X0X0X0X0X0X3X-X0X0X0X0XJ.*       x 0X0X0X0X0X0X0X0X0X0X0X0X0X2.        0.0X0X0X0X0X0X0X0X0X0X0X0X0X0X0X0X0X0X",
"0X0X0X0X0X0X0X0X0X0X0X0X0X0X0X,XQ ( r.Z.I.t.        ~ 0X0X0X0X0X0X0X0X0X0X0X0X0XZ.        ..0X0X0X0X0X0X0X0X0X0X0X0X0X0X0X0X0X0X",
"0X0X0X0X0X0X0X0X0X0X0X0X0X0X0X3Xx     % > O.        O.0X0X0X0X0X0X0X0X0X0X0X0X0X).        F 0X0X0X0X0X0X0X0X0X0X0X0X0X0X0X0X0X0X",
"0X0X0X0X0X0X0X0X0X0X0X0X0X0X0X3Xx         `         2.0X0X0X0X0X0X0X0X0X0X0X0X0X%X        k 0X0X0X0X0X0X0X0X0X0X0X0X0X0X0X0X0X0X",
"0X0X0X0X0X0X0X0X0X0X0X0X0X0X0X3Xx         Q         r.0X0X0X0X0X0X0X0X0X0X0X0X0X0X        0 0X0X0X0X0X0X0X0X0X0X0X0X0X0X0X0X0X0X",
"0X0X0X0X0X0X0X0X0X0X0X0X0X0X0X0Xx         T         s.0X0X0X0X0X0X0X0X0X0X0X0X0X0X+       2 0X0X0X0X0X0X0X0X0X0X0X0X0X0X0X0X0X0X",
"0X0X0X0X0X0X0X0X0X0X0X0X0X0X0X0Xk         T         s.0X0X0X0X0X0X0X0X0X0X0X0X0X0X%       2 0X0X0X0X0X0X0X0X0X0X0X0X0X0X0X0X0X0X",
"0X0X0X0X0X0X0X0X0X0X0X0X0X0X0X0Xk         Q         r.0X0X0X0X0X0X0X0X0X0X0X0X0X0X        8 0X0X0X0X0X0X0X0X0X0X0X0X0X0X0X0X0X0X",
"0X0X0X0X0X0X0X0X0X0X0X0X0X0X0X0Xk         `         2.0X0X0X0X0X0X0X0X0X0X0X0X0X,X        s 0X0X0X0X0X0X0X0X0X0X0X0X0X0X0X0X0X0X",
"0X0X0X0X0X0X0X0X0X0X0X0X0X0X0X0Xk         o.        @.0X0X0X0X0X0X0X0X0X0X0X0X0X{.        N 0X0X0X0X0X0X0X0X0X0X0X0X0X0X0X0X0X0X",
"0X0X0X0X0X0X0X0X0X0X0X0X0X0X0X0Xk         2.        ^ 0X0X0X0X0X0X0X0X0X0X0X0X0XJ.        ` 0X0X0X0X0X0X0X0X0X0X0X0X0X0X0X0X0X0X",
"0X0X0X0X0X0X0X0X0X0X0X0X0X0X0X0Xk         r.*       M 0X0X0X0X0X0X0X0X0X0X0X0X0Xr.        ,.0X0X0X0X0X0X0X0X0X0X0X0X0X0X0X0X0X0X",
"0X0X0X0X0X0X0X0X0X0X0X0X0X0X0X0Xs         r.6       > 0X0X0X0X0X0X0X0X0X0X0X0X0XT         z.0X0X0X0X0X0X0X0X0X0X0X0X0X0X0X0X0X0X",
"0X0X0X0X0X0X0X0X0X0X0X0X0X0X0X0Xs         ;.s         L.0X0X0X0X0X0X0X0X0X0X0X-X8       * !.0X0X0X0X0X0X0X0X0X0X0X0X0X0X0X0X0X0X",
"0X0X0X0X0X0X0X0X0X0X0X0X0X0X0X0Xk         T F         [ 0X0X0X0X0X0X0X0X0X0X0XZ.        M -X0X0X0X0X0X0X0X0X0X0X0X0X0X0X0X0X0X0X",
"0X0X0X0X0X0X0X0X0X0X0X0X0X0X0X0Xs         F [         y OX0X0X0X0X0X0X0X0X0X0XP         @.0X0X0X0X0X0X0X0X0X0X0X0X0X0X0X0X0X0X0X",
"0X0X0X0X0X0X0X0X0X0X0X0X0X0X0X0Xs         F k k         @.0X0X0X0X0X0X0X0X0XL.        2 !.0X0X0X0X0X0X0X0X0X0X0X0X0X0X0X0X0X0X0X",
"0X0X0X0X0X0X0X0X0X0X0X0X0X0X0X0Xs         F   [         2 R.0X0X0X0X0X0X0X-XM         T 0X0X0X0X0X0X0X0X0X0X0X0X0X0X0X0X0X0X0X0X",
"0X0X0X0X0X0X0X0X0X0X0X0X0X0X0X0Xs         F   M y         x -X0X0X0X0X0X0X{ +       + !.0X0X0X0X0X0X0X0X0X0X0X0X0X0X0X0X0X0X0X0X",
"0X0X0X0X0X0X0X0X0X0X0X0X0X0X0X0Xi         F   + {           s J.0X0X0X{.(           ` 0X0X0X0X0X0X0X0X0X0X0X0X0X0X0X0X0X0X0X0X0X",
"0X0X0X0X0X0X0X0X0X0X0X0X0X0X0X0Xi         F     C {           + s L v >           i  X0X0X0X0X0X0X0X0X0X0X0X0X0X0X0X0X0X0X0X0X0X",
"0X0X0X0X0X0X0X0X0X0X0X0X0X0X0X0Xi         F     N ,X(                           2 {.0X0X0X0X0X0X0X0X0X0X0X0X0X0X0X0X0X0X0X0X0X0X",
"0X0X0X0X0X0X0X0X0X0X0X0X0X0X0X0Xi         F     C 0X,XF                       8 !.0X0X0X0X0X0X0X0X0X0X0X0X0X0X0X0X0X0X0X0X0X0X0X",
"0X0X0X0X0X0X0X0X0X0X0X0X0X0X0X0Xy         F     N 0X0X3X2.6               > T -X0X0X0X0X0X0X0X0X0X0X0X0X0X0X0X0X0X0X0X0X0X0X0X0X",
"0X0X0X0X0X0X0X0X0X0X0X0X0X0X0X0Xy         8     C 0X0X0X0X'.*.C 8 , 2 k ` F.3X0X0X0X0X0X0X0X0X0X0X0X0X0X0X0X0X0X0X0X0X0X0X0X0X0X",
"0X0X0X0X0X0X0X0X0X0X0X0X0X0X0X0Xs.C ^ t.z.@.@.7.'.0X0X0X0X0X0X3XOX'.{.-X0X0X0X0X0X0X0X0X0X0X0X0X0X0X0X0X0X0X0X0X0X0X0X0X0X0X0X0X",
"0X0X0X0X0X0X0X0X0X0X0X0X0X0X0X0Xx O.s + s ^ 0   T ,X0X0X0X0X0X0X0X0X0X0X0X0X0X0X0X0X0X0X0X0X0X0X0X0X0X0X0X0X0X0X0X0X0X0X0X0X0X0X",
"0X0X0X0X0X0X0X0X0X0X0X0X0X0X0X0XL L       6 g.( N.3X0X0X0X0X0X0X0X0X0X0X0X0X0X0X0X0X0X0X0X0X0X0X0X0X0X0X0X0X0X0X0X0X0X0X0X0X0X0X",
"0X0X0X0X0X0X0X0X0X0X0X0X0X0X0X0Xt.( F k 2 0.3X'.0.r.N.0X0X0X0X0X0X0X0X0X0X0X0X0X0X0X0X0X0X0X0X0X0X0X0X0X0X0X0X0X0X0X0X0X0X0X0X0X",
"0X0X0X0X0X0X0X0X0X0X0X0X0X0X0X0X0X0XOXJ.7.....7.OX%X0X0X0X0X0X0X0X0X0X0X0X0X0X0X0X0X0X0X0X0X0X0X0X0X0X0X0X0X0X0X0X0X0X0X0X0X0X0X",
"0X0X0X0X0X0X0X0X0X0X0X0X0X0X0X0X0X0X0X0X0X0X0X0X0X0X0X0X0X0X0X0X0X0X0X0X0X0X0X0X0X0X0X0X0X0X0X0X0X0X0X0X0X0X0X0X0X0X0X0X0X0X0X0X",
"0X0X0X0X0X0X0X0X0X0X0X0X0X0X0X0X0X0X0X0X0X0X0X0X0X0X0X0X0X0X0X0X0X0X0X0X0X0X0X0X0X0X0X0X0X0X0X0X0X0X0X0X0X0X0X0X0X0X0X0X0X0X0X0X",
"0X0X0X0X0X0X0X0X0X0X0X0X0X0X0X0X0X0X0X0X0X0X0X0X0X0X0X0X0X0X0X0X0X0X0X0X0X0X0X0X0X0X0X0X0X0X0X0X0X0X0X0X0X0X0X0X0X0X0X0X0X0X0X0X",
"0X0X0X0X0X0X0X0X0X0X0X0X0X0X0X0X0X0X0X0X0X0X0X0X0X0X0X0X0X0X0X0X0X0X0X0X0X0X0X0X0X0X0X0X0X0X0X0X0X0X0X0X0X0X0X0X0X0X0X0X0X0X0X0X",
"0X0X0X0X0X0X0X0X0X0X0X0X0X0X0X0X0X0X0X0X0X0X0X0X0X0X0X0X0X0X0X0X0X0X0X0X0X0X0X0X0X0X0X0X0X0X0X0X0X0X0X0X0X0X0X0X0X0X0X0X0X0X0X0X",
"0X0X0X0X0X0X0X0X0X0X0X0X0X0X0X0X0X0X0X0X0X0X0X0X0X0X0X0X0X0X0X0X0X0X0X0X0X0X0X0X0X0X0X0X0X0X0X0X0X0X0X0X0X0X0X0X0X0X0X0X0X0X0X0X",
"0X0X0X0X0X0X0X0X0X0X0X0X0X0X0X0X0X0X0X0X0X0X0X0X0X0X0X0X0X0X0X0X0X0X0X0X0X0X0X0X0X0X0X0X0X0X0X0X0X0X0X0X0X0X0X0X0X0X0X0X0X0X0X0X"
};
