/* XPM */
static char *cffccd21589b4bd7a98cf939f7c7d1c8vHbPfwPZJWCLUlSB[] = {
/* columns rows colors chars-per-pixel */
"64 64 174 2 ",
"   c #000000",
".  c #010208",
"X  c #040B0A",
"o  c #0B0B0B",
"O  c #0B1E1C",
"+  c #071719",
"@  c #141414",
"#  c #1B1B1B",
"$  c #1A1A21",
"%  c #0B2224",
"&  c #0C2B2E",
"*  c #072322",
"=  c #232323",
"-  c #2B2B2B",
";  c #242E2F",
":  c #293030",
">  c #283B3C",
",  c #343434",
"<  c #3B3B3B",
"1  c #363C3C",
"2  c #0E2F59",
"3  c #13355B",
"4  c #0E3863",
"5  c #0D3362",
"6  c #143D63",
"7  c #134242",
"8  c #13494B",
"9  c #1A5051",
"0  c #15585A",
"q  c #3D4C4C",
"w  c #186F6F",
"e  c #156F71",
"r  c #16787A",
"t  c #424242",
"y  c #464648",
"u  c gray29",
"i  c #494C53",
"p  c #435E5F",
"a  c #455555",
"s  c #545454",
"d  c #5C5C5D",
"f  c #416162",
"g  c #5C6E6E",
"h  c #427C79",
"j  c #626363",
"k  c #6A6767",
"l  c #646A6A",
"z  c #6A6A6A",
"x  c gray45",
"c  c #175795",
"v  c #11878A",
"b  c #128A8E",
"n  c #158281",
"m  c #158D90",
"M  c #169A9D",
"N  c #1A9B9D",
"B  c #169396",
"V  c #3F8484",
"C  c #269C9E",
"Z  c #319A9D",
"A  c #179EA0",
"S  c #1A9EA1",
"D  c #209CA0",
"F  c #16A5A7",
"G  c #1AA6A7",
"H  c #1AADAE",
"J  c #15AFB2",
"K  c #1CAEB3",
"L  c #18B8B5",
"P  c #17B6B8",
"I  c #1CB5B9",
"U  c #16BABB",
"Y  c #1BBBBD",
"T  c #18B2B4",
"R  c #29A5A7",
"E  c #24A9AB",
"W  c #28A8AD",
"Q  c #24A1A5",
"!  c #32AFAE",
"~  c #37A3A4",
"^  c #31AFB1",
"/  c #26B3B4",
"(  c #29B6B7",
")  c #33B2B5",
"_  c #3BB8BA",
"`  c #538281",
"'  c #469A9A",
"]  c #519B9A",
"[  c #6B9796",
"{  c #40A09E",
"}  c #49A4A5",
"|  c #44ACAE",
" . c #4BAAAA",
".. c #5DA3A4",
"X. c #54A8A7",
"o. c #53A5A6",
"O. c #41B0AF",
"+. c #41B6B5",
"@. c #46BBBA",
"#. c #57BABD",
"$. c #6DADAC",
"%. c #62ACAF",
"&. c #7EA8A4",
"*. c #79ACAF",
"=. c #6BB1AF",
"-. c #7DB1AF",
";. c #61B6B7",
":. c #65B7BA",
">. c #70B0B2",
",. c #7EB0B2",
"<. c #74B7B8",
"1. c #7CBFBE",
"2. c #1AC0BF",
"3. c #15BEC1",
"4. c #1ABDC4",
"5. c #0FC5C4",
"6. c #13C2C7",
"7. c #19C0C1",
"8. c #12C3C8",
"9. c #26C3C7",
"0. c #2AC5C7",
"q. c #44C6C9",
"w. c #848484",
"e. c #8E8E8E",
"r. c #959595",
"t. c gray60",
"y. c #8EABAB",
"u. c #91A6A9",
"i. c #94A7A8",
"p. c #82B2B2",
"a. c #8EB6B6",
"s. c #92B5B7",
"d. c #99B7B7",
"f. c #9CBDBF",
"g. c gray64",
"h. c #A5ACAD",
"j. c #ADAEAE",
"k. c #B2B5B5",
"l. c #B7B9B6",
"z. c #B7B8B8",
"x. c #BABBBB",
"c. c #A7BAB8",
"v. c #B1C0BF",
"b. c #90BCC0",
"n. c #98C2C2",
"m. c #A5C2C4",
"M. c #ACCACB",
"N. c #B7C4C5",
"B. c #B4D4D6",
"V. c #C4C4C5",
"C. c #CACACA",
"Z. c #C3D4D5",
"A. c #C7D5D6",
"S. c #D6D7D7",
"D. c #D3D8D6",
"F. c #D8D8D7",
"G. c #DDDFDF",
"H. c #D2DCDB",
"J. c #DFDFE1",
"K. c #DCE3E3",
"L. c #DFE8E8",
"P. c #E4E4E3",
"I. c #E7E6E8",
"U. c #E5EAEA",
"Y. c #EAEBEC",
"T. c #EEF1F2",
"R. c #F6F7F7",
"E. c #F2F4F4",
"W. c #F5F7F8",
"Q. c #FBFBFB",
"!. c white",
"~. c #FEFEFE",
"^. c #FDFEFE",
"/. c #FEFEFE",
/* pixels */
"                                                                                                                                ",
"                                                                                                                                ",
"3 3 5 @ = - = # - = o @ # @ @                                                                                                   ",
"c c c i e.x r.k r.d o < < < , = # - = - - @                                                                                     ",
"4 6 4 $ : - - , - = o = = = = # # = = = @ X                                                                                     ",
"  . .     .                                                                                                                     ",
"                                                                                                                                ",
"                                                                                                                                ",
"                                                                                                                                ",
"                        # x @                                                                                                   ",
"                      X k C.e.o                                                                                                 ",
"                        t x.Y.w.-                                                                                               ",
"                        X w.S.Q.I.,                                                                                             ",
"                          , k.E./.d                                                                                             ",
"                          o e.J.Q.w.-                                                                                           ",
"                            t g.d o t X                                                                                         ",
"                            @ s ,   o t o                                                                                       ",
"                              t d     - ,                                                                                       ",
"                              = j #   o , @                                                                                     ",
"                                , u     @ <                                                                                     ",
"                                X k @     - #                                                                                   ",
"                                  < y     X < X                                                                                 ",
"                                  @ k o     - #                                                                                 ",
"                                    u ,     o < X                                                                               ",
"                                    , s #     = <                                                                               ",
"                                      d ,     X t o                                                                             ",
"                                      t s o     @ ,                                                                             ",
"                                      @ s =       < @                                                                           ",
"                                        , u       X y                                                                           ",
"                                        @ s #       @ < o                                                                       ",
"                                          u <         < ,                                                                       ",
"                                          # d o         - ,                                                                     ",
"                                            u ,           - =                                                                   ",
"                                            # j #           < @                                                                 ",
"                                            o s y           @ ,                                                                 ",
"                                              # x o           , -                                                   .           ",
"X X X X X X X X X X X X X X X X X X X X X X X X : d           @ u X X X X X X X X X X X X X o o X X X X X X X X X X X X . . X   ",
"M M M M M M M M M M M M M N M M M M M M M M M M M ;.@       @ x V.h M M M M M M M M M C ` q 1 f ` S M M M M M M M M B m m b b v ",
"8.6.8.8.6.6.8.8.8.8.8.8.8.8.8.6.8.6.8.8.8.6.8.8.8.9.f     # t.W.Q.B.Z 7.8.6.8.8.6.6.8.} >     o > #.6.5.5.5.3.8.5.5.6.6.8.6.8.8.",
"6.8.8.8.6.8.8.8.7.6.6.6.7.8.8.6.6.8.8.8.6.6.8.8.8.8.@.= k P././././.Y.y.] G 6.8.8.8.9.;         . g _ 2.3.8.8.3.3.6.6.6.6.6.6.6.",
"6.6.6.6.6.6.6.8.6.6.6.6.6.6.6.6.6.6.6.6.6.6.6.8.6.6.6.<.U././././././././.K.d.o.C 4.q..   - X   @ I.` 6.5.8.8.8.8.8.3.8.8.8.8.8.",
"6.6.6.6.6.6.6.6.6.6.6.6.6.6.6.6.6.6.6.6.6.6.6.6.6.6.6.Y X.U././././././././././.E.v.y.j l S.s # t.Q.g 7.3.8.8.3.3.3.5.8.8.3.8.3.",
"6.6.6.6.6.6.6.6.6.6.6.6.6.6.6.6.6.6.6.6.6.6.6.6.6.6.6.8.I =.L./././././././././././.P.V.x.P.S.V.l.Y.a 4.8.8.8.8.8.8.3.3.3.8.8.3.",
"6.6.6.8.6.6.6.6.6.6.6.6.6.6.6.6.6.6.6.8.6.6.6.6.6.6.6.6.8.3.| M.Y./././././././././.^.^.Y.t.G.^.T.p.) 3.5.8.8.8.8.8.8.8.8.8.3.5.",
"6.6.6.6.6.6.6.6.6.6.6.6.6.6.6.6.8.8.6.6.6.6.6.6.6.6.6.6.6.8.3.I | n.K.Q./././././.I.Q././.R.j.[  .I 6.6.8.8.8.8.8.8.8.8.8.3.8.8.",
"6.6.6.6.8.6.6.6.6.6.6.6.6.6.6.6.8.7.6.6.8.6.6.6.6.6.6.6.6.6.6.6.8.U ) %.b.A.K.Y.R.J.x.S.Q./.Q.A.>./ 5.2.8.8.8.3.3.8.8.3.8.8.8.8.",
"6.6.6.6.6.6.6.7.6.6.6.6.6.6.6.6.6.6.6.6.6.8.6.6.6.6.6.6.6.6.6.6.8.6.8.6.Y Q } $.-.s.k.j.V.Q././.W.a.R 2.3.8.8.8.8.8.3.8.8.8.8.8.",
"6.6.6.6.6.8.8.8.6.6.6.6.6.6.6.6.6.6.6.6.6.6.6.6.6.6.6.6.6.6.6.6.8.8.6.6.6.8.8.6.6.6.E a.A.l.P./././.U.,.R 3.5.8.8.8.5.8.8.8.3.8.",
"6.6.6.6.6.6.6.6.6.6.6.6.6.6.6.6.6.6.6.6.6.6.6.6.6.6.6.6.8.8.8.6.6.6.6.6.6.6.6.6.6.6.8.6.W p.x.x.F./././.E.f.' L 8.8.6.6.6.6.6.6.",
"6.6.6.6.6.6.6.6.6.6.6.6.6.6.6.6.6.6.6.6.6.6.6.6.6.6.6.6.8.3.8.6.6.6.6.6.6.6.6.6.6.6.6.6.6.6.E $.y.x.C./././.Q.M.-.C 2.6.6.6.6.6.",
"6.6.6.6.6.6.6.6.6.6.6.6.6.6.6.6.6.6.6.6.6.6.6.6.6.6.6.6.6.6.6.6.6.6.6.6.6.6.6.6.6.6.6.6.6.6.8.P ) ..y.h.C.I././.P.c.1._ Y 6.6.6.",
"6.6.6.6.6.6.6.6.6.6.6.6.6.6.6.6.6.6.6.6.6.6.6.6.6.6.6.6.6.6.8.6.6.6.6.6.6.6.6.6.6.6.6.6.6.6.8.6.8.7.T ! ' [ i.N.y.f.D.H.B.:.( 7.",
"6.6.6.6.6.6.6.6.6.6.6.6.6.6.6.6.6.6.6.6.8.8.8.3.4.8.6.6.6.6.6.6.6.6.6.6.6.6.6.6.6.6.6.6.6.6.6.6.6.6.6.6.6.3.K D E U ' v.h.m.m...",
"6.8.6.6.6.6.6.8.6.6.6.6.6.6.6.6.6.6.6.6.6.8.8.8.8.8.6.8.6.6.6.6.6.6.6.6.6.6.6.6.6.6.6.6.8.8.6.6.6.6.6.6.6.6.8.6.8.8.7.! X.K ( ) ",
"6.6.2.7.2.6.Y 6.6.6.6.6.6.6.6.6.8.8.6.6.6.8.8.8.8.8.4.8.6.8.6.6.6.6.6.6.6.6.6.6.6.6.6.6.4.8.6.6.6.6.6.6.6.6.6.6.8.8.6.6.U 6.6.6.",
"8.N * M e 0 O A 6.6.6.6.6.6.6.6.8.8.3.6.6.6.8.8.8.8.8.8.6.6.6.6.6.6.6.6.6.6.6.6.6.6.6.6.8.6.6.6.6.6.6.6.6.6.6.6.8.8.6.6.6.6.6.6.",
"M O B 6.P r & J 6.6.6.6.6.6.6.6.6.6.6.6.6.6.8.8.6.6.6.6.6.6.8.6.6.6.6.6.6.6.6.6.6.6.6.6.6.6.6.6.6.6.6.6.6.6.6.6.6.6.6.6.6.6.6.6.",
"+ 9 n M r % M 3.6.6.6.6.6.6.6.6.6.6.6.6.6.6.4.6.6.6.6.6.6.6.6.6.8.6.6.6.6.6.6.6.6.6.8.6.6.6.6.6.6.6.6.6.6.6.6.6.6.6.6.6.6.6.6.6.",
"O & O 8 0 & w G 6.6.6.6.6.6.6.6.6.6.8.8.6.6.6.6.6.8.6.6.6.6.6.6.8.4.6.6.6.6.6.6.6.6.6.8.6.6.6.6.6.6.6.6.6.6.6.6.6.6.6.6.6.6.6.6.",
"J K 7 7 N M M Y 6.8.6.6.6.6.6.6.6.6.6.8.6.6.6.6.8.4.8.6.6.6.6.6.8.8.6.6.6.6.8.6.6.6.6.6.6.6.8.6.6.6.6.6.6.6.6.6.6.6.6.6.6.6.6.6.",
"6.8.N M H S m N C S 8.6.6.6.6.6.6.6.8.8.6.6.6.8.8.6.6.6.8.6.6.6.6.6.6.6.6.6.6.6.6.6.6.6.8.6.6.6.6.6.6.6.6.6.6.6.6.6.6.6.6.6.6.6.",
"6.6.8.8.P T F H H K 6.6.6.6.6.6.6.6.4.8.6.6.6.6.6.6.6.6.6.6.6.6.6.6.6.6.6.6.8.6.8.8.6.6.6.6.6.6.6.6.6.6.6.6.6.6.6.6.6.6.6.6.6.6.",
"6.6.6.6.6.6.8.8.3.8.6.6.6.6.6.6.6.6.6.8.6.6.6.6.6.6.6.8.6.6.4.8.6.6.8.6.6.6.6.6.8.4.6.6.6.6.6.6.8.6.6.6.6.6.6.6.6.6.6.6.6.6.6.6.",
"6.8.6.6.6.6.6.8.8.8.6.6.6.6.6.6.6.6.6.6.6.6.6.6.6.6.6.6.6.6.8.6.6.8.6.6.6.6.6.6.6.6.6.6.6.6.6.6.6.6.6.6.6.6.6.6.6.6.8.6.6.6.6.6."
};
