/* XPM */
static char *_c45e4648b37426eefcce64767279bb2aNENvvbvjinHYoK1[] = {
/* columns rows colors chars-per-pixel */
"64 64 212 2 ",
"   c black",
".  c #010101",
"X  c #020202",
"o  c gray1",
"O  c #040404",
"+  c gray2",
"@  c #060606",
"#  c #070707",
"$  c gray3",
"%  c #090909",
"&  c gray4",
"*  c #0C0C0C",
"=  c gray5",
"-  c #0E0E0E",
";  c gray6",
":  c #101010",
">  c #111111",
",  c gray7",
"<  c gray8",
"1  c #151515",
"2  c #161616",
"3  c gray9",
"4  c #181818",
"5  c #191919",
"6  c gray10",
"7  c #1B1B1B",
"8  c gray11",
"9  c #1D1D1D",
"0  c #1E1E1E",
"q  c #202020",
"w  c gray13",
"e  c #222222",
"r  c #232323",
"t  c gray14",
"y  c #252525",
"u  c gray15",
"i  c #272727",
"p  c #282828",
"a  c gray16",
"s  c #2A2A2A",
"d  c gray17",
"f  c #2C2C2C",
"g  c #2D2D2D",
"h  c #2F2F2F",
"j  c gray19",
"k  c gray20",
"l  c #343434",
"z  c #353535",
"x  c gray21",
"c  c #373737",
"v  c gray22",
"b  c #393939",
"n  c #3A3A3A",
"m  c gray23",
"M  c #3C3C3C",
"N  c gray24",
"B  c #3E3E3E",
"V  c gray25",
"C  c gray26",
"Z  c #434343",
"A  c #444444",
"S  c gray27",
"D  c #464646",
"F  c #494949",
"G  c gray29",
"H  c #4B4B4B",
"J  c #4C4C4C",
"K  c gray30",
"L  c gray31",
"P  c #505050",
"I  c #535353",
"U  c gray33",
"Y  c #555555",
"T  c #565656",
"R  c gray34",
"E  c #585858",
"W  c gray35",
"Q  c #5A5A5A",
"!  c gray36",
"~  c #5D5D5D",
"^  c #5F5F5F",
"/  c #606060",
"(  c gray38",
")  c #626262",
"_  c gray39",
"`  c #646464",
"'  c #656565",
"]  c gray40",
"[  c #676767",
"{  c #686868",
"}  c DimGray",
"|  c #6A6A6A",
" . c #6C6C6C",
".. c #6D6D6D",
"X. c #6F6F6F",
"o. c gray44",
"O. c #717171",
"+. c #727272",
"@. c gray45",
"#. c #747474",
"$. c #767676",
"%. c #777777",
"&. c gray47",
"*. c #797979",
"=. c #7B7B7B",
"-. c #7C7C7C",
";. c gray49",
":. c #7E7E7E",
">. c #808080",
",. c #838383",
"<. c #848484",
"1. c gray52",
"2. c #868686",
"3. c #898989",
"4. c gray54",
"5. c #8B8B8B",
"6. c gray55",
"7. c #8D8D8D",
"8. c #8E8E8E",
"9. c gray56",
"0. c #909090",
"q. c #929292",
"w. c #939393",
"e. c gray58",
"r. c #959595",
"t. c #979797",
"y. c #989898",
"u. c gray60",
"i. c #9B9B9B",
"p. c #9D9D9D",
"a. c gray62",
"s. c #9F9F9F",
"d. c #A0A0A0",
"f. c gray64",
"g. c #A4A4A4",
"h. c #A5A5A5",
"j. c gray65",
"k. c #A7A7A7",
"l. c #AAAAAA",
"z. c gray67",
"x. c #ACACAC",
"c. c gray68",
"v. c #AEAEAE",
"b. c gray69",
"n. c #B1B1B1",
"m. c #B2B2B2",
"M. c gray70",
"N. c #B4B4B4",
"B. c gray72",
"V. c #B9B9B9",
"C. c gray73",
"Z. c #BBBBBB",
"A. c #BCBCBC",
"S. c gray74",
"D. c gray",
"F. c gray75",
"G. c #C0C0C0",
"H. c #C3C3C3",
"J. c gray77",
"K. c #C5C5C5",
"L. c #C6C6C6",
"P. c gray78",
"I. c #C8C8C8",
"U. c gray79",
"Y. c #CBCBCB",
"T. c gray80",
"R. c #CDCDCD",
"E. c #CECECE",
"W. c gray81",
"Q. c #D0D0D0",
"!. c gray82",
"~. c #D2D2D2",
"^. c LightGray",
"/. c gray83",
"(. c #D5D5D5",
"). c gray84",
"_. c #D7D7D7",
"`. c gray85",
"'. c #DADADA",
"]. c gray86",
"[. c #DDDDDD",
"{. c gray87",
"}. c #DFDFDF",
"|. c #E1E1E1",
" X c #E2E2E2",
".X c gray89",
"XX c gray90",
"oX c #E6E6E6",
"OX c #E7E7E7",
"+X c gray91",
"@X c #EAEAEA",
"#X c gray92",
"$X c #ECECEC",
"%X c gray93",
"&X c #EEEEEE",
"*X c #EFEFEF",
"=X c gray94",
"-X c #F1F1F1",
";X c gray95",
":X c #F3F3F3",
">X c #F4F4F4",
",X c gray96",
"<X c #F6F6F6",
"1X c gray97",
"2X c #F8F8F8",
"3X c #F9F9F9",
"4X c gray98",
"5X c #FBFBFB",
"6X c gray99",
"7X c #FDFDFD",
"8X c #FEFEFE",
"9X c white",
/* pixels */
"9X9X9X9X9X9X9X9X9X9X9X9X9X9X9X9X9X9X9X9X9X9X9X9X9X9X9X9X9X9X9X9X9X9X9X9X9X9X9X9X9X9X9X9X9X9X9X9X9X9X9X9X9X9X9X9X9X9X9X9X9X9X9X9X",
"9X9X9X9X9X9X9X9X9X9X9X9X9X9X9X9X9X9X9X9X9X9X9X9X9X9X9X9X9X9X9X9X9X9X9X9X9X9X9X9X9X9X9X9X9X9X9X9X9X9X9X9X9X9X9X9X9X9X9X9X9X9X9X9X",
"9X9X9X9X9X9X9X9X9X9X9X9X9X9X9X9X9X9X9X9X9X9X9X9X9X9X9X9X9X9X9X9X9X9X9X9X9X9X9X9X9X9X9X9X9X9X9X9X9X9X9X9X9X9X9X9X9X9X9X9X9X9X9X9X",
"9X9X9X9X9X9X9X9X9X9X9X9X9X9X9X9X9X9X9X9X9X9X9X9X9X9X9X9X9X9X9X9X9X9X9X9X9X9X9X9X9X9X9X9X9X9X9X9X9X9X9X9X9X9X9X9X9X9X9X9X9X9X9X9X",
"9X9X9X9X9X9X9X9X9X9X9X9X9X9X9X9X9X9X9X9X9X9X9X9X9X9X9X9X9X9X9X9X9X9X9X9X9X9X9X9X9X9X9X9X9X9X9X9X9X9X9X9X9X9X9X9X9X9X9X9X9X9X9X9X",
"9X9X9X9X9X9X9X9X9X9X9X9X9X9X9X9X9X9X9X9X9X9X9X9X9X9X9X9X9X9X9X9X9X9X9X9X9X9X9X9X9X9X9X9X9X9X9X9X9X9X9X9X9X9X9X9X9X9X9X9X9X9X9X9X",
"9X9X9X9X9X9X9X9X9X9X9X9X9X9X9X9X9X9X9X9X9X9X9X9X9X9X9X9X9X9X9X9X9X9X9X9X9X9X9X9X9X9X9X9X9X9X9X9X9X9X9X9X9X9X9X9X9X9X9X9X9X9X9X9X",
"9X9X9X9X9X9X9X9X9X9X9X9X9X9X9X9X9X9X9X9X9X9X9X9X9X9X9X9X9X9X9X9X9X9X9X9X9X9X9X9X9X9X9X9X9X9X9X9X9X9X9X9X9X9X9X9X9X9X9X9X9X9X9X9X",
"9X9X9X9X9X9X9X9X9X9X9X9X9X9X9X9X9X9X9X9X9X9X9X9X9X9X9X9X9X9X9X9X9X9X9X9X9X9X9X9X9X9X9X9X9X9X9X9X9X9X9X9X9X9X9X9X9X9X9X9X9X9X9X9X",
"9X9X9X9X9X9X9X9X9X9X9X9X9X9X9X9X9X9X9X9X9X9X9X9X9X9X9X9X9X9X9X9X9X9X9X9X9X9X9X9X9X9X9X9X9X9X9X9X9X9X9X9X9X9X9X9X9X9X9X9X9X9X9X9X",
"9X9X9X9X9X9X9X9X9X9X9X9X9X9X9X9X9X9X9X9X9X9X9X9X9X9X9X9X9X9X9X9X9X9X9X9X9X9X9X9X9X9X9X9X9X9X9X9X9X9X9X9X9X9X9X9X9X9X9X9X9X9X9X9X",
"9X9X9X9X9X9X9X9X9X9X9X9X9X9X9X9X9X9X9X9X9X9X9X9X9X9X9X9X9X9X9X9X9X9X9X9X9X9X9X9X9X9X9X9X9X9X9X9X9X9X9X9X9X9X9X9X9X9X9X9X9X9X9X9X",
"9X9X9X9X9X9X9X9X9X9X9X9X9X9X9X9X9X9X9X9X9X9X9X9X&XV.e.$.` ` N.9X9X9X9X9X9X9X9X9X9X9X9X9X9X9X9X9X9X9X9X9X9X9X9X9X9X9X9X9X9X9X9X9X",
"9X9X9X9X9X9X9X9X9X9X9X9X9X9X9X9X9X9X9X9X9X9XY.) i %         ;.9X9X9X9X9X9X9X9X9X9X9X9X9X9X9X9X9X9X9X9X9X9X9X9X9X9X9X9X9X9X9X9X9X",
"9X9X9X9X9X9X9X9X9X9X9X9X9X9X9X9X9X9X9X9X}.F +       + 9 9   &.9X9X9X9X9X9X9X9X9X9X9X9X9X9X9X9X9X9X9X9X9X9X9X9X9X9X9X9X9X9X9X9X9X",
"9X9X9X9X9X9X9X9X9X9X9X9X9X9X9X9X9X9X9Xg.5       5 Q ` x 5   ;.9X9X9X9X9X9X9X9X9X9X9X9X9X9X9X9X9X9X9X9X9X9X9X9X9X9X9X9X9X9X9X9X9X",
"9X9X9X9X9X9X9X9X9X9X9X9X9X9X9X9X9X4XO.      i { v           ;.9X9X9X9X9X9X9X9X9X9X9X9X9X9X9X9X9X9X9X9X9X9X9X9X9X9X9X9X9X9X9X9X9X",
"9X9X9X9X9X9X9X9X9X9X9X9X9X9X9X9X9X,.      Q Z +             &.9X9X9X9X9X9X9X9X9X9X9X9X9X9X9X9X9X9X9X9X9X9X9X9X9X9X9X9X9X9X9X9X9X",
"9X9X9X9X9X9X9X9X9X9X9X9X9X9X9X9Xz.+   ; ` 5               % 3.9X9X9X9X9X9X9X9X9X9X9X9X9X9X9X9X9X9X9X9X9X9X9X9X9X9X9X9X9X9X9X9X9X",
"9X9X9X9X9X9X9X9X9X9X9X9X9X9X9X=X9   ; ~ 5           + v Z Z T ) &.g.XX9X9X9X9X9X9X9X9X9X9X9X9X9X9X9X9X9X9X9X9X9X9X9X9X9X9X9X9X9X",
"9X9X9X9X9X9X9X9X9X9X9X9X9X9X9X9.    ~ 5           a L q %           i ;.=X9X9X9X9X9X9X9X9X9X9X9X9X9X9X9X9X9X9X9X9X9X9X9X9X9X9X9X",
"9X9X9X9X9X9X9X9X9X9X9X9X9X9XXX3   F i         + T x                     a Y.9X9X9X9X9X9X9X9X9X9X9X9X9X9X9X9X9X9X9X9X9X9X9X9X9X9X",
"9X9X9X9X9X9X9X9X9X9X9X9X9X9X3.  3 I           ` h                         i ^.9X9X9X9X9X9X9X9X9X9X9X9X9X9X9X9X9X9X9X9X9X9X9X9X9X",
"9X9X9X9X9X9X9X9X9X9X9X9X9X9Xa   ~ ;         T x         + a { X.x +         q &X9X9X9X9X9X9Xz.S.9X9X9X9X9X9X9X9X9X9X9X9X9X9X9X9X",
"9X9X9X9X9X9X9X9X9X9X9X9X9X^.    T         i T         3 g.1X9X9X4XS.5         ) 4X9X9X9X9XXXE.9X9X9X9X9X9X9X9X9X9X9X9X9X9X9X9X9X",
"9X9X9X9X9X9X9X9X9X9X9X9X9X;.  v 3         ~ ;       ; J.9X9X9X9X9X9X^.q       + V.9X9X9X9X'.).^.J.).9X9X9X9X9X9X9X9X9X9X9X9X9X9X",
"9X9X9X9X9X9X9X9X9X9X9X9X9XF   ~         , F         &.9X9X9X9X9X9X9X9Xg.%       N 9X9X9X9X^.e.).4XE.S.9X9X9X9X9X9X9X9X9X9X9X9X9X",
"9X9X9X9X9X9X9X9X9X9X9X9X=Xq + {         ` %       j &X9X9X9X9X9X9X9X9X9XT         H.9X9X9X'.^.).9XY.'.}.9X9X9X9X9X9X9X9X9X9X9X9X",
"9X9X9X9X9X9X9X9X9X9X9X9XE., 3 D         T         9.9X9X9X9X9X9X9X9X9X9XH.        { 9X9X9X X&XY.9XJ.=X&X9X9X9X9X9X9X9X9X9X9X9X9X",
"9X9X9X9X9X9X9X9X9X9X9X9XM.+ q a       i v       + #X9X9X9X9X9X9X9X9X9X9X9Xq       j 4X9X9Xp.V.9X9X9Xu.}.9X9X9X9X9X9X9X9X9X9X9X9X",
"9X9X9X9X9X9X9X9X9X9X9X9Xp.  h q       L q       N 9X9X9X9X9X9X9X9X9X9X9X9X)       , E.9X9XXX5 X.S.~ Q 9X9X9X9X9X9X9X9X9X9X9X9X9X",
"9X9X9X9X9X9X9X9X9X9X9X9X9.  N 5       L ,       O.9X9X9X9X9X9X9X9X9X9X9X9Xw.        g.9X9X9XJ.v D h #X9X9X9X9X9X9X9X9X9X9X9X9X9X",
"9X9X9X9X9X9X9X9X9X9X9X9X<.  Z 3       T         M.9X9X9X9X9X9X9X9X9X9X9X9XV.+       <.9X9X9X9XV.T ;.9X9X9X9X9X9X9X9X9X9X9X9X9X9X",
"9X9X9X9X9X9X9X9X9X9X9X9X<.  Z 3     ; Q         ^.9X9X9X9X9X9X9X9X9X9X9X9X).3       X.9X9X9X9X9X X1X9X9X9X9X9X9X9X9X9X9X9X9X9X9X",
"9X9X9X9X9X9X9X9X9X9X9X9X3.  N 5     5 )       % }.9X9X9X9X9X9X9X9X9X9X9X9XXX9       ~ 9X9X9X9X9X9X9X9X9X9X9X9X9X9X9X9X9X9X9X9X9X",
"9X9X9X9X9X9X9X9X9X9X9X9Xe.  j q     q X.      ;  X9X9X9X9X9X9X9X9X9X9X9X9X&Xi       Q 9X9X9X9X9X9X9X9X9X9X9X9X9X9X9X9X9X9X9X9X9X",
"9X9X9X9X9X9X9X9X9X9X9X9Xf.  q q     i O.      ;  X9X9X9X9X9X9X9X9X9X9X9X9X=Xi       T 9X9X9X9X9X9X9X9X9X9X9X9X9X9X9X9X9X9X9X9X9X",
"9X9X9X9X9X9X9X9X9X9X9X9X}.<.X.+     h ;.      ; }.9X9X9X9X9X9X9X9X9X9X9X9X&Xq       T 9X9X9X9X9X9X9X9X9X9X9X9X9X9X9X9X9X9X9X9X9X",
"9X9X9X9X9X9X9X9X9X9X9X9X#Xw.O.3     a 3.      % '.9X9X9X9X9X9X9X9X9X9X9X9XXX9       ) 9X9X9X9X9X9X9X9X9X9X9X9X9X9X9X9X9X9X9X9X9X",
"9X9X9X9X9X9X9X9X9X9X}.F %   a 5     i u.        J.9X9X9X9X9X9X9X9X9X9X9X9XE.,       O.9X9X9X9X9X9X9X9X9X9X9X9X9X9X9X9X9X9X9X9X9X",
"9X9X9X9X9X9X9X9X9X=X).i i i D 5     i g.+       p.9X9X9X9X9X9X9X9X9X9X9X9XM.        3.9X9X9X9X9X9X9X9X9X9X9X9X9X9X9X9X9X9X9X9X9X",
"9X9X9X9X9X9X9X9X&Xp.p.p.p.p.g.9     9 V.3       ) 9X9X9X9X9X9X9X9X9X9X9X9X3.      + z.9X9X9X9X9X9X9X9X9X9X9X9X9X9X9X9X9X9X9X9X9X",
"9X9X9X9X9X9X9X9X9X9X9X9X9X9X1Xq     3 Y.h       h 9X9X9X9X9X9X9X9X9X9X9X9XQ       3 ^.9X9X9X9X9X9X9X9X9X9X9X9X9X9X9X9X9X9X9X9X9X",
"9X9X9X9X9X9X9X9X9X9X9X9X9X9X9XXX XXXXX4X)         ).9X9X9X9X9X9X9X9X9X9X1X3       v 9X9X9X9X9X9X9X9X9X9X9X9X9X9X9X9X9X9X9X9X9X9X",
"9X9X9X9X9X9X9X9X9X9X9X9X9X=XM.$.v.).M. Xv.        O.9X9X9X9X9X9X9X9X9X9Xg.        &.9X9X9X9X9X9X9X9X9X9X9X9X9X9X9X9X9X9X9X9X9X9X",
"9X9X9X9X9X9X9X9X9X9X9X&X;.a +   + v Z H.1X3       q }.9X9X9X9X9X9X9X9X1Xv         '.9X9X9X9X9X9X9X9X9X9X9X9X9X9X9X9X9X9X9X9X9X9X",
"9X9X9X9X9X9X9X9X9X9X1X Xv , 3 , , i x J.9XX.        ` 9X9X9X9X9X9X9X9X3.+       F 9X9X9X9X9X9X9X9X9X9X9X9X9X9X9X9X9X9X9X9X9X9X9X",
"9X9X9X9X9X9X9X9X9X=Xp.e.w.3.3.3.3.3.9. X9X^.5       + v.9X9X9X9X9X9XV.,       % E.9X9X9X9X9X9X9X9X9X9X9X9X9X9X9X9X9X9X9X9X9X9X9X",
"9X9X9X9X9X9X9X9X9X9X9X9X9X9X9X9X9X9X9X9X9X9Xu.        + X.}.4X9X X,.+         <.9X9X9X9X9X9X9X9X9X9X9X9X9X9X9X9X9X9X9X9X9X9X9X9X",
"9X9X9X9X9X9X9X9X9X9X9X9X9X9X9X9X9X9X9X9X9X9X9XQ           ; a a ,           D 1X9X9X9X9X9X9X9X9X9X9X9X9X9X9X9X9X9X9X9X9X9X9X9X9X",
"9X9X9X9X9X9X9X9X9X9X9X9X9X9X9X9X9X9X9X9X9X9X9X1XT                         Z #X9X9X9X9X9X9X9X9X9X9X9X9XE.^.9X9X9X9X9X9X9X9X9X9X9X",
"9X9X9X9X9X9X9X9X9X9X9X9X9X9X9X9X9X9X9X9X9X9X9X9X1XX.%                   L XX9X9X9X9X9X9X9X9X9X9X9X9X9X3.3 9.=X9X9X9X9X9X9X9X9X9X",
"9X9X9X9X9X9X9X9X9X9X9X9X9X9X9X9X9X9X9X9X9X9X9X9X9X1XN.x             i f.=X9X9X9X9X9X9X9X9X9X9X9X9X9X9X3.  + x S.9X9X9X9X9X9X9X9X",
"9X9X9X9X9X9X9X9X9X9X9X9X9X9X9X9X9X9X9X9X9X9X9X9X9X9X9X9X'.z.w.w.g.^.4X9X9X9X9X9X9X4XV.E.E.E.E.E.E.=X9X3.      q =X9X9X9X9X9X9X9X",
"9X9X9X9X9X9X9X9X9X9X9X9X9X9X9X9X9X9X9X9X9X9X9X9X9X9X9X9X9X9X9X9X9X9X9X9X9X9X9X9X9X1X^.9X#XJ.V.=XXX).S.&.      q 1X9X9X9X9X9X9X9X",
"9X9X9X9X9X9X9X9X9X9X9X9X9X9X9X9X9X9X9X9X9X9X9X#X#X&X#X#X#X&X#X#X&X#X#X&X#X#X&X#X&XXXN.v.M.M.v.f.N.N.M.X.      q =X9X9X9X9X9X9X9X",
"9X9X9X9X9X9X9X9X9X9X9X9X9X9X9X9X9X9X9X9X9X9X X3 3 3 3 3 3 3 3 3 3 3 3 3 3 3 3 3 3 3 3 3 3 3 3 3 3 3 3 ;       q 1X9X9X9X9X9X9X9X",
"9X9X9X9X9X9X9X9X9X9X9X9X9X9X9X9X9X9X9X9X9X9X}.                                                                q =X9X9X9X9X9X9X9X",
"9X9X9X9X9X9X9X9X9X9X9X9X9X9X9X9X9X9X9X9X9X9X}.                                                                q 1X9X9X9X9X9X9X9X",
"9X9X9X9X9X9X9X9X9X9X9X9X9X9X9X9X9X9X9X9X9X9X}.                                                                9 =X9X9X9X9X9X9X9X",
"9X9X9X9X9X9X9X9X9X9X9X9X9X9X9X9X9X9X9X9X9X9X#XQ Q T Q T Q T Q T T Q T Q Q T Q T Q T Q T T Q T Q Q T Q T T Q T X.4X9X9X9X9X9X9X9X",
"9X9X9X9X9X9X9X9X9X9X9X9X9X9X9X9X9X9X9X9X9X9X9X9X9X9X9X9X9X9X9X9X9X9X9X9X9X9X9X9X9X9X9X9X9X9X9X9X9X9X9X9X9X9X9X9X9X9X9X9X9X9X9X9X",
"9X9X9X9X9X9X9X9X9X9X9X9X9X9X9X9X9X9X9X9X9X9X9X9X9X9X9X9X9X9X9X9X9X9X9X9X9X9X9X9X9X9X9X9X9X9X9X9X9X9X9X9X9X9X9X9X9X9X9X9X9X9X9X9X",
"9X9X9X9X9X9X9X9X9X9X9X9X9X9X9X9X9X9X9X9X9X9X9X9X9X9X9X9X9X9X9X9X9X9X9X9X9X9X9X9X9X9X9X9X9X9X9X9X9X9X9X9X9X9X9X9X9X9X9X9X9X9X9X9X"
};
