/* XPM */
static char *be388bcd2ca84eade20338007d8e8fe8KF7OoGo617Fd3a96[] = {
/* columns rows colors chars-per-pixel */
"64 64 63 1 ",
"  c #070707",
". c #0B0B0B",
"X c #0C0C0C",
"o c #131313",
"O c gray9",
"+ c #181818",
"@ c #1F1F1F",
"# c gray13",
"$ c #262626",
"% c #282828",
"& c gray18",
"* c gray20",
"= c #353535",
"- c gray23",
"; c #3F3F3F",
": c gray25",
"> c #454545",
", c #484848",
"< c gray31",
"1 c #505050",
"2 c #555555",
"3 c #5A5A5A",
"4 c #5C5C5C",
"5 c #616161",
"6 c #656565",
"7 c #6B6B6B",
"8 c gray43",
"9 c gray44",
"0 c #757575",
"q c #787878",
"w c #7D7D7D",
"e c #818181",
"r c gray53",
"t c #898989",
"y c gray55",
"u c #939393",
"i c #969696",
"p c gray60",
"a c #9D9D9D",
"s c #A3A3A3",
"d c #A4A4A4",
"f c #A8A8A8",
"g c #AFAFAF",
"h c #B1B1B1",
"j c #B4B4B4",
"k c gray73",
"l c gray74",
"z c gray76",
"x c #C6C6C6",
"c c #CBCBCB",
"v c gray80",
"b c LightGray",
"n c #D5D5D5",
"m c #DADADA",
"M c #DDDDDD",
"N c #E2E2E2",
"B c #E6E6E6",
"V c #E9E9E9",
"C c #EEEEEE",
"Z c gray94",
"A c #F4F4F4",
"S c gray98",
"D c white",
/* pixels */
"5@7>&,$@0>&fq44sa<><#;asw5086fdai;<<1wi73688&%*yw64--;:<>*+%;==#",
"*=2<34-@1>;bNMd:9w4;w7ade>1-7dssu006<5r:4452-=*,87:&&*;:%-%,8&+$",
"&o@>6438e32vZCl%670><essw5,35sssu19314q84233=&%-rw=@$*;<$4:-8e09",
"=oo%32$oX.Olmmh3i1y764aau2:,tssau,38<4qp8322*$+4aw&.X$;3*w,;3=&4",
"&%o@1;XX..+xCVg8yqyq81pap:==asaay<<3:>>45244$OX8ka:XX@;u:y$#2&=h",
",vhut9@X.X+agfq35yiry4eww5;9afgs7&###$$%*,,3#XX-si4Xo.;s,rO+$$$h",
"7Mbnmm,..Xo26863uewqrwklge9pfzbb1@-q00995%>2#XX$yf8O&.=t>0o+@#@t",
"emnncz-oo.o3eirtytr4<8aaau9pssssq@>ppppaq#>5+.+-pfs$X.&146234550",
"annnbbr+X#>tdseq75<->9psdffffgddu@<uyyuy7#=,O.zBBVV: .%>NZBCMVZZ",
":6pxy07131<szhpy64$%15yiqtrtrduiy+4ppiii5+%%X.gMmmM< .%<BCigdfvA",
"eiq55080tgfxccxxxlkllxvbv7is8zkjehjp:2547>fp99tfNAxgxnt%ug0ipipa",
"rf00qrtt9wrlccxxvbbbbvMMn0qq3zzlqcci578qetkftetsNSmbBCe$qa82uiiu",
"sueqtyyu8tgccccxvnnnvcNmvs88axlj9cbpte16wadayrtapyccxk9%:6>>ipiu",
"tpu8twtq98rteeq099jnd7Bms1;>3glh0zxa9028wiiyituu>2sNzs8$544%ppuy",
"w83>5utw<8r$XoooO+ibe3m93,3<>:qf9sks1q76wq7eptyt47ehpi8O$=$:puew",
"4,;-6ck8>29%XXXXOOugw0j<fkkgkpe03409,<2692<4pq0yq6w1>wq%+%%3i9;,",
"1;-5lvbf,<<$+@++@$tztqxjpppsdfh50iy3;<1111>6pee968,,:2<%-0flfrar",
"<-6kxxvva,<#OoOXoOrvur0esgfsdugvdcuq88998886iyr713121;&X$ecczkjd",
":5hfhkgsgp,$O@$@.X3pur;9BBBBbber41uuiiasssp6ujxljhjh3>=Xo6kkkjgs",
"<shauifslvp0qqtq898tpa<4afkkds70#=r0qqtyuiy<yyssfghh7s0o+1fdddap",
">6dajkzzzxcvbbzasht9uu%++OXoo+#7#<utrreruie:588777238e5O$>sddsap",
"eiii<,<eeweVDSDDSDDSSSASAASSSSSSSSSSSSDSSSSSSDSDSDDSSSVtsfc,#@:j",
"wiuu26<6wwrVDDDDDDDDDDDDDDDDDDDDDDDDDDDDDDDDDDDDDDDDDDN=,id,w0:j",
"0yu1*3-@6w9NDDDDDDDDDDDDDDDDDDDDSDDDDDDSDDDDDDDDDDDDDDn.O804er5j",
"qtt>+;-+%02NDDDDDDDDDDDDDDDDDftyyBSdttsittyDDDDDDDDDDDmoX>t7974k",
"8wt3;2;-$53NDDDDDDDDDDDDDDDSwX.XpDA>.&j#. +DDDDDDDDDDDM%$-te0rwi",
"&hzvNmczgd9NDDDDDDDDDDDDDDSuX.XrDDZ>&cN# .+DDDDDDDDDDDCdh0dq8qyu",
"#xmBSANMMmeNDDDDDDDDDDDDDSuO..tADDA5bDN$..+DDDDDDDDDDDAmCSe>3618",
"#vmNVBMMmMeMDDDDDDDDDDDDSrX.ouDDDDABSDkO..2DDDDDDDDDDDZsvCVBmvhs",
"#vNNBBBNNMeMDDDDDDDDDDDSuO..uSDDDDDDDv%..;BDDDDDDDDDDDmosbMBVVZC",
"%lMNNNBMnMwNDDDDDDDDDDSyX.XrSDDDDDDDv%..;CDDDDDDDDDDDDmXdmbNmbbM",
"&4888q7qe52MDDDDDDDDDSiX.XrSDDDDSDDM$..:BDDDDDDDDDDDDDmXjmbnnnvc",
"i8n4rgzk0lxADDDDDDDDDc...+>>>>,>>fA<. #NDDgDDDDDDDDDDDZg6ezd<5<6",
"p6ke2ufgeklADDDDDDDDDx   ...... .tA>..$VSj$SDDDDDDDDDDCgnVnzvq,>",
"s1dtqreqggkZDDDDDDDDDx... ..   ..tA>. $BjoODDDDDDDDDDDVriikcsyt@",
"a2q8uufspwfZDDDDDDDDDNeeeeeee,. .tA: .$p@.ODDDDDDDDDDDDsuw8zNzj+",
"i;O$89i:$->NSDDDDDDDDDDDDDDDDt...tDNmmmMmmMDDDDDDDDDDDDg254djpp%",
"5@Oo4yf=%&>NDDDDDDDDDDDDDDDDDt. .tDDDDDDDDDDDDDDDDDDDDZy;1-0awq<",
"1@+O;ds%%%;NDDDDDDDDDDDDDDDDDt.. tDDDDDDDDDDDDDDDDDDDDCs:$@<zmq<",
"2#@@#2>#%#=NDDDDDDDDDDDDDDDDDbaaabDDDDDDDDDDDDDDDDDDDDV3o-jnnvpy",
"3@@#$$***%,VDDDDDDDDDDDDDDDDDDDDDDDDDDDDDDDDDDDDDDDDDDN%X@xkxnn1",
"4@@#+@OOoowZDDDDDDDDDDDDDDDDDDDDDDDDDDDDDDDDDDDDDDDDDDmX..5lkh5@",
"y&2=&%***&eNVVZDAASASSDDACZADDDDDCCCCASAAAZAASDDDDDDSSn#$+=u393$",
"<5ADc7uBSDC;..wjuqgczsZs+XX#vDvZC&%&=fur0s3wwwSSvZASbjsjz0ujmzcx",
":>cmg8eccvz;..9su0skgyM<=33%ym,3e:&*,i028i40<xSVtuBSk4818yu3qgzj",
"0-gv9,,66SC;..343<etpiv&8re30s%.*6%&6q7nCNnb3qvdukjni5wq<fyersZk",
"9=tc5ii07Sn6436r37a8usv*pase8hO.+,#$,51MCMzlt4aidssj148q>tq44ukp",
"7-7w580r:p2tjh4,>$;86rk;ptur8d-%$#$$$#3xzhyp7;ypsfdp,9-61988977t",
"t82<5wre@Ooy0%$&%O .+8k8riu0uhlly$###@1pssa-ufretyt6w99yy7*15,+*",
"s2@+#8r5$&O9bBNNMmvczcg<rqww4vNzi@$$@@2sdse#65X=qqt=O#uce&o3p5X.",
":*<,>36<=&#wVSDDDDDDSVtt1ut,uw833O@#OO3hgfto@$ruppgkd1&2X..&ll,X",
"&:mmmmmmm9#tAAADSDSDSZds;w7<gdssqO--Oo3ggffoXqismVvdss;o.. @vvw#",
"*>bvbvnnbwOqZCZACZCVZCgs:1>3fddp7*<<&X3saasOoywfZAvhsy7 ..O#610=",
":1zllcnnms,7llzcczbmVM5<:7050weu9**=#@$<888=&99iytyyrre>>,>>1<t4",
"radffchAZVbw51396w87lxuq8i23mVBSN6<w00<%lbcp+%*:+OO++8abmMBNchhO",
"yayi8ffnvlfww977ruf<zl04a3%#rCVAn;utte8Xqsp5&$$*OOoO#:9xnBlcml3@",
"saqutddddaaekBlr9ut6ch:7v1*%8mbkd8wqe6q-2>34,:o#ooOo#>4gmfidMMw;",
"gsauujbuyepu2eityra3xg2qmr&$0gdq9s2388w8=-13*:&OoooO##4mmNMNMmq*",
"uguyykVuq-sd<11*0qw:cg<7pr&#2t9>0k00reuq&&;<446;&&&***1itqrttw:@",
"idippwty06fzzq,;q76@2d<3;;OX@=1#34508we6@#%$>>zmBMBBMMcgr2wpe<o$",
"mBBBVVZZgagi7X.@eu= X&<@sjfit9%:2X$>->3-.  o%<fljxkhzkd8816785,@",
"NCCBBBVzrqu-%=;>,2&O.#,#kjhghl&9sX.&-:*O.  X&:hkkkfghge*6r8<5435",
"MNNMMNMN8@$:2579851=>&o$lkkkkzO;r.;vccz4X.  .oepddapgge%204;56q7",
"MNNmmmmm3O4<135752,=3#.*lkkkkj.XX ;afgf4X  O317yuiypasq.*1>&3760"
};
